<?xml version="1.0" encoding="UTF-8" standalone="no"?>
<!-- Created with Inkscape (http://www.inkscape.org/) -->

<svg
   width="2400"
   height="1200"
   viewBox="0 0 634.99998 317.5"
   version="1.1"
   id="svg729"
   inkscape:version="1.2.2 (b0a84865, 2022-12-01)"
   sodipodi:docname="callmejackmobile.svg"
   xmlns:inkscape="http://www.inkscape.org/namespaces/inkscape"
   xmlns:sodipodi="http://sodipodi.sourceforge.net/DTD/sodipodi-0.dtd"
   xmlns="http://www.w3.org/2000/svg"
   xmlns:svg="http://www.w3.org/2000/svg">
  <sodipodi:namedview
     id="namedview731"
     pagecolor="#858585"
     bordercolor="#000000"
     borderopacity="0.25"
     inkscape:showpageshadow="false"
     inkscape:pageopacity="0"
     inkscape:pagecheckerboard="true"
     inkscape:deskcolor="#d1d1d1"
     inkscape:document-units="mm"
     showgrid="false"
     showborder="false"
     borderlayer="false"
     inkscape:zoom="0.30802114"
     inkscape:cx="1735.2705"
     inkscape:cy="2465.7399"
     inkscape:window-width="2560"
     inkscape:window-height="1387"
     inkscape:window-x="0"
     inkscape:window-y="505"
     inkscape:window-maximized="0"
     inkscape:current-layer="layer1" />
  <defs
     id="defs726" />
  <g
     inkscape:label="Layer 1"
     inkscape:groupmode="layer"
     id="layer1">
    <path
       style="fill:#ffffff;stroke-width:6.13518;stroke-linecap:round;stroke-linejoin:round;stroke-dashoffset:0.380976;stroke-opacity:0.508417;paint-order:markers fill stroke"
       d=""
       id="path1597"
       transform="scale(0.26458333)" />
    <path
       style="fill:#ffffff;stroke-width:0.499999;stroke-linecap:round;stroke-linejoin:round;stroke-dashoffset:0.380976;stroke-opacity:0.508417;paint-order:markers fill stroke"
       id="path1846"
       d="m -4.848602,-18.626602 c 0.8553175,4.837711 1.6849617,9.68003 2.5659523,14.5131308 C 3.4459513,27.31354 3.2856492,23.966373 8.2377088,57.847055 12.506588,87.053594 15.793731,116.3779 19.046329,145.70968 c 1.450243,11.00604 2.594588,22.89651 5.386647,33.76098 0.799512,3.11106 2.124309,6.06292 3.186462,9.09439 0,0 43.369473,19.90719 43.369473,19.90719 v 0 C 69.457982,205.52353 67.550939,202.7414 66.396123,199.62611 62.462803,189.0154 60.645992,176.09306 58.611372,165.22814 54.2038,135.66157 49.779647,106.08768 45.991547,76.43365 43.841839,59.60529 40.753754,34.280393 39.59689,16.703717 39.31073,12.355967 39.474438,7.9902618 39.413214,3.633534 c 0,0 -44.261816,-22.260136 -44.261816,-22.260136 z" />
    <path
       style="fill:#ffffff;stroke-width:0.499999;stroke-linecap:round;stroke-linejoin:round;stroke-dashoffset:0.380976;stroke-opacity:0.508417;paint-order:markers fill stroke"
       id="path1848"
       d="m -2.912079,-20.495619 c 0.7130938,0.796333 1.3523707,1.66552 2.13928118,2.388997 C 3.0612823,-14.581609 10.597056,-8.4748491 14.685446,-6.0181833 32.823711,4.8808848 51.085358,15.587524 69.619394,25.799077 c 6.176547,3.403041 30.947746,14.139398 37.410296,16.984836 12.86891,5.487948 25.92992,10.592093 39.42809,14.32271 2.12656,0.587735 4.30693,0.967886 6.43308,1.557065 0.96484,0.267365 3.66634,1.558148 2.82885,1.009513 -13.75419,-9.010256 -27.76336,-17.625126 -41.64504,-26.437688 -8.29023,0.328002 -2.56021,-0.450934 -15.700654,6.680817 -5.11974,2.778654 -10.417812,5.24788 -15.373686,8.309247 -8.075075,4.988179 -25.623813,17.702297 -32.783893,24.0241 -4.840197,4.273524 -9.118499,9.144127 -13.677749,13.716193 -8.218911,9.804413 -12.590726,13.957721 -18.628293,24.89167 -1.837703,3.32806 -3.265888,6.87671 -4.595707,10.43827 -2.306298,6.17678 -2.489387,8.70859 -3.5260234,14.7886 0,0 42.9858224,22.53073 42.9858224,22.53073 v 0 c 0.345093,-5.88185 0.20012,-8.1043 1.945986,-14.19471 0.981787,-3.42494 2.068063,-6.84915 3.614338,-10.059 5.218208,-10.83228 9.422665,-14.94319 17.054708,-24.6075 4.393417,-4.44707 8.496541,-9.201 13.180253,-13.341212 9.009052,-7.963643 22.329678,-17.144129 32.790428,-22.990447 15.70623,-8.777922 14.12856,-6.323338 29.26621,-12.783928 2.52195,-1.076344 4.89887,-2.46498 7.34831,-3.69747 -13.80827,-9.114065 -27.45324,-18.480503 -41.42482,-27.342195 -0.64836,-0.411234 -1.52123,-0.216866 -2.27282,-0.373716 -1.88228,-0.392819 -3.76705,-0.782828 -5.62591,-1.274686 C 95.940138,24.586922 83.657632,19.827779 71.572093,14.688903 65.382782,11.92392 59.132924,9.2906679 53.004161,6.3939528 46.570225,3.353 28.52375,-7.7916864 33.892206,-3.1202206 41.152704,3.1976409 50.261067,7.0473471 58.81798,11.45296 61.925085,13.052683 53.111505,7.4158882 50.306792,5.3309935 44.690275,1.1559324 46.031821,2.3698615 42.762074,-1.089796 c 0,0 -45.674153,-19.405823 -45.674153,-19.405823 z" />
    <path
       style="fill:#ffffff;stroke-width:0.499999;stroke-linecap:round;stroke-linejoin:round;stroke-dashoffset:0.380976;stroke-opacity:0.508417;paint-order:markers fill stroke"
       id="path1850"
       d="m 126.44542,2.7249646 c 0.76564,6.458836 1.90474,12.9599414 3.65355,19.2253884 1.67673,6.007252 3.71123,11.908868 5.5532,17.867528 7.86571,25.444984 4.92966,15.737305 12.3614,41.404082 7.68258,28.759237 11.03738,58.566077 9.20492,88.294407 -0.17881,2.90084 -0.53845,5.7877 -0.80768,8.68155 -0.29789,1.98222 -0.55072,3.97174 -0.89366,5.94667 -0.22442,1.2924 -0.4872,2.57945 -0.80774,3.85141 -0.16526,0.65577 -0.39369,1.29586 -0.64737,1.92274 -0.0882,0.21787 -0.58113,0.48948 -0.37288,0.59844 45.69291,23.90804 33.64662,34.982 48.14568,18.47229 2.70219,-2.38132 5.20173,-5.01456 8.10659,-7.14396 9.74396,-7.14278 21.69177,-13.75794 32.42638,-19.06059 11.55095,-5.7059 24.57174,-11.08029 36.63174,-15.693 4.95689,-1.89591 9.98352,-3.60413 14.97531,-5.40619 9.05494,-2.96128 18.14348,-5.90651 27.49016,-7.8189 1.25552,-0.25689 5.5377,-1.02846 7.25196,-1.04613 0.53906,-0.006 1.06595,0.16179 1.5989,0.24268 0.24054,0.18495 0.48104,0.36991 0.72157,0.55487 0,0 -39.87138,-29.80714 -39.87138,-29.80714 v 0 c -0.37849,0.10004 -0.75697,0.20008 -1.13546,0.30011 -11.84148,2.82213 -23.16993,7.38846 -34.50878,11.74022 -23.63223,9.68203 -46.94273,19.54538 -69.47576,31.64739 -5.46887,2.93722 -10.95774,5.85801 -16.21724,9.1555 -3.33305,2.08969 -6.34484,4.65264 -9.51726,6.97896 -16.25502,15.38769 -7.38407,4.23743 36.71627,31.28924 0.4412,0.27064 0.40778,-0.95589 0.53605,-1.45733 1.10385,-4.31495 0.96867,-8.87354 1.40436,-13.26344 0.086,-3.07272 0.24523,-6.14426 0.25799,-9.21815 0.1265,-30.46186 -3.33056,-60.8892 -10.60806,-90.48342 -1.97668,-6.937619 -3.96658,-13.871493 -5.93004,-20.812869 -5.04476,-17.834536 -10.85151,-35.750962 -11.92723,-54.382482 0,0 -44.31549,-22.5798744 -44.31549,-22.5798744 z" />
    <path
       style="fill:#ffffff;stroke-width:0.499999;stroke-linecap:round;stroke-linejoin:round;stroke-dashoffset:0.380976;stroke-opacity:0.508417;paint-order:markers fill stroke"
       id="path1852"
       d="m 264.01767,31.691109 c 3.47983,-0.07683 6.95889,-0.209603 10.43954,-0.230511 18.29366,-0.109884 22.71514,0.144764 41.89524,0.532879 24.0893,0.487455 48.16371,1.080984 72.24476,1.879949 7.11716,0.286692 24.66145,0.941353 32.65221,1.434936 2.82032,0.17421 13.29713,0.724816 16.89301,2.105261 1.48333,0.569447 5.26822,3.538048 3.8713,2.780974 -13.18945,-7.148195 -26.18586,-14.647006 -39.27882,-21.970509 0.6096,1.708135 1.76053,3.312039 1.8288,5.124406 0.30091,7.98861 -2.86491,20.624303 -4.89416,27.726476 -4.57422,16.009459 -9.11352,27.973033 -15.41198,43.469105 -3.06059,7.530025 -6.37101,14.956075 -9.55654,22.434115 -14.37486,32.55707 -32.21116,63.43665 -52.57093,92.58798 -1.25474,1.70643 -2.45396,3.45512 -3.76423,5.11929 -0.79092,1.00456 -1.73175,1.88394 -2.5337,2.87973 -12.33054,15.31093 42.18643,24.85448 45.53093,26.08862 3.18963,1.17699 6.24046,-2.7118 9.43776,-3.86775 6.10667,-2.20779 12.30752,-4.14586 18.46128,-6.21879 45.26605,-13.21403 91.31239,-23.46996 137.35243,-33.55763 0,0 -38.27158,-26.42575 -38.27158,-26.42575 v 0 c -45.26293,12.31555 -90.77103,23.73582 -136.44571,34.42077 -6.82416,1.70393 -13.66554,3.34033 -20.47248,5.11178 -3.47805,0.90513 -12.77334,0.23653 -10.37957,2.9172 10.23911,11.46622 24.83755,18.12043 37.25632,27.18065 -0.0875,-0.1998 -0.35716,-0.40284 -0.26257,-0.59939 1.51302,-3.14429 4.40282,-5.51941 5.43488,-8.94676 17.82877,-31.01073 34.90241,-62.47745 49.85195,-94.99451 10.88056,-25.16456 8.62311,-19.47636 18.73604,-44.704513 7.89501,-19.695216 7.8209,-18.147499 12.85619,-36.407161 1.17636,-4.265848 2.57143,-8.500163 3.23318,-12.875475 0.36504,-2.413619 -0.11901,-4.880684 -0.17854,-7.321026 C 433.24205,28.134868 418.71632,18.568899 403.78078,9.6736923 401.30055,8.1965365 395.29985,7.9860782 392.94522,7.8821692 379.42689,7.2856105 365.87361,7.9571524 352.35417,7.4009371 309.57054,6.6622646 266.75389,5.915984 224.0708,2.6680043 c 0,0 39.94687,29.0231047 39.94687,29.0231047 z" />
    <path
       style="fill:#ffffff;stroke-width:0.499999;stroke-linecap:round;stroke-linejoin:round;stroke-dashoffset:0.380976;stroke-opacity:0.508417;paint-order:markers fill stroke"
       id="path1854"
       d="m 611.88635,2.2121866 c -1.0478,1.23135 -1.95618,2.59649 -3.14338,3.69406 -7.78645,7.1986004 -14.29634,11.4474204 -23.076,17.9134104 -5.83578,4.2979 -11.69416,8.56576 -17.48328,12.9263 -18.42886,13.88121 -16.21022,12.34813 -33.37364,26.43569 -11.12498,9.9028 -12.15197,10.72025 -22.32545,20.10005 -2.40866,2.22075 -4.74515,4.51998 -7.18448,6.707 -3.45111,3.09412 -6.997,6.10502 -11.01015,8.43264 -0.38364,0.13687 -0.77282,0.56219 -1.15091,0.41066 -0.26922,-0.1079 -0.24539,-1.01714 0.005,-0.87011 14.26004,8.386343 28.52511,16.785803 42.39381,25.804603 0.5067,0.32952 -0.32788,1.3598 0.0734,1.81176 0.53048,0.59743 1.48364,0.60471 2.25549,0.81108 2.84186,0.75989 5.71684,1.38997 8.57527,2.08492 19.21819,4.80584 38.54013,9.29188 57.4041,15.40386 7.55524,2.4479 15.15012,4.86153 22.42794,8.04074 6.46574,2.82445 25.75096,9.77939 18.69669,9.92394 -9.3733,0.19208 -17.58377,-6.51106 -26.37565,-9.76659 2.26971,4.89929 5.26098,9.52505 6.80913,14.69784 3.09384,10.3374 2.67683,21.72099 1.87958,32.28509 -1.0421,13.8086 -3.85823,27.38292 -6.6939,40.9026 -0.71216,2.9686 -1.42432,5.9372 -2.13648,8.90579 0,0 42.16682,22.58722 42.16682,22.58722 v 0 c 0.54948,-3.09004 1.09897,-6.18009 1.64846,-9.27013 2.33279,-13.92999 4.86445,-27.92547 6.03425,-42.0149 0.90844,-10.94148 1.63962,-23.32797 -1.03754,-34.1529 -1.40083,-5.66417 -4.28188,-10.85572 -6.42282,-16.28357 -17.03012,-12.03497 -33.59282,-24.76023 -51.09035,-36.10493 -11.24906,-7.29343 -28.50532,-12.76845 -40.89087,-16.73289 -8.02597,-2.56899 -16.14139,-4.85007 -24.22828,-7.22032 -19.57067,-5.73606 -19.22977,-5.57416 -36.12673,-10.186113 -3.41134,-0.84751 -6.77064,-1.94217 -10.23403,-2.54257 -2.54375,-0.44098 -8.09243,1.11988 -6.22688,2.54249 47.79283,36.445643 29.25945,37.786313 43.95161,25.369783 5.8837,-5.29997 11.04705,-11.2396 16.48962,-16.97902 9.21794,-9.720713 10.43804,-10.667613 20.76801,-20.676213 14.49102,-12.44298 16.71491,-14.8899 32.79242,-26.34946 6.27351,-4.47156 25.69085,-17.08872 33.05947,-21.97028 3.79461,-2.51384 7.69679,-4.87723 11.3493,-7.59341 1.39166,-1.03492 2.48926,-2.41549 3.73389,-3.62321 0,0 -42.3031,-25.4549104 -42.3031,-25.4549104 z" />
    <path
       style="fill:#ffffff;stroke-width:0.499999;stroke-linecap:round;stroke-linejoin:round;stroke-dashoffset:0.380976;stroke-opacity:0.508417;paint-order:markers fill stroke"
       id="path1856"
       d="m 714.74958,25.065057 c -2.37866,5.21771 -1.06017,2.22602 -4.48267,10.66834 -2.0547,5.06833 -3.94944,10.20395 -6.14882,15.21122 -10.40169,23.68129 -22.84806,46.34436 -35.09993,69.094483 -10.57433,19.56845 -22.72946,38.41914 -30.62142,59.32516 -1.42521,3.77542 -2.33429,7.72599 -3.50144,11.58902 0,0 41.54965,22.42105 41.54965,22.42105 v 0 c 0.69587,-3.88376 1.03787,-7.84788 2.08762,-11.65129 5.93144,-21.49042 17.86244,-40.51038 28.06018,-60.10336 4.63917,-8.33348 9.25332,-16.6809 13.91751,-25.00038 4.3914,-7.83291 8.89092,-15.60515 13.24915,-23.456583 6.19707,-11.16409 12.03599,-22.52493 18.26171,-33.67309 1.00406,-1.79793 4.16483,-7.02361 5.79679,-9.72908 0,0 -43.06833,-24.69549 -43.06833,-24.69549 z" />
    <path
       style="fill:#ffffff;stroke-width:0.499999;stroke-linecap:round;stroke-linejoin:round;stroke-dashoffset:0.380976;stroke-opacity:0.508417;paint-order:markers fill stroke"
       id="path1858"
       d="m 717.17425,33.282457 c 1.9956,17.92663 3.19493,35.95021 3.8579,53.97302 0.38744,10.5325 0.46581,21.074143 0.66614,31.611883 1.29973,68.36839 -0.23464,-3.26533 1.15493,59.63769 1.30899,15.41204 1.6369,25.87789 4.74049,40.64265 0.80943,3.85069 2.19411,7.55764 3.29116,11.33647 0,0 42.76754,19.96141 42.76754,19.96141 v 0 c -1.61728,-3.76235 -3.64942,-7.37232 -4.85186,-11.28705 -4.29252,-13.97497 -5.23687,-26.49304 -7.18675,-41.07502 -0.4531,-9.44121 -1.06295,-18.87623 -1.35932,-28.32368 -0.53541,-17.06763 -0.69562,-45.70722 -0.45146,-62.81732 0.20914,-14.656413 1.08478,-29.298583 1.27246,-43.955283 0.0333,-2.59752 -0.12757,-5.1939 -0.19136,-7.79087 0,0 -43.70987,-21.9139 -43.70987,-21.9139 z" />
    <path
       style="fill:#ffffff;stroke-width:0.499999;stroke-linecap:round;stroke-linejoin:round;stroke-dashoffset:0.380976;stroke-opacity:0.508417;paint-order:markers fill stroke"
       id="path1860"
       d="m 712.39525,171.15929 c 19.67639,-2.7909 39.23509,-6.24453 58.74654,-10.00352 0,0 -38.10868,-26.5784 -38.10868,-26.5784 v 0 c -4.91532,0.97602 -9.80905,2.06788 -14.74595,2.92806 -5.36981,0.93562 -10.75921,1.76999 -16.16633,2.45796 -11.19073,1.42385 -15.0343,1.4529 -25.43798,2.24025 -1.54411,0.11687 -3.08517,0.27099 -4.62776,0.40645 0,0 40.34016,28.5492 40.34016,28.5492 z" />
    <path
       style="fill:#ffffff;stroke-width:0.499999;stroke-linecap:round;stroke-linejoin:round;stroke-dashoffset:0.380976;stroke-opacity:0.508417;paint-order:markers fill stroke"
       id="path1862"
       d="m 787.10019,36.904547 c 1.72393,9.10008 1.74018,10.01763 4.34884,19.70768 6.56569,24.38858 5.54437,16.56818 10.91002,44.143163 4.13374,21.24395 4.61209,27.70042 7.27345,48.7317 1.79422,15.87505 2.59514,31.82496 3.1012,47.78253 0.003,0.0777 0.27895,12.23108 0.56005,13.88092 0.20711,1.21578 0.80949,2.33 1.21425,3.49501 16.2478,7.36685 31.77188,16.60242 48.74339,22.10057 2.88057,0.93321 5.56337,-2.39247 8.33626,-3.60884 4.05656,-1.77946 8.06476,-3.67065 12.15196,-5.37853 11.19775,-4.67902 24.44475,-9.70238 35.82035,-13.47592 7.29954,-2.42141 14.70126,-4.52313 22.05189,-6.78468 24.35775,-6.96431 49.12047,-12.41838 73.98825,-17.20808 0,0 -40.20747,-27.80908 -40.20747,-27.80908 v 0 c -23.51384,6.69811 -47.18516,12.83721 -70.59964,19.88629 -18.1196,5.39798 -25.65183,7.46194 -43.34698,13.41898 -5.57316,1.87619 -11.08811,3.92115 -16.62544,5.90058 -4.32829,1.54723 -8.61975,3.19887 -12.97133,4.67934 -2.78551,0.94769 -10.55751,0.56621 -8.43433,2.60318 10.60331,10.17273 24.44101,16.31852 36.66154,24.47777 -1.04027,-0.24074 -2.53109,0.16796 -3.12076,-0.7222 -1.04495,-1.5774 -0.78142,-3.70531 -1.05276,-5.57787 -0.42097,-2.90521 -0.7181,-5.82737 -1.02293,-8.74705 -1.715,-16.42586 -3.08501,-32.8917 -5.37337,-49.25509 -4.06326,-29.20929 -2.46224,-19.0848 -7.45257,-49.1144 -1.35895,-8.17763 -2.64128,-16.36921 -4.14189,-24.522033 -1.12829,-6.12989 -2.48558,-12.21544 -3.7437,-18.32001 -0.72281,-3.50716 -1.56972,-6.99 -2.19908,-10.51513 -0.42461,-2.37815 -0.64056,-4.78888 -0.96084,-7.18333 0,0 -43.90836,-22.58547 -43.90836,-22.58547 z" />
    <path
       style="fill:#ffffff;stroke-width:0.499999;stroke-linecap:round;stroke-linejoin:round;stroke-dashoffset:0.380976;stroke-opacity:0.508417;paint-order:markers fill stroke"
       id="path1864"
       d="m 975.17086,10.079597 c 0.47143,2.02218 3.47265,14.93043 3.698,15.71489 1.5282,5.31979 3.32163,10.55984 5.00703,15.83195 10.75269,33.63571 0.78451,2.46033 13.92933,41.52675 2.68428,7.97761 5.24328,15.99681 7.86488,23.995223 6.8845,23.33607 10.8131,47.35372 13.6915,71.46441 0.3202,2.68184 2.2837,24.95394 3.5397,29.41381 0.6819,2.42117 2.384,4.43 3.576,6.64498 15.925,8.26175 30.6629,19.39653 47.7749,24.78524 3.7427,1.17859 6.5264,-4.36292 9.6852,-6.69065 11.7191,-8.63581 13.6293,-11.21386 26.0969,-19.52474 12.4216,-8.28022 15.7231,-9.49055 28.7111,-16.07553 12.3209,-5.3594 24.9723,-10.26496 38.1265,-13.18281 1.5213,-0.33745 3.0685,-0.54459 4.6028,-0.8169 0,0 -40.2332,-27.83462 -40.2332,-27.83462 v 0 c -14.2162,4.20286 -27.9738,9.85134 -41.2427,16.45357 -13.3388,7.26604 -15.6849,8.21023 -28.7604,16.77167 -4.8274,3.16087 -9.448,6.62824 -14.2348,9.85033 -4.2568,2.86531 -8.4057,5.92222 -12.8934,8.41015 -2.7678,1.5344 -11.0153,1.36404 -8.7822,3.60641 9.9833,10.02485 23.6777,15.49275 35.5165,23.23914 -1.8873,-1.68854 -4.563,-2.78407 -5.6619,-5.06563 -2.1316,-4.42558 -5.0463,-27.41557 -5.4697,-30.15816 -3.7577,-24.33767 -7.8964,-48.6433 -14.1149,-72.49774 -7.7768,-24.29407 -7.3657,-22.66701 -14.6075,-46.605693 -4.6689,-15.43378 -9.5475,-30.9408 -11.4093,-47.02529 0,0 -44.41034,-22.23076 -44.41034,-22.23076 z" />
    <path
       style="fill:#ffffff;stroke-width:0.499999;stroke-linecap:round;stroke-linejoin:round;stroke-dashoffset:0.380976;stroke-opacity:0.508417;paint-order:markers fill stroke"
       id="path1866"
       d="m 34.179894,527.16707 c 0.877704,-3.68173 2.477444,-7.17894 3.232931,-10.88909 1.534605,-7.53636 2.599076,-15.16089 3.920444,-22.73752 1.742167,-9.9895 3.46845,-19.98189 5.270147,-29.96081 2.534136,-14.03564 8.002119,-43.0453 10.7296,-57.57706 3.574442,-16.87912 6.149936,-33.98859 10.073558,-50.79775 0.494448,-2.11826 0.95335,-4.26212 1.746584,-6.28753 0.130738,-0.33383 1.24974,-0.38375 0.928475,-0.54285 -14.293431,-7.07882 -28.847668,-13.61837 -43.271502,-20.42752 2.201075,10.90284 5.547447,21.71215 10.703534,31.60664 3.551258,6.81482 5.117747,8.55168 9.485304,14.60794 16.188798,17.76296 12.100004,14.38045 53.194241,33.07276 3.30629,1.50392 7.29666,-0.12179 10.86888,-0.77952 11.03377,-2.03163 21.13138,-7.36258 31.0311,-12.33911 6.32671,-3.40235 12.56514,-7.0005 19.02586,-10.15047 1.29103,-0.62947 2.55373,-1.35231 3.9266,-1.77448 0.76541,-0.23538 3.09072,0.22889 2.39633,-0.16994 -13.86893,-7.96587 -28.17225,-15.15036 -42.25839,-22.72557 -0.17542,1.23852 -0.18659,2.51166 -0.52627,3.71552 -2.29927,8.14898 -6.06419,16.58744 -8.91897,24.41609 -2.37674,6.51775 -4.69955,13.05695 -6.86371,19.64833 -5.32067,16.20512 -8.54675,27.94487 -13.248155,44.2586 -4.786919,19.56768 -10.931314,39.22154 -11.871714,59.49064 0.0013,0.59139 0.0027,1.18279 0.004,1.77419 0,0 44.578649,21.80187 44.578649,21.80187 v 0 c -0.17376,-0.46818 -0.34753,-0.93636 -0.52129,-1.40451 -0.76887,-5.06767 -0.7692,-10.05377 -0.43167,-15.18478 1.00248,-15.23937 3.88987,-30.26185 7.54054,-45.07272 5.31901,-19.26183 6.4014,-24.7844 13.4438,-43.69896 5.01756,-13.47621 8.48137,-20.57281 14.4884,-33.00481 1.56023,-3.22903 3.2906,-6.3767 4.76747,-9.64467 0.76831,-1.70013 1.30685,-3.49499 1.96029,-5.24245 -14.289,-9.02653 -28.17677,-18.72187 -42.86699,-27.07958 -0.83362,-0.47429 -1.76158,0.76306 -2.61298,1.20462 -7.47566,3.87721 -14.45517,8.67945 -21.88326,12.64373 -9.165162,4.69979 -18.99775,10.02014 -29.574744,10.50824 -3.388077,0.15634 -12.724352,-3.36016 -10.103101,-1.20782 10.268796,8.43182 22.660223,13.88126 33.990338,20.82188 -1.784655,-1.63364 -3.569306,-3.26726 -5.353958,-4.90087 -1.731118,-2.11233 -3.57795,-4.13491 -5.193358,-6.33698 -5.556877,-7.575 -9.169035,-15.04353 -12.071051,-23.94985 -0.817094,-2.50767 -1.623002,-5.02894 -2.168816,-7.60926 -0.386879,-1.82896 -0.413208,-3.71596 -0.61981,-5.57392 -14.709494,-8.63439 -29.03365,-17.96164 -44.128482,-25.90316 -0.722801,-0.38029 -0.471557,1.57065 -0.583793,2.37961 -0.321316,2.316 -0.465337,4.6532 -0.714468,6.97807 -1.878795,17.53274 -4.027193,35.03819 -6.786573,52.45735 -3.507716,21.50853 -5.655369,36.16311 -10.2118264,57.71504 -4.2891863,20.28775 -8.82542626,41.01245 -18.0086243,59.76919 0,0 43.4864207,24.10325 43.4864207,24.10325 z" />
    <path
       style="fill:#ffffff;stroke-width:0.499999;stroke-linecap:round;stroke-linejoin:round;stroke-dashoffset:0.380976;stroke-opacity:0.508417;paint-order:markers fill stroke"
       id="path1868"
       d="m 204.32068,376.09644 c -7.25873,20.61377 -14.6596,41.2041 -23.48883,61.20908 -1.84355,4.17706 -3.82299,8.29278 -5.73449,12.4392 -3.97818,8.30609 -8.35795,16.41242 -12.93333,24.40231 -0.13888,0.24254 -5.01213,7.15235 -2.9179,8.53702 14.80307,9.78747 30.91163,17.44054 46.36745,26.16081 13.98526,-3.43837 27.44129,-8.63484 41.05942,-13.23284 8.34612,-2.81798 16.68216,-5.67283 25.09812,-8.2748 22.84461,-7.06292 30.90996,-8.84822 53.93516,-14.77422 19.44881,-4.71863 39.04893,-8.97565 58.84945,-11.95454 5.08661,-0.76525 13.2925,-1.91831 18.85733,-1.66301 1.50429,0.069 2.96373,0.5356 4.44561,0.80338 13.16913,13.15109 2.49351,2.20271 -39.67801,-23.02563 0,0 44.74605,21.57786 44.74605,21.57786 v 0 c -42.73627,-27.94744 -25.3205,-26.79798 -44.49324,-27.60494 -1.44613,0.0699 -2.89919,0.0518 -4.3384,0.20955 -5.52741,0.60595 -12.4071,2.02703 -17.62606,3.14384 -19.00806,4.06754 -37.87158,8.80827 -56.65051,13.81662 -8.88247,2.35945 -17.78324,4.65108 -26.64741,7.0784 -18.02749,4.93654 -35.99637,10.08472 -53.99158,15.13765 -7.70218,2.16271 -24.40564,7.26237 -33.35598,8.74988 -3.06797,0.50988 -6.20614,0.41648 -9.30921,0.62471 12.38694,8.21796 24.72335,16.51262 37.16082,24.6539 0.60535,0.39627 -1.7109,-0.68863 -1.6505,-1.40962 0.14049,-1.67719 1.4357,-3.04459 2.15124,-4.56798 3.96574,-8.44309 7.92258,-16.89118 11.68989,-25.42542 7.24043,-17.00036 3.90112,-9.03431 11.37346,-27.12858 5.41986,-13.12421 10.59917,-26.38676 16.88632,-39.13105 1.0795,-2.18821 2.30007,-4.30396 3.4501,-6.45592 0,0 -43.25497,-23.89566 -43.25497,-23.89566 z" />
    <path
       style="fill:#ffffff;stroke-width:0.499999;stroke-linecap:round;stroke-linejoin:round;stroke-dashoffset:0.380976;stroke-opacity:0.508417;paint-order:markers fill stroke"
       id="path1870"
       d="m 232.42382,397.14654 c 3.14224,-0.69618 6.39311,-0.77812 9.53591,-1.45847 4.74882,-1.02798 9.41952,-2.39337 14.15969,-3.46051 21.22048,-4.77721 42.63715,-8.58496 64.03678,-12.44767 21.64627,-3.22098 43.26739,-7.2813 65.12311,-8.84486 0,0 -39.63225,-28.08147 -39.63225,-28.08147 v 0 c -20.76151,3.55671 -41.43113,7.63958 -62.18094,11.26389 -10.40664,1.90238 -34.11708,6.26526 -44.46703,8.04196 -6.9725,1.19692 -13.94331,2.41377 -20.94411,3.43226 -3.17392,0.46175 -15.84504,2.21757 -21.60881,2.24858 -1.33432,0.007 -2.66161,-0.19402 -3.99242,-0.29101 0,0 39.97007,29.5973 39.97007,29.5973 z" />
    <path
       style="fill:#ffffff;stroke-width:0.499999;stroke-linecap:round;stroke-linejoin:round;stroke-dashoffset:0.380976;stroke-opacity:0.508417;paint-order:markers fill stroke"
       id="path1872"
       d="m 248.33942,449.22199 c 19.14415,-5.09297 38.95715,-6.74701 58.62632,-8.40304 5.31532,-0.31647 10.63067,-0.63296 15.94601,-0.94943 0,0 -37.63404,-26.9621 -37.63404,-26.9621 v 0 c -5.25224,0.38748 -10.50449,0.77496 -15.75674,1.16245 -20.04314,1.53548 -40.14443,2.95383 -59.94994,6.54087 -0.78083,0.14142 -1.54344,0.36954 -2.31516,0.55433 0,0 41.08355,28.05692 41.08355,28.05692 z" />
    <path
       style="fill:#ffffff;stroke-width:0.499999;stroke-linecap:round;stroke-linejoin:round;stroke-dashoffset:0.380976;stroke-opacity:0.508417;paint-order:markers fill stroke"
       id="path1874"
       d="m 675.38563,248.93355 c 0.0537,1.09204 0.24138,2.18573 0.16103,3.27613 -0.73761,10.00932 -1.91513,15.08556 -4.50984,25.47093 -2.33475,9.3449 -4.89679,18.63175 -7.41492,27.92894 -11.8019,43.57383 -10.25622,37.48625 -23.10829,81.72913 -3.70163,13.91394 -7.45878,27.81321 -11.10488,41.74178 -7.64378,29.20021 -10.49944,40.19859 -16.91041,68.64792 -4.26702,18.93535 -8.02148,37.9758 -11.74759,57.0224 -0.53986,2.855 -1.07785,5.7103 -1.61958,8.5648 -0.32122,1.6927 -0.64158,3.3856 -0.96927,5.077 -0.17108,0.8831 -0.28452,1.7803 -0.52704,2.6465 -0.0249,0.089 -0.33138,0.082 -0.24817,0.1223 45.85472,21.9181 45.0618,37.12 43.89452,15.407 -0.83986,-4.2264 -1.00525,-8.645 -2.51958,-12.6791 -5.05536,-13.4674 -21.39758,-44.7785 -28.61862,-55.50105 -7.58521,-11.26336 -16.3174,-21.72636 -25.03871,-32.13489 -17.17887,-20.50227 -31.96494,-34.95301 -50.45098,-53.84638 -6.61842,-6.39726 -13.23684,-12.79451 -19.85527,-19.19176 0,0 -40.14643,-16.49289 -40.14643,-16.49289 v 0 c 7.10095,6.54823 14.2019,13.09648 21.30286,19.64473 19.47785,19.24135 33.87561,32.65469 51.75607,53.84689 8.41021,9.96791 16.78507,20.04105 23.95331,30.93633 7.77372,11.81558 20.13736,37.31802 24.7225,52.01452 1.12637,3.6104 0.95659,7.5032 1.4349,11.2548 -1.32236,21.8074 -1.78474,4.6326 43.76017,29.9581 0.16571,0.092 -0.15284,-0.3553 -0.16469,-0.5445 -0.0588,-0.9384 -0.0627,-1.8802 -0.0461,-2.8203 0.0318,-1.799 0.0899,-3.598 0.19155,-5.3943 0.16995,-3.0022 0.41552,-5.9997 0.62328,-8.9995 1.31483,-13.678 1.63837,-18.3523 3.71936,-33.0846 6.54554,-46.33887 16.8904,-92.05511 29.57881,-137.08444 4.21902,-13.85004 8.16667,-27.7857 12.65708,-41.55014 4.20892,-12.90164 8.79713,-25.67811 13.43552,-38.43163 15.38889,-42.31259 5.71431,-11.70247 14.70522,-41.48812 1.04761,-3.47062 2.28916,-6.88798 3.15191,-10.40908 0.2472,-1.00888 0.10735,-2.07468 0.16103,-3.11203 0,0 -44.20876,-22.52549 -44.20876,-22.52549 z" />
    <path
       style="fill:#ffffff;stroke-width:0.499999;stroke-linecap:round;stroke-linejoin:round;stroke-dashoffset:0.380976;stroke-opacity:0.508417;paint-order:markers fill stroke"
       id="path1876"
       d="m 760.87944,269.18952 c -1.46271,8.38473 -2.44823,16.86687 -4.38813,25.15423 -7.13205,30.46852 -15.52248,55.3489 -26.35332,84.97644 -5.74184,15.7067 -11.94505,31.24203 -18.1326,46.77855 -12.87468,32.32748 -20.88499,50.76071 -34.20382,82.14852 -10.09752,24.58722 -20.6353,49.00472 -29.46825,74.08732 -2.98175,8.4671 -5.62285,17.063 -8.40844,25.597 -5.84678,17.6612 -2.26588,4.7325 42.53,27.3649 0.9775,0.4939 1.4045,-1.6888 1.98941,-2.6147 1.17287,-1.8566 2.18267,-3.8114 3.27401,-5.717 0,0 -41.87745,-24.5882 -41.87745,-24.5882 v 0 c -1.21848,1.4941 -2.33296,3.0795 -3.65543,4.4824 -0.20904,0.2218 -1.1174,0.1443 -0.86065,0.3084 42.34328,27.0727 42.2517,42.171 41.70443,23.8899 1.0071,-9.0711 2.89351,-17.9979 5.1464,-26.844 6.60791,-25.9465 15.70589,-51.1459 24.85817,-76.2788 18.68863,-48.86714 11.80731,-31.33217 32.41936,-83.1832 17.07638,-42.9568 34.35813,-85.84681 49.84117,-129.4153 2.79728,-7.87143 5.28692,-15.84883 7.93039,-23.77324 0,0 -42.34525,-22.37322 -42.34525,-22.37322 z" />
    <path
       style="fill:#ffffff;stroke-width:0.499999;stroke-linecap:round;stroke-linejoin:round;stroke-dashoffset:0.380976;stroke-opacity:0.508417;paint-order:markers fill stroke"
       id="path1878"
       d="m 775.36576,271.25222 c -1.30314,3.09869 -3.3238,7.17928 -3.3758,10.61339 -0.27516,18.1715 4.04989,25.93964 10.50089,45.41636 4.29225,12.95911 9.03265,25.76573 13.45133,38.68227 4.77461,13.95701 9.41881,27.95828 14.12822,41.93741 17.8269,55.35181 34.18786,111.19524 54.01033,165.88243 0,0 42.24359,19.5378 42.24359,19.5378 v 0 c -6.18162,-14.1772 -7.83939,-17.6552 -13.9128,-33.231 -17.32237,-44.42508 -31.96158,-89.84073 -46.36497,-135.27527 -5.08442,-15.86402 -20.05548,-61.91115 -24.76278,-79.05466 -4.57867,-16.67508 -7.77151,-25.19093 -6.50182,-40.68199 0.20792,-2.53672 1.24408,-4.50469 2.26569,-6.66033 0,0 -41.68188,-27.16641 -41.68188,-27.16641 z" />
    <path
       style="fill:#ffffff;stroke-width:0.499999;stroke-linecap:round;stroke-linejoin:round;stroke-dashoffset:0.380976;stroke-opacity:0.508417;paint-order:markers fill stroke"
       id="path1880"
       d="m 753.42373,453.93544 c 3.08037,-0.59055 6.14959,-1.24259 9.24113,-1.77159 4.31233,-0.7379 8.64438,-1.35565 12.96733,-2.02859 6.0591,-0.94324 12.10997,-1.94157 18.1788,-2.82001 18.82025,-2.72412 37.70586,-5.03267 56.58192,-7.32867 18.12205,-2.19072 9.55429,-1.17279 25.70202,-3.06469 0,0 -38.71923,-27.32707 -38.71923,-27.32707 v 0 c -15.37521,2.46359 -7.19354,1.17499 -24.54781,3.84789 -13.13921,1.88624 -22.70326,3.29914 -36.0297,5.03544 -20.23784,2.63679 -19.52918,2.42306 -39.44851,4.6105 -4.54019,0.49858 -9.06964,1.10284 -13.61867,1.51302 -3.43163,0.30943 -6.87767,0.43013 -10.3165,0.64521 0,0 40.00922,28.68856 40.00922,28.68856 z" />
    <path
       style="fill:#ffffff;stroke-width:0.499999;stroke-linecap:round;stroke-linejoin:round;stroke-dashoffset:0.380976;stroke-opacity:0.508417;paint-order:markers fill stroke"
       id="path1882"
       d="m 1004.5301,282.15292 c -5.23567,2.66895 -2.7361,1.10183 -9.9338,8.70982 -5.14572,5.43901 -10.12621,11.03206 -15.17057,16.56521 -6.45409,7.07943 -13.46835,13.69111 -19.32472,21.27242 -12.35334,15.99195 -29.50591,44.94422 -40.00235,62.0231 -23.21922,39.96888 -44.91601,80.79605 -68.67033,120.45431 -0.92194,3.59132 -4.22629,5.56482 -5.97831,8.57756 -10.43046,17.93584 28.88017,19.67414 44.68011,24.78294 2.97439,0.9617 5.76199,-2.4392 8.71775,-3.4567 4.42106,-1.522 8.93141,-2.771 13.39713,-4.1566 14.48511,-3.5695 20.5691,-5.8098 36.39989,-6.0971 8.37695,-0.152 16.76429,0.5195 25.09573,1.4047 14.5198,1.5427 33.20807,5.0138 47.23697,9.6727 5.9406,1.9728 11.5207,4.8994 17.2811,7.3491 30.8866,18.9408 -3.9294,-2.7864 -20.1631,-9.4987 -1.9613,-0.8109 2.7326,3.2883 3.7208,5.1666 1.6486,3.1333 1.1875,4.3114 0.9611,7.4437 0,0 43.4514,22.7747 43.4514,22.7747 v 0 c 0.2313,-1.5867 0.7185,-3.1567 0.6938,-4.7599 -0.058,-3.7393 -1.3892,-10.4077 -4.6717,-12.753 -27.131,-19.3846 -37.2245,-24.4424 -59.9318,-36.62419 -5.62536,-2.08053 -11.11673,-4.56714 -16.87597,-6.24152 -14.13486,-4.10951 -32.70467,-7.18998 -47.15566,-8.58669 -8.73815,-0.84455 -17.51999,-1.53812 -26.29812,-1.42382 -17.57781,0.22891 -22.36074,2.12153 -38.22685,5.82993 -4.77766,1.27548 -9.57643,2.47444 -14.33303,3.82643 -3.61201,1.02666 -13.58622,0.82608 -10.76854,3.3083 12.01782,10.58696 28.45125,14.87746 41.67277,23.91646 1.04569,0.7149 -1.65372,3.828 -2.48666,2.8736 -2.37397,-2.72 10.29862,-7.149 4.84892,-9.6848 19.72693,-41.75583 39.90175,-83.3822 63.13691,-123.32216 14.80904,-23.79252 22.9711,-38.94913 41.22655,-60.2655 6.25818,-7.3075 13.40598,-13.81611 20.46278,-20.35574 9.0627,-8.39859 15.8011,-14.3401 25.8209,-20.16583 0.7381,-0.42915 1.6082,-0.57396 2.4123,-0.86092 0,0 -41.2254,-27.69841 -41.2254,-27.69841 z" />
    <path
       style="fill:#ffffff;stroke-width:0.499999;stroke-linecap:round;stroke-linejoin:round;stroke-dashoffset:0.380976;stroke-opacity:0.508417;paint-order:markers fill stroke"
       id="path1884"
       d="m 1067.0224,260.0736 c -0.047,1.24764 -0.1947,2.49557 -0.1408,3.74292 0.1672,3.86715 1.9281,26.87662 2.2189,28.42459 0.8268,4.40169 16.1656,65.32565 16.4367,66.52262 3.1619,13.95812 5.793,28.03121 8.6894,42.04679 6.8192,38.4411 10.8763,77.29318 13.6617,116.21167 0.6638,9.27569 1.0777,18.56759 1.648,27.84959 0.4955,8.0645 1.8459,28.5729 2.4545,37.8589 0.2428,3.6131 0.4856,7.2263 0.7284,10.8395 0,0 42.4781,21.0292 42.4781,21.0292 v 0 c -0.6145,-3.7747 -1.229,-7.5495 -1.8435,-11.3242 -2.4163,-17.4104 -2.8781,-19.9801 -4.9885,-39.0166 -3.5584,-32.0969 -2.6833,-28.9659 -6.7713,-63.4658 -1.5703,-13.25242 -3.2211,-26.49625 -5.0366,-39.71729 -1.9596,-14.27025 -4.1922,-28.50166 -6.2883,-42.75249 -2.4495,-13.86096 -4.6424,-27.76968 -7.3483,-41.58287 -4.8522,-24.76968 -9.6265,-39.32642 -12.5335,-63.75775 -1.1686,-9.82171 -0.4902,-20.10429 0.5471,-29.91895 0,0 -43.912,-22.98983 -43.912,-22.98983 z" />
    <path
       style="fill:#ffffff;stroke-width:0.499999;stroke-linecap:round;stroke-linejoin:round;stroke-dashoffset:0.380976;stroke-opacity:0.508417;paint-order:markers fill stroke"
       id="path1886"
       d="m 1224.8566,292.63425 c -1.1041,1.50892 -2.1295,3.07862 -3.3121,4.52676 -14.7273,18.03424 -32.9032,33.49604 -51.0948,47.80955 -22.228,17.48946 -48.1067,35.06017 -71.2792,51.23531 -35.7907,23.71596 -71.2118,48.5633 -109.98617,67.27886 -16.32947,10.11312 -5.98998,2.87443 41.11997,28.57445 1.3842,0.75517 3.017,-0.92107 4.5428,-1.31924 7.5257,-1.96398 15.0915,-3.20572 22.7768,-4.35245 3.2644,-0.35867 6.5153,-0.87569 9.7933,-1.07601 11.0601,-0.6759 23.0055,-0.52641 34.017,-0.14938 14.3056,0.48982 30.1311,1.51161 44.3703,2.73661 7.2111,0.62037 14.4054,1.42158 21.6081,2.13238 14.9774,2.10349 30.612,2.68632 44.593,9.12019 2.4963,1.14874 9.4772,5.55995 7.0451,4.28096 -37.7648,-19.85952 -44.7295,-32.01646 -34.8035,-16.50365 1.9707,4.07262 1.4221,8.60634 2.2184,12.92582 0.6721,3.64585 0.9803,3.93401 2.3468,7.47331 1.4912,3.39122 3.507,6.49468 5.517,9.58985 0,0 45.1436,19.63691 45.1436,19.63691 v 0 c -2.134,-2.8488 -4.3062,-5.685 -5.9864,-8.8377 -1.5579,-2.8342 -1.947,-3.1277 -2.7803,-6.18622 -1.2908,-4.73737 -0.4524,-9.73614 -1.9221,-14.4493 -8.5463,-21.45008 -1.0912,-5.56357 -47.2622,-33.81173 -4.6622,-2.8524 -12.4356,-4.98904 -17.4234,-5.97893 -9.1871,-1.82327 -23.9459,-3.10216 -32.8095,-4.02415 -22.1957,-1.96988 -44.4164,-3.94925 -66.6807,-4.98964 -7.2407,-0.33835 -28.2337,-0.88062 -36.063,-0.56359 -3.367,0.13631 -6.6995,0.73358 -10.0492,1.10037 -3.0817,0.43654 -6.1724,0.81468 -9.2453,1.30964 -0.9559,0.15393 -13.0699,2.43588 -14.50934,2.65321 -1.58557,0.23942 -6.02459,-0.49741 -4.78274,0.51705 37.75088,30.83875 30.66098,41.05913 39.97648,26.60703 9.0759,-6.50057 18.4975,-12.49479 27.6634,-18.87141 25.226,-17.54949 49.9801,-35.76664 75.1058,-53.45774 11.9844,-8.40253 23.9442,-16.84022 35.9533,-25.20759 12.2044,-8.50355 24.5159,-16.85338 36.6868,-25.40487 19.1489,-13.45427 32.5973,-22.64243 49.7543,-37.026 3.2313,-2.70894 8.7763,-8.28604 12.2557,-11.73938 0,0 -42.498,-25.55928 -42.498,-25.55928 z" />
    <circle
       id="path1888"
       style="fill:#ffffff;stroke:#000000;stroke-width:0.264583"
       cx="1118.3892"
       cy="68.718231"
       r="2.7027364" />
  </g>
</svg>
