<?xml version="1.0" encoding="UTF-8" standalone="no"?>
<!-- Created with Inkscape (http://www.inkscape.org/) -->

<svg
   width="2400"
   height="1200"
   viewBox="0 0 634.99998 317.5"
   version="1.1"
   id="svg729"
   inkscape:version="1.2.2 (b0a84865, 2022-12-01)"
   sodipodi:docname="cleveland0.svg"
   xmlns:inkscape="http://www.inkscape.org/namespaces/inkscape"
   xmlns:sodipodi="http://sodipodi.sourceforge.net/DTD/sodipodi-0.dtd"
   xmlns="http://www.w3.org/2000/svg"
   xmlns:svg="http://www.w3.org/2000/svg">
  <sodipodi:namedview
     id="namedview731"
     pagecolor="#858585"
     bordercolor="#000000"
     borderopacity="0.25"
     inkscape:showpageshadow="false"
     inkscape:pageopacity="0"
     inkscape:pagecheckerboard="true"
     inkscape:deskcolor="#d1d1d1"
     inkscape:document-units="mm"
     showgrid="false"
     showborder="false"
     borderlayer="false"
     inkscape:zoom="0.19666667"
     inkscape:cx="597.45763"
     inkscape:cy="602.54237"
     inkscape:window-width="2560"
     inkscape:window-height="1387"
     inkscape:window-x="0"
     inkscape:window-y="505"
     inkscape:window-maximized="0"
     inkscape:current-layer="layer1" />
  <defs
     id="defs726" />
  <g
     inkscape:label="Layer 1"
     inkscape:groupmode="layer"
     id="layer1">
    <path
       style="fill:#ffffff;stroke-width:0.499999;stroke-linecap:round;stroke-linejoin:round;stroke-dashoffset:0.380976;stroke-opacity:0.508417;paint-order:markers fill stroke"
       id="path533"
       d="m 18.518583,-3.8747856 c 0.06518,1.2167262 0.0842,2.436807 0.195556,3.65017865 0.875986,9.54469815 2.152458,19.03739195 2.917413,28.59731895 1.048363,13.101783 1.266589,18.827917 1.967466,31.958002 0.208408,4.814099 0.405488,9.628701 0.625224,14.442295 0.556205,12.184321 0.336126,9.817311 1.342638,20.421679 0.129365,1.362956 -0.139375,2.839323 0.429203,4.084756 0.276961,0.606666 0.372369,-1.28076 0.558553,-1.921139 0,0 20.169301,14.716585 20.169301,14.716585 v 0 c 0.476742,-0.63448 1.343051,-1.1146 1.430224,-1.90342 0.154379,-1.39695 -0.562221,-2.75576 -0.761585,-4.147 -0.404325,-2.82154 -0.798801,-5.64715 -1.048787,-8.486524 C 45.83359,91.743087 45.124518,76.203777 44.86703,71.026252 44.622032,66.34254 43.457955,43.853475 43.161399,39.119227 42.570717,29.689507 41.486632,20.32225 40.802626,10.904992 40.7183,9.744009 40.71843,8.5784319 40.676332,7.4151513 c 0,0 -22.157749,-11.2899369 -22.157749,-11.2899369 z" />
    <path
       style="fill:#ffffff;stroke-width:0.499999;stroke-linecap:round;stroke-linejoin:round;stroke-dashoffset:0.380976;stroke-opacity:0.508417;paint-order:markers fill stroke"
       id="path535"
       d="m 13.557588,11.713306 c 8.261006,-2.1897846 16.736965,-2.438313 25.237371,-2.4987605 4.944372,-0.03516 9.894999,-0.082614 14.832367,0.1828064 14.728698,0.7917771 21.804598,2.1203211 36.471862,4.1904281 4.284102,0.748919 23.607112,3.952336 28.935092,5.469797 1.99795,0.569038 7.46906,3.627844 5.6649,2.59798 -7.30274,-4.168597 -14.26307,-9.180392 -22.17666,-12.0233302 -2.26548,-0.8138692 -4.703862,1.0263382 -7.059902,1.5201632 -3.597839,0.754106 -7.201038,1.482396 -10.801556,2.223594 -10.102869,1.861563 -20.24462,3.616077 -30.267709,5.885796 -3.499781,0.792522 -7.1893,1.276658 -10.066012,3.656614 -0.733787,0.607078 -1.101796,1.553706 -1.652693,2.330558 0.241332,1.231876 0.105603,2.603219 0.723995,3.695626 0.856631,1.513268 2.258957,2.65558 3.538114,3.833526 3.419883,3.149291 10.051608,8.071316 13.510194,10.961518 6.543791,5.468382 8.008601,7.053514 14.05255,12.829612 2.519238,3.404814 11.199942,10.092909 8.350213,15.485903 -3.369525,6.376686 -19.001044,10.65775 -24.757695,12.698349 -11.379623,3.446605 -22.816764,6.708386 -34.316217,9.732343 -3.825546,1.005986 -8.05644,2.384253 -12.130304,2.426809 -0.864091,0.009 -1.7023075,-0.298485 -2.5534612,-0.447728 6.6879782,3.63937 13.3759562,7.27873 20.0639352,10.9181 0,0 -23.1945045,-8.968042 -23.1945045,-8.968042 v 0 c 7.6981355,4.255672 15.3962705,8.511332 23.0944075,12.767002 5.159888,-0.1494 9.710634,-1.59178 14.697146,-2.98821 11.456982,-3.20844 22.904619,-6.45654 34.270878,-9.97571 7.946017,-2.841355 22.167241,-6.31049 26.638601,-14.754418 3.79175,-7.160517 -3.90769,-12.643998 -7.680872,-17.631175 -5.073071,-4.925586 -8.524012,-8.435451 -13.960499,-13.043754 -2.310685,-1.958684 -4.756541,-3.752157 -7.122273,-5.643986 -3.90057,-3.119204 -7.657796,-6.539156 -11.825018,-9.301316 0.316008,-0.470995 0.494652,-1.072171 0.948021,-1.412983 2.621706,-1.970826 6.382006,-2.569345 9.363299,-3.270748 9.959605,-2.343171 20.048945,-4.126095 30.108192,-5.969933 3.69445,-0.73196 7.42275,-1.310008 11.08334,-2.19588 2.74398,-0.664049 9.46684,0.02615 8.10792,-2.448453 C 115.023,6.772581 102.13481,4.7567087 87.344648,2.128962 81.971662,1.1743517 76.577507,0.34298644 71.193937,-0.55000135 56.553054,-2.5468873 49.042748,-3.8815308 34.319075,-4.6685078 29.316058,-4.9359179 24.299925,-4.901771 19.289895,-4.8659155 c -8.845084,0.063302 -17.7034977,0.3153928 -26.2945881,2.627916 0,0 20.5622811,13.9513055 20.5622811,13.9513055 z" />
    <path
       style="fill:#ffffff;stroke-width:0.499999;stroke-linecap:round;stroke-linejoin:round;stroke-dashoffset:0.380976;stroke-opacity:0.508417;paint-order:markers fill stroke"
       id="path537"
       d="m 145.52771,13.20731 c -5.11611,9.472968 -10.46974,18.816568 -15.18709,28.502289 -4.06656,8.349501 -5.8502,12.696367 -9.51404,21.129236 -3.31401,9.566933 -9.34194,19.280031 -9.56885,29.671816 24.72239,11.930149 21.65793,16.143889 25.57096,1.191099 0,0 -21.662,-11.761968 -21.662,-11.761968 v 0 c -3.92545,14.287535 -5.06826,7.435813 19.30566,19.725678 -1.11528,0.76123 -1.53158,1.49375 -1.25632,-1.03582 0.14867,-1.366275 0.5199,-2.700566 0.8558,-4.033227 1.90299,-7.549957 4.96758,-14.694527 7.82166,-21.919054 7.2506,-16.924626 15.30988,-33.441132 25.13516,-49.043639 0,0 -21.50094,-12.42641 -21.50094,-12.42641 z" />
    <path
       style="fill:#ffffff;stroke-width:0.499999;stroke-linecap:round;stroke-linejoin:round;stroke-dashoffset:0.380976;stroke-opacity:0.508417;paint-order:markers fill stroke"
       id="path539"
       d="m 144.44433,18.179313 c 5.96478,8.627421 12.54555,16.817656 18.36455,25.547538 4.73392,7.102004 5.0741,8.047569 9.01812,15.193541 3.92216,8.224843 5.96981,17.13915 7.52807,26.066454 0,0 22.24179,10.844718 22.24179,10.844718 v 0 c -1.65761,-9.183119 -3.74996,-18.366214 -7.51548,-26.942778 -3.87324,-7.125348 -4.40322,-8.426407 -9.02803,-15.483882 -5.65855,-8.634973 -12.14608,-16.688196 -17.81676,-25.314856 0,0 -22.79226,-9.910735 -22.79226,-9.910735 z" />
    <path
       style="fill:#ffffff;stroke-width:0.499999;stroke-linecap:round;stroke-linejoin:round;stroke-dashoffset:0.380976;stroke-opacity:0.508417;paint-order:markers fill stroke"
       id="path541"
       d="m 130.88408,68.255681 c 13.57866,-2.909102 27.47227,-4.090797 41.26532,-5.523354 0,0 -19.63604,-13.952937 -19.63604,-13.952937 v 0 c -14.06319,1.511691 -28.22499,2.700988 -42.11186,5.44871 0,0 20.48258,14.027581 20.48258,14.027581 z" />
    <path
       style="fill:#ffffff;stroke-width:0.499999;stroke-linecap:round;stroke-linejoin:round;stroke-dashoffset:0.380976;stroke-opacity:0.508417;paint-order:markers fill stroke"
       id="path543"
       d="m 300.35595,12.619836 c -23.22338,-1.595891 -46.48482,-1.564867 -69.73189,-0.62055 -8.70741,1.660422 -19.44351,0.502786 -27.01746,6.196065 -1.24509,0.935922 -2.72725,2.085426 -2.94544,3.627692 -0.71405,5.047196 3.84909,8.074958 6.69722,11.005525 9.90993,7.420594 20.82649,13.321816 31.06991,20.242493 4.63748,3.13318 5.83916,4.175561 10.03913,7.454752 1.89943,1.802161 8.08144,6.429914 6.6338,9.958062 -0.64823,1.579858 -3.38975,2.899235 -4.53209,3.607694 -4.28025,2.441575 -9.09207,3.545678 -13.64474,5.309904 -1.75408,1.065067 -3.42532,2.272025 -4.93865,3.659569 0,0 21.22056,13.153686 21.22056,13.153686 v 0 c 1.31883,-1.168503 2.75132,-2.238081 4.38543,-2.923791 4.67898,-1.772442 9.51583,-3.203869 13.79983,-5.879571 2.34836,-1.688296 4.45794,-2.71915 5.73381,-5.499584 0.41455,-0.903449 0.44905,-1.963756 0.39227,-2.956158 -0.23637,-4.131223 -3.5008,-6.639989 -6.23625,-9.287978 -3.94959,-3.168973 -5.80977,-4.768064 -10.13721,-7.74246 C 251.00425,54.955643 240.15775,49.0602 230.00749,42.10283 c -1.76666,-1.448038 -3.62894,-2.786708 -5.29997,-4.344117 -1.05676,-0.9849 -2.71428,-1.820925 -2.85723,-3.258399 -0.11885,-1.195213 1.27588,-2.113976 2.25361,-2.811616 7.33577,-5.234274 17.65347,-4.070498 25.95085,-5.692783 4.68777,-0.191775 9.37269,-0.475404 14.06332,-0.575324 18.76104,-0.39965 37.53375,0.370379 56.22292,1.997891 0,0 -19.98504,-14.798646 -19.98504,-14.798646 z" />
    <path
       style="fill:#ffffff;stroke-width:0.499999;stroke-linecap:round;stroke-linejoin:round;stroke-dashoffset:0.380976;stroke-opacity:0.508417;paint-order:markers fill stroke"
       id="path545"
       d="m 332.03059,15.087426 c -0.72138,17.516236 -9.11841,33.270117 -16.32767,48.856981 -1.79044,5.509548 -6.43647,11.550972 -4.00743,17.666133 0.58489,1.472494 1.47084,2.993792 2.818,3.827791 25.006,15.480959 18.24463,13.454885 36.37668,15.780309 19.32541,1.05677 38.74747,2.33144 58.11224,1.63884 1.15321,-0.0929 2.30645,-0.18574 3.45969,-0.27861 0,0 -20.13707,-14.38552 -20.13707,-14.38552 v 0 c -1.09984,0.0879 -2.19966,0.175794 -3.29951,0.263691 -19.18105,0.747702 -38.45491,-0.125359 -57.55902,-1.822428 -14.63683,-2.768016 -13.35447,-3.780158 5.81695,8.291372 1.20263,0.757253 -2.52561,-1.471801 -3.36407,-2.619301 -2.54657,-3.485235 -0.97931,-5.735331 0.31879,-9.490853 0.80539,-2.329995 1.772,-4.601093 2.65798,-6.90164 7.20947,-15.946551 15.65211,-31.858082 17.19612,-49.585776 0,0 -22.06168,-11.240989 -22.06168,-11.240989 z" />
    <path
       style="fill:#ffffff;stroke-width:0.499999;stroke-linecap:round;stroke-linejoin:round;stroke-dashoffset:0.380976;stroke-opacity:0.508417;paint-order:markers fill stroke"
       id="path547"
       d="m 355.77946,57.015422 c 18.57214,-4.263792 37.0708,-8.780399 55.36195,-14.129295 0,0 -20.27275,-13.843487 -20.27275,-13.843487 v 0 c -18.17476,5.609968 -36.62174,10.246389 -55.2855,13.934742 0,0 20.1963,14.03804 20.1963,14.03804 z" />
    <path
       style="fill:#ffffff;stroke-width:0.499999;stroke-linecap:round;stroke-linejoin:round;stroke-dashoffset:0.380976;stroke-opacity:0.508417;paint-order:markers fill stroke"
       id="path549"
       d="m 361.87335,23.68334 c 19.42166,0.805484 38.83826,1.720102 58.27199,2.16184 4.07564,0.0022 8.15128,0.0044 12.22692,0.0066 0,0 -19.49074,-14.163054 -19.49074,-14.163054 v 0 c -4.04537,-0.0038 -8.09075,-0.0076 -12.13612,-0.01135 -19.63454,-0.517829 -39.26258,-1.400536 -58.85841,-2.7507655 0,0 19.98636,14.7566935 19.98636,14.7566935 z" />
    <path
       style="fill:#ffffff;stroke-width:0.499999;stroke-linecap:round;stroke-linejoin:round;stroke-dashoffset:0.380976;stroke-opacity:0.508417;paint-order:markers fill stroke"
       id="path551"
       d="m 434.34828,46.158774 c 1.39575,17.263475 -0.41222,34.595289 -2.08971,51.776648 0,0 21.67308,11.288078 21.67308,11.288078 v 0 c 1.41108,-17.280094 3.10777,-34.610715 2.65631,-51.964971 0,0 -22.23968,-11.099755 -22.23968,-11.099755 z" />
    <path
       style="fill:#ffffff;stroke-width:0.499999;stroke-linecap:round;stroke-linejoin:round;stroke-dashoffset:0.380976;stroke-opacity:0.508417;paint-order:markers fill stroke"
       id="path553"
       d="m 455.27166,39.355305 c 10.76293,-0.604896 21.6341,0.416115 32.24898,2.206344 3.73766,0.63037 7.50284,1.186132 11.15983,2.183159 3.45003,0.940604 6.73402,2.408888 10.10105,3.613333 2.85774,1.390134 11.49533,5.419629 8.57321,4.170402 -4.88849,-2.089896 -9.16122,-6.588247 -14.47667,-6.694202 -2.44832,-0.0488 2.85157,4.105593 3.47077,6.474815 1.32231,5.05964 -0.38182,11.543445 -2.31311,16.071876 -1.3901,3.259431 -3.4181,6.208196 -5.12713,9.312296 -12.10749,17.694854 -28.08906,32.258132 -43.95266,46.513372 -2.86904,2.43654 -5.51019,5.0823 -8.75035,7.01072 0,0 20.91716,13.38612 20.91716,13.38612 v 0 c 3.07462,-2.28165 5.80681,-4.93691 8.61875,-7.53442 15.74917,-14.71783 31.81556,-29.49906 44.13335,-47.31153 1.82856,-3.234259 3.97396,-6.30885 5.48568,-9.702777 2.17856,-4.890973 4.19463,-12.098228 3.22226,-17.628951 -2.87967,-16.379436 -25.28401,-22.175298 -38.9019,-28.925864 -3.42276,-1.105498 -6.77982,-2.439982 -10.26824,-3.316494 -3.69613,-0.9287 -7.47747,-1.486929 -11.2408,-2.087935 -10.90409,-1.741382 -22.0178,-2.717071 -33.06085,-2.196454 0,0 20.16067,14.45619 20.16067,14.45619 z" />
    <path
       style="fill:#ffffff;stroke-width:0.499999;stroke-linecap:round;stroke-linejoin:round;stroke-dashoffset:0.380976;stroke-opacity:0.508417;paint-order:markers fill stroke"
       id="path555"
       d="m 588.95297,17.977928 c 0.27908,18.919125 1.09675,37.837008 2.2271,56.724125 0.37291,8.197447 1.85224,16.220995 3.751,24.173552 0,0 22.16684,10.586605 22.16684,10.586605 v 0 c -2.24686,-7.8325 -3.94142,-15.758029 -4.35041,-23.938892 -1.20396,-18.720541 -2.02631,-37.504637 -1.65812,-56.266331 0,0 -22.13641,-11.279059 -22.13641,-11.279059 z" />
    <path
       style="fill:#ffffff;stroke-width:0.499999;stroke-linecap:round;stroke-linejoin:round;stroke-dashoffset:0.380976;stroke-opacity:0.508417;paint-order:markers fill stroke"
       id="path557"
       d="m 643.38284,97.884868 c -0.50811,-21.052957 -0.58362,-42.11811 0.1524,-63.165426 0.0992,-2.01635 0.14777,-4.035838 0.29771,-6.049055 0.68328,-9.173864 6.92525,-11.238001 -19.895,-11.198963 -2.86155,0.0042 2.38151,5.204127 3.58402,7.800766 1.40615,3.036422 2.828,6.065568 4.24198,9.098349 6.40231,12.914032 12.68474,26.137004 21.88337,37.363973 1.13681,1.387465 2.41411,2.65361 3.62114,3.980416 8.62518,7.940087 18.83558,12.267596 29.87733,17.257638 1.78859,0.808305 3.85107,-2.446441 4.10044,-3.295385 0.498,-1.695419 0.31829,-3.519726 0.47744,-5.279589 -0.17796,-3.166758 -0.89162,-14.477605 -0.66178,-17.012978 1.26236,-13.925658 7.74174,-26.291584 14.62606,-38.128646 5.09056,-7.632457 2.57609,-4.162678 7.44379,-10.480839 0,0 -21.14137,-12.5445736 -21.14137,-12.5445736 v 0 c -4.80587,6.5961536 -2.31788,2.9936408 -7.37725,10.8668926 -6.91271,12.239906 -13.58426,25.068983 -15.21415,39.292115 -0.34964,3.051334 0.23022,13.07634 0.40439,16.717473 0.0243,1.307108 0.26609,2.628339 0.0729,3.921321 -0.0629,0.420954 -0.40865,0.83903 -0.80666,0.9898 -0.52692,0.199589 -2.16011,-0.354419 -1.68979,-0.04417 6.1612,4.06405 12.67989,7.559442 18.96055,11.43632 0.95292,0.588209 -2.03928,-0.946737 -2.97175,-1.566867 -1.19748,-0.796388 -2.26158,-1.777074 -3.39238,-2.665609 -1.26741,-1.255969 -2.62186,-2.429774 -3.8022,-3.767904 -9.58672,-10.86852 -15.90386,-24.141451 -22.34038,-36.974018 -1.38229,-3.008934 -2.78606,-6.008092 -4.14687,-9.0268 -1.1321,-2.511372 -1.23391,-5.777407 -3.33163,-7.562932 -24.23248,-20.6257614 -24.10971,-22.0214255 -24.50566,-4.248098 -0.3728,21.000229 -0.0788,42.004541 -0.61372,63.002295 0,0 22.14705,11.284498 22.14705,11.284498 z" />
    <path
       style="fill:#ffffff;stroke-width:0.499999;stroke-linecap:round;stroke-linejoin:round;stroke-dashoffset:0.380976;stroke-opacity:0.508417;paint-order:markers fill stroke"
       id="path559"
       d="m 45.861176,150.09038 c -2.569036,-0.26566 -10.007759,-1.11237 -12.175212,-0.95864 -9.273566,0.65773 -22.098303,4.37862 -30.1251052,8.95313 -3.51245783,2.00177 -6.6058933,4.6626 -9.9088399,6.99391 -8.0224489,7.32163 -9.6635849,7.5276 -14.7553029,17.29101 -1.62464,3.11527 -3.379399,6.33185 -3.843843,9.81446 -0.906644,6.79843 1.963192,16.25222 5.868252,21.71375 2.68384,3.75355 6.523083,6.52825 9.7846243,9.79238 18.4537761,11.32309 37.4364657,25.46104 59.2309647,28.82935 6.469018,0.99978 13.87266,0.43686 20.2829,-0.88611 2.414775,-0.49837 4.729017,-1.39802 7.093527,-2.09703 6.667447,-3.58721 3.716755,-1.5769 8.976637,-5.84391 0,0 -20.883498,-13.11831 -20.883498,-13.11831 v 0 c -4.819343,3.79129 -2.102181,2.01226 -8.277289,5.13984 -2.255707,0.62243 -4.465756,1.4438 -6.767123,1.86729 -6.361343,1.17062 -13.093898,1.46374 -19.487909,0.2987 -4.210026,-0.76709 -8.490423,-5.34751 -12.351227,-3.50171 -2.80996,1.3434 10.187724,6.80639 7.187422,5.97045 -4.775275,-1.33047 -8.545768,-5.02627 -12.818653,-7.53941 -3.326344,-2.97541 -7.1879528,-5.44377 -9.9790323,-8.92623 -3.61245311,-4.50729 -7.2914559,-13.87646 -6.6849454,-19.91249 0.3345486,-3.32944 2.0095129,-6.41765 3.53708044,-9.39484 4.72561566,-9.2101 6.60280736,-9.63821 14.21631226,-16.52897 3.231084,-2.18522 6.265266,-4.69448 9.693253,-6.55567 8.795611,-4.77547 19.707218,-7.57646 29.711386,-7.8137 4.50351,-0.1068 7.710437,0.8445 11.946501,1.80088 0,0 -19.47088,-15.38813 -19.47088,-15.38813 z" />
    <path
       style="fill:#ffffff;stroke-width:0.499999;stroke-linecap:round;stroke-linejoin:round;stroke-dashoffset:0.380976;stroke-opacity:0.508417;paint-order:markers fill stroke"
       id="path561"
       d="m 73.865297,155.21891 c 1.324033,15.01579 -0.406387,30.19241 1.218213,45.18992 1.225945,11.3173 3.07118,16.45318 6.017152,27.18494 2.875047,8.2427 5.972582,16.55349 10.853367,23.86242 0.756433,1.13275 1.392981,2.46502 2.538245,3.20237 7.692166,4.9524 15.499516,9.8071 23.763626,13.73141 1.16621,0.5538 2.54737,-0.42167 3.82106,-0.63249 9.59737,-2.66596 19.06473,-5.79058 28.57751,-8.74497 0,0 -20.30258,-13.82406 -20.30258,-13.82406 v 0 c -9.35339,2.99014 -18.69866,6.26501 -28.35407,8.11509 -9.815088,-1.01725 -7.355728,-1.2201 15.25175,10.94899 1.19378,0.64258 -2.01454,-1.83456 -2.84718,-2.9045 -5.39821,-6.93675 -8.45892,-15.36048 -11.60722,-23.4458 -2.987083,-10.18472 -5.135158,-15.96403 -6.347172,-26.71631 -0.534525,-4.742 -0.47407,-9.53407 -0.550651,-14.30548 -0.163259,-10.17182 0.400928,-20.3576 0.07192,-30.53116 0,0 -22.103966,-11.13037 -22.103966,-11.13037 z" />
    <path
       style="fill:#ffffff;stroke-width:0.499999;stroke-linecap:round;stroke-linejoin:round;stroke-dashoffset:0.380976;stroke-opacity:0.508417;paint-order:markers fill stroke"
       id="path563"
       d="m 132.9311,171.47404 c -0.54882,9.88904 -2.27856,19.65881 -3.4624,29.48181 -0.51167,4.2456 -1.2452,8.47615 -1.43799,12.74812 -0.49609,10.99236 0.50305,17.78589 1.50961,28.65826 1.00707,6.23305 1.89707,15.66242 4.98168,21.64654 4.8514,9.4117 30.88357,16.9656 31.55379,17.16965 1.1891,0.36203 15.14626,-4.82664 15.32315,-4.88955 10.91107,-4.34986 22.55025,-6.83686 33.28322,-11.61817 0,0 -20.59062,-13.67771 -20.59062,-13.67771 v 0 c -10.60574,4.74288 -22.00525,7.51546 -32.85333,11.636 -2.73878,0.89069 -5.43316,1.9317 -8.21635,2.67208 -2.19504,0.58393 -7.94584,-0.59947 -6.69028,1.29336 3.5002,5.27674 10.10303,7.63611 15.15002,11.46013 1.65466,1.25373 -3.84055,-2.00927 -4.97302,-3.74917 -3.42305,-5.25902 -4.54199,-15.76224 -5.52245,-21.27595 -1.08834,-10.72185 -2.15312,-17.32504 -1.65502,-28.16416 0.19528,-4.24932 0.94051,-8.45583 1.47808,-12.67553 1.25488,-9.85025 3.00207,-19.62382 4.16225,-29.4856 0,0 -22.04034,-11.23011 -22.04034,-11.23011 z" />
    <path
       style="fill:#ffffff;stroke-width:0.499999;stroke-linecap:round;stroke-linejoin:round;stroke-dashoffset:0.380976;stroke-opacity:0.508417;paint-order:markers fill stroke"
       id="path565"
       d="m 152.3568,231.64135 c 17.30309,-7.29197 34.65624,-14.39716 52.41009,-20.52149 2.88582,-0.92085 5.77163,-1.8417 8.65745,-2.76255 0,0 -20.11882,-13.6712 -20.11882,-13.6712 v 0 c -2.86881,0.95226 -5.73761,1.90452 -8.60642,2.85679 -17.81139,6.25744 -35.22198,13.49689 -52.83534,20.27484 0,0 20.49304,13.82361 20.49304,13.82361 z" />
    <path
       style="fill:#ffffff;stroke-width:0.499999;stroke-linecap:round;stroke-linejoin:round;stroke-dashoffset:0.380976;stroke-opacity:0.508417;paint-order:markers fill stroke"
       id="path567"
       d="m 162.94415,183.09608 c 21.25137,-1.29655 42.549,-1.62983 63.8326,-1.99419 0,0 -19.53676,-14.13106 -19.53676,-14.13106 v 0 c -21.48031,0.54483 -42.96489,0.99307 -64.43815,1.76819 0,0 20.14231,14.35706 20.14231,14.35706 z" />
    <path
       style="fill:#ffffff;stroke-width:0.499999;stroke-linecap:round;stroke-linejoin:round;stroke-dashoffset:0.380976;stroke-opacity:0.508417;paint-order:markers fill stroke"
       id="path569"
       d="m 226.46995,169.27504 c 7.03656,16.29038 8.36386,34.36051 9.93588,51.83992 1.11641,7.72282 0.43805,15.86705 2.97766,23.36933 3.63994,10.75278 16.95245,14.36677 26.8397,17.64672 2.02306,0.67112 3.59757,-2.28693 5.39636,-3.43039 2.02711,-2.31113 4.33941,-4.40037 6.08132,-6.9334 4.2341,-6.15714 9.15196,-16.81026 12.08945,-23.50252 4.59327,-10.46445 8.59551,-21.21463 12.78622,-31.84502 1.87373,-4.75808 3.65895,-9.54376 5.70029,-14.23228 0,0 -21.58463,-12.09623 -21.58463,-12.09623 v 0 c -1.9183,4.78827 -3.56938,9.6683 -5.35802,14.50684 -3.96999,10.66584 -7.82521,21.43079 -12.41433,31.85075 -2.98677,6.78169 -7.5595,16.56656 -12.03059,22.69229 -1.66142,2.27627 -3.89743,4.07146 -5.84614,6.1072 -10.32204,4.31356 -8.35776,2.04156 13.02664,13.46365 1.30727,0.69825 -1.96975,-2.27448 -2.56478,-3.63183 -3.16777,-7.22617 -2.10163,-15.59281 -3.4146,-23.16127 -1.59386,-17.56081 -2.7808,-35.65462 -9.06991,-52.28115 0,0 -22.55052,-10.36261 -22.55052,-10.36261 z" />
    <path
       style="fill:#ffffff;stroke-width:0.499999;stroke-linecap:round;stroke-linejoin:round;stroke-dashoffset:0.380976;stroke-opacity:0.508417;paint-order:markers fill stroke"
       id="path571"
       d="m 315.95845,172.62064 c -0.12504,1.47069 -0.0405,2.9745 -0.37515,4.41207 -3.05496,13.12455 -11.56742,24.29845 -18.30882,35.64529 -2.13611,3.5954 -4.09549,7.29291 -6.14323,10.93937 -4.15716,10.39976 -8.0274,19.26179 -5.07325,30.61286 0.69014,2.6518 1.73582,5.26987 3.26263,7.54523 6.99336,10.4221 30.89222,18.76238 35.78466,21.28312 10.1823,2.06599 20.50552,2.14473 30.83237,2.00657 0,0 -19.6941,-14.28112 -19.6941,-14.28112 v 0 c -10.16794,0.0489 -20.32516,-0.0616 -30.25177,-2.67425 3.86482,2.8894 7.60285,5.95667 11.59449,8.66817 2.14728,1.45865 -4.40555,-2.89449 -6.05081,-4.90233 -1.65357,-2.01798 -2.81393,-4.45365 -3.64268,-6.92746 -3.62342,-10.8156 0.24752,-19.26052 4.09779,-29.31909 2.03221,-3.60851 3.97219,-7.27053 6.09661,-10.82552 7.0123,-11.73431 15.46431,-22.96885 19.32111,-36.30168 0.4489,-1.5518 0.52655,-3.18765 0.78984,-4.78148 0,0 -22.23969,-11.09975 -22.23969,-11.09975 z" />
    <path
       style="fill:#ffffff;stroke-width:0.499999;stroke-linecap:round;stroke-linejoin:round;stroke-dashoffset:0.380976;stroke-opacity:0.508417;paint-order:markers fill stroke"
       id="path573"
       d="m 319.41664,226.79598 c 10.33539,-3.32937 20.40432,-7.26703 30.34905,-11.61332 0,0 -20.27155,-13.49471 -20.27155,-13.49471 v 0 c -9.99067,4.3149 -20.11399,8.23825 -30.60843,11.17799 0,0 20.53093,13.93004 20.53093,13.93004 z" />
    <path
       style="fill:#ffffff;stroke-width:0.499999;stroke-linecap:round;stroke-linejoin:round;stroke-dashoffset:0.380976;stroke-opacity:0.508417;paint-order:markers fill stroke"
       id="path575"
       d="m 336.1219,184.64075 c 13.61943,-0.48365 27.24637,-0.23865 40.85865,-1.09521 6.14093,-0.50881 12.24,-1.38153 18.33433,-2.2688 0,0 -20.14358,-14.18539 -20.14358,-14.18539 v 0 c -5.98058,0.9093 -11.96781,1.80132 -18.0073,2.23233 -13.76275,0.7395 -27.52672,0.43596 -41.29217,0.8832 0,0 20.25007,14.43387 20.25007,14.43387 z" />
    <path
       style="fill:#ffffff;stroke-width:0.499999;stroke-linecap:round;stroke-linejoin:round;stroke-dashoffset:0.380976;stroke-opacity:0.508417;paint-order:markers fill stroke"
       id="path577"
       d="m 393.65684,171.37461 c -0.94766,2.80069 -1.76003,5.65087 -2.843,8.40207 -2.82818,7.18465 -7.71131,17.03164 -10.75531,23.88599 -3.39902,7.65374 -8.44312,19.58628 -11.23503,27.55919 -1.47063,4.19973 -2.64094,8.49868 -3.96142,12.74802 -0.97401,6.34602 -2.88573,14.45235 -1.59584,21.06822 0.81026,4.15594 3.87631,9.67126 7.83037,11.82888 26.46527,14.44144 18.11243,15.03606 33.56042,11.41582 7.7443,-3.986 3.98663,-1.65912 11.23156,-7.04718 0,0 -20.68325,-13.13476 -20.68325,-13.13476 v 0 c -6.93055,4.8469 -3.35306,2.84014 -10.67205,6.12674 -11.9566,1.6613 -7.13396,-0.36869 9.29484,11.82355 1.71411,1.27209 -3.7955,-2.12617 -5.20716,-3.7273 -6.95221,-7.88532 -3.7982,-17.56058 -2.69697,-26.82321 1.26627,-4.21472 2.37183,-8.48111 3.79878,-12.64417 2.81829,-8.2221 7.59505,-19.54341 11.1615,-27.40358 4.92982,-10.86499 10.68327,-21.38576 14.70922,-32.64932 0,0 -21.93666,-11.42896 -21.93666,-11.42896 z" />
    <path
       style="fill:#ffffff;stroke-width:0.499999;stroke-linecap:round;stroke-linejoin:round;stroke-dashoffset:0.380976;stroke-opacity:0.508417;paint-order:markers fill stroke"
       id="path579"
       d="m 443.18208,184.65955 c -0.42582,1.29442 -0.67813,2.65949 -1.27752,3.88325 -6.6604,13.5986 -18.39851,24.00004 -25.86119,37.09396 -2.12513,3.72872 -3.56558,7.80801 -5.34837,11.71202 -2.80614,9.78581 -3.88625,10.51819 -3.59624,20.36411 0.0758,2.57311 0.31798,5.1783 1.01949,7.65509 0.47501,1.67709 1.63748,3.07761 2.45621,4.61642 0,0 22.55774,9.88092 22.55774,9.88092 v 0 c -1.02309,-1.24897 -2.46952,-2.24793 -3.06925,-3.7469 -0.91903,-2.29703 -1.16792,-4.83102 -1.34985,-7.2984 -0.69681,-9.44962 0.40151,-10.15174 2.93394,-19.64864 1.69712,-3.78617 3.04046,-7.75169 5.09135,-11.3585 2.17927,-3.83258 4.94297,-7.30428 7.54454,-10.86372 6.37807,-8.72641 14.09928,-16.8696 19.23156,-26.46198 0.66191,-1.2371 0.97679,-2.6306 1.46515,-3.9459 0,0 -21.79756,-11.88173 -21.79756,-11.88173 z" />
    <path
       style="fill:#ffffff;stroke-width:0.499999;stroke-linecap:round;stroke-linejoin:round;stroke-dashoffset:0.380976;stroke-opacity:0.508417;paint-order:markers fill stroke"
       id="path581"
       d="m 434.51766,192.3113 c 0.92562,8.68368 0.33422,17.42802 0.60172,26.13815 0.0799,2.60126 0.007,5.22444 0.39957,7.79721 0.4432,2.90807 1.39682,5.71507 2.09521,8.5726 5.31027,14.8948 15.32969,27.2366 25.28118,39.26293 0.65278,0.77012 1.30556,1.54027 1.95831,2.31039 0,0 22.81984,9.63777 22.81984,9.63777 v 0 c -0.69028,-0.7729 -1.38055,-1.54578 -2.07085,-2.31865 -10.11539,-11.73036 -20.27981,-23.80725 -26.01015,-38.39078 -0.7506,-2.70266 -1.77692,-5.34352 -2.25174,-8.10798 -0.43524,-2.53384 -0.38023,-5.1293 -0.46336,-7.69889 -0.2825,-8.73336 0.38221,-17.47755 -0.13695,-26.20557 0,0 -22.22278,-10.99718 -22.22278,-10.99718 z" />
    <path
       style="fill:#ffffff;stroke-width:0.499999;stroke-linecap:round;stroke-linejoin:round;stroke-dashoffset:0.380976;stroke-opacity:0.508417;paint-order:markers fill stroke"
       id="path583"
       d="m 431.82058,249.81366 c 7.05681,-1.86668 14.287,-2.97082 21.47943,-4.16406 0,0 -20.05854,-14.07059 -20.05854,-14.07059 v 0 c -7.37407,1.24796 -14.82225,2.29163 -22.03016,4.33263 0,0 20.60927,13.90202 20.60927,13.90202 z" />
    <path
       style="fill:#ffffff;stroke-width:0.499999;stroke-linecap:round;stroke-linejoin:round;stroke-dashoffset:0.380976;stroke-opacity:0.508417;paint-order:markers fill stroke"
       id="path585"
       d="m 522.37565,285.65967 c 0.70237,-26.55686 -1.94085,-53.05106 -4.02995,-79.49492 -0.27529,-3.41012 -0.54744,-6.8205 -0.82584,-10.23037 -0.1833,-2.24504 -0.80076,-9.77868 -1.07415,-12.68199 -0.0715,-0.75908 0.41785,-1.90294 -0.24832,-2.27378 -24.10184,-13.41703 -22.56932,-18.00659 -22.23029,-4.80259 0.52528,3.39126 0.90789,6.8077 1.57583,10.17377 3.06981,15.47058 7.96523,34.10585 16.54517,47.49611 1.75699,2.74205 4.05341,5.09837 6.0801,7.64756 11.85388,8.35188 17.80471,13.63872 37.1403,13.85294 4.13724,0.0458 6.33108,-5.39122 8.97771,-8.5715 2.94769,-3.54201 5.30196,-7.54601 7.7067,-11.4769 4.76663,-7.79172 7.42945,-13.70542 11.3652,-21.78688 3.02975,-6.55244 6.29158,-12.99124 9.61147,-19.39967 0,0 -21.38275,-12.17806 -21.38275,-12.17806 v 0 c -3.15989,6.51554 -6.28669,13.04752 -9.24094,19.65979 -3.81024,8.07536 -6.27169,13.82612 -11.04149,21.55704 -2.32368,3.76621 -4.62161,7.59813 -7.52732,10.9359 -2.47658,2.8448 -9.19805,3.76559 -8.49762,7.47177 1.14374,6.05196 9.49328,8.23773 12.48405,13.62194 1.35588,2.44096 -4.83275,-2.79843 -7.24914,-4.19764 -2.12725,-2.41407 -4.54927,-4.59738 -6.38172,-7.24219 -2.1281,-3.07154 -3.81251,-6.43876 -5.43065,-9.80697 -7.01765,-14.60756 -10.68234,-30.65946 -12.76686,-46.64992 -0.47911,-12.75387 1.12789,-6.15398 -22.0453,-17.20871 -0.68823,-0.32832 0.38987,1.47731 0.50557,2.23101 0.26154,1.70366 0.4331,3.42005 0.62492,5.13297 0.63542,5.67464 1.27828,12.42668 1.82819,18.00021 2.35675,26.21497 5.14943,52.56532 3.55529,78.91035 0,0 21.97184,11.31073 21.97184,11.31073 z" />
    <path
       style="fill:#ffffff;stroke-width:0.499999;stroke-linecap:round;stroke-linejoin:round;stroke-dashoffset:0.380976;stroke-opacity:0.508417;paint-order:markers fill stroke"
       id="path587"
       d="m 591.41396,200.46542 c -1.39636,13.2214 -3.06067,26.40309 -2.96449,39.72647 0.0694,9.61493 0.44219,11.12196 1.41234,20.34683 0,0 21.76719,10.78093 21.76719,10.78093 v 0 c -0.38695,-3.13701 -0.89707,-6.26129 -1.16083,-9.41106 -1.40097,-16.72938 0.25395,-33.44443 2.89787,-49.96646 0,0 -21.95208,-11.47671 -21.95208,-11.47671 z" />
    <path
       style="fill:#ffffff;stroke-width:0.499999;stroke-linecap:round;stroke-linejoin:round;stroke-dashoffset:0.380976;stroke-opacity:0.508417;paint-order:markers fill stroke"
       id="path589"
       d="m 596.21253,224.63538 c 22.25979,-5.24323 45.0347,-10.91267 68.09758,-10.21275 4.7938,0.14549 9.54532,0.94531 14.31801,1.41797 -8.76247,-8.20889 27.69716,10.59709 21.09663,7.18757 -4.91011,-2.53631 -9.37033,-6.75083 -14.86509,-7.34216 -1.96982,-0.21199 1.3107,3.89202 1.03124,5.8534 -1.00637,7.06333 -6.34486,10.92122 -10.83558,15.8699 -22.11512,19.37642 -47.01178,35.40661 -73.01,49.0403 -6.95883,3.2775 -14.00696,7.09758 -21.70634,8.30281 0,0 20.40898,14.18915 20.40898,14.18915 v 0 c 7.58883,-1.99964 14.62024,-5.65126 21.54896,-9.24996 25.93258,-14.21773 50.86403,-30.52422 73.34954,-49.78709 5.54416,-5.99415 10.49181,-9.28854 12.17568,-17.45706 0.5167,-2.50648 1.61488,-5.95657 -0.28401,-7.6723 -4.25542,-3.84499 -25.02519,-17.37329 -35.97431,-20.63366 -3.97039,-1.18228 -8.1113,-1.68953 -12.16694,-2.5343 -4.81246,-0.37578 -9.61078,-1.05857 -14.43739,-1.12735 -23.33389,-0.33253 -46.30616,5.33548 -68.93761,10.24676 0,0 20.19065,13.90877 20.19065,13.90877 z" />
    <path
       style="fill:#ffffff;stroke-width:0.499999;stroke-linecap:round;stroke-linejoin:round;stroke-dashoffset:0.380976;stroke-opacity:0.508417;paint-order:markers fill stroke"
       id="path591"
       d="m 91.624591,287.78353 c -8.449056,8.26627 -15.773225,19.15983 -14.739337,31.58024 0.317405,3.81307 1.789456,7.44035 2.684185,11.16053 2.088282,3.69911 3.515775,7.85894 6.264846,11.09728 3.195804,3.76457 7.065338,7.03697 11.294213,9.58683 11.092072,6.68814 22.374752,13.2837 34.441752,17.99035 6.86129,2.67618 21.99481,1.28765 28.93102,-0.81137 3.92413,-1.18751 7.37838,-3.57706 11.06757,-5.36559 2.08998,-3.28528 4.9531,-6.19154 6.26993,-9.85584 4.3716,-12.16464 -0.97943,-25.18711 -11.56243,-32.12237 -26.89788,-17.62673 -27.74806,-16.9009 -50.63085,-24.71023 -17.914803,-4.34602 -9.33171,-2.70939 -25.700731,-5.15795 0,0 19.310701,14.48461 19.310701,14.48461 v 0 c 15.988,2.51979 7.5883,0.84238 25.14574,5.29246 5.1214,1.84907 9.94527,5.01521 15.36419,5.54723 2.42549,0.23815 -7.40806,-6.32108 -5.68552,-4.59697 3.08672,3.08954 7.2065,5.18559 9.79089,8.70611 4.11096,5.60004 5.23359,13.8362 3.07545,20.38194 -1.07664,3.26551 -3.65925,5.82245 -5.48887,8.73366 -10.31399,4.73567 -11.73081,6.65268 -23.91979,6.57336 -4.93361,-0.0321 -10.20359,-3.99032 -14.67736,-1.91019 -2.60991,1.21351 8.93013,7.20572 6.45782,5.73194 -12.38306,-7.38172 -10.96968,-7.89298 -17.93874,-19.17671 -0.98553,-3.4662 -2.529483,-6.82041 -2.956581,-10.39858 -1.409181,-11.80592 5.870161,-22.10295 14.238261,-29.50705 0,0 -21.036359,-13.25369 -21.036359,-13.25369 z" />
    <path
       style="fill:#ffffff;stroke-width:0.499999;stroke-linecap:round;stroke-linejoin:round;stroke-dashoffset:0.380976;stroke-opacity:0.508417;paint-order:markers fill stroke"
       id="path593"
       d="m 193.3036,290.65437 c -0.4621,12.89351 -1.93028,25.72411 -2.22136,38.62824 -0.1717,7.61158 0.0477,11.84735 0.27725,19.24325 0,0 21.74253,10.9688 21.74253,10.9688 v 0 c -0.3563,-7.24408 -0.68128,-11.72914 -0.56509,-19.16509 0.1997,-12.78049 1.74058,-25.46482 2.82067,-38.18509 0,0 -22.054,-11.49011 -22.054,-11.49011 z" />
    <path
       style="fill:#ffffff;stroke-width:0.499999;stroke-linecap:round;stroke-linejoin:round;stroke-dashoffset:0.380976;stroke-opacity:0.508417;paint-order:markers fill stroke"
       id="path595"
       d="m 224.36078,294.95411 c 0.77537,11.1007 3.38116,21.97896 5.37278,32.9007 2.11996,11.62547 1.89537,10.60243 3.62887,21.59817 1.19844,9.28614 0.77279,5.01444 1.39067,12.80327 0,0 22.01516,10.97672 22.01516,10.97672 v 0 c -0.76271,-8.01886 -0.25724,-3.64104 -1.62672,-13.12029 -1.851,-11.11716 -3.83118,-22.2081 -5.79031,-33.30657 -1.21894,-6.90531 -1.86541,-9.88412 -2.55786,-16.41518 -0.14628,-1.37964 -0.19035,-2.7682 -0.28551,-4.15231 0,0 -22.14708,-11.28451 -22.14708,-11.28451 z" />
    <path
       style="fill:#ffffff;stroke-width:0.499999;stroke-linecap:round;stroke-linejoin:round;stroke-dashoffset:0.380976;stroke-opacity:0.508417;paint-order:markers fill stroke"
       id="path597"
       d="m 199.55118,343.1732 c 18.53742,-2.29814 37.19106,-3.53168 55.81912,-4.84473 0,0 -19.76252,-14.13475 -19.76252,-14.13475 v 0 c -18.7813,1.4782 -37.58416,2.74121 -56.32696,4.65883 0,0 20.27036,14.32065 20.27036,14.32065 z" />
    <path
       style="fill:#ffffff;stroke-width:0.499999;stroke-linecap:round;stroke-linejoin:round;stroke-dashoffset:0.380976;stroke-opacity:0.508417;paint-order:markers fill stroke"
       id="path599"
       d="m 255.40869,300.2726 c 0.6517,15.86725 3.37326,31.56265 7.77097,46.81805 1.25831,4.36499 2.76143,8.65569 4.14213,12.9835 4.22543,10.42694 4.93292,13.11394 10.2017,22.68527 1.4991,2.7233 3.25335,5.2982 4.88,7.94729 0,0 22.24503,9.79244 22.24503,9.79244 v 0 c -1.70873,-2.60569 -3.55772,-5.12463 -5.12625,-7.81709 -5.43673,-9.33246 -6.20551,-12.15884 -10.49594,-22.39047 -1.40335,-4.28545 -2.94481,-8.5281 -4.21002,-12.85637 -4.36867,-14.94517 -7.16886,-30.47433 -7.14891,-46.07425 0,0 -22.25871,-11.08837 -22.25871,-11.08837 z" />
    <path
       style="fill:#ffffff;stroke-width:0.499999;stroke-linecap:round;stroke-linejoin:round;stroke-dashoffset:0.380976;stroke-opacity:0.508417;paint-order:markers fill stroke"
       id="path601"
       d="m 319.25889,319.38819 c -3.88903,9.03643 -9.81945,18.55923 -8.93897,28.85634 0.72895,8.52511 3.92438,12.59398 7.87146,19.89148 14.95904,15.44523 10.7488,12.62149 40.29591,27.25436 4.62015,2.28806 9.87374,2.97214 14.81063,4.4582 0,0 -18.85217,-14.60855 -18.85217,-14.60855 v 0 c -4.87476,-1.64928 -9.50677,-5.49055 -14.62426,-4.94781 -0.77703,0.0824 25.67125,16.17951 0.46874,-2.2968 -3.70388,-6.22543 -7.50105,-11.04561 -8.40693,-18.49741 -1.15453,-9.49698 4.76478,-19.39841 8.83346,-27.53614 0,0 -21.45787,-12.57367 -21.45787,-12.57367 z" />
    <path
       style="fill:#ffffff;stroke-width:0.499999;stroke-linecap:round;stroke-linejoin:round;stroke-dashoffset:0.380976;stroke-opacity:0.508417;paint-order:markers fill stroke"
       id="path603"
       d="m 364.92492,312.93321 c -8.88998,-1.7871 -17.82421,-3.03014 -26.8332,-3.99719 0,0 19.48543,14.49842 19.48543,14.49842 v 0 c 9.04576,1.09593 18.05501,2.34781 26.93543,4.4514 0,0 -19.58766,-14.95263 -19.58766,-14.95263 z" />
    <path
       style="fill:#ffffff;stroke-width:0.499999;stroke-linecap:round;stroke-linejoin:round;stroke-dashoffset:0.380976;stroke-opacity:0.508417;paint-order:markers fill stroke"
       id="path605"
       d="m 340.68213,338.82951 c 4.26487,-1.74238 10.75735,-4.57287 15.03084,-5.37138 17.45382,-3.26131 35.44475,-0.55938 52.22029,4.73794 6.07327,1.91784 11.83804,4.70226 17.75708,7.05337 -1.85174,-0.93638 -6.90366,-4.38634 -5.55522,-2.80918 4.01887,4.70045 15.9217,10.8962 17.99866,18.14554 1.03952,3.62829 -0.0212,7.67522 -1.20714,11.25832 -3.13476,9.47028 -9.49629,15.475 -15.73702,22.84616 -3.76584,2.91917 -7.01177,6.67538 -11.29755,8.75757 -9.25846,4.49816 -23.54511,5.54197 -33.4342,5.7322 -10.3268,0.19865 -23.04693,-0.95192 -33.3357,-2.50309 -4.10451,-0.61881 -8.14943,-1.58316 -12.22415,-2.37474 0,0 19.22021,14.50358 19.22021,14.50358 v 0 c 4.04333,0.69573 8.06272,1.54885 12.13,2.0872 10.29621,1.36284 23.18108,2.39032 33.47215,2.03258 10.825,-0.37632 24.46549,-1.66849 34.41472,-6.73656 4.38087,-2.23157 7.69832,-6.11748 11.54748,-9.17625 6.61741,-7.85185 13.02917,-13.98386 16.56069,-23.94442 1.45955,-4.11655 2.99768,-8.67413 2.06,-12.9399 -0.84664,-3.85151 -4.29864,-6.66446 -7.00069,-9.53669 -12.92458,-13.73865 -29.76335,-20.43589 -46.16096,-29.89498 -5.97212,-2.25264 -11.79949,-4.93451 -17.91631,-6.75794 -17.34608,-5.17088 -35.67827,-7.53562 -53.59532,-4.13964 -5.08262,0.96335 -11.0906,3.7274 -15.92451,5.76276 0,0 20.97665,13.26755 20.97665,13.26755 z" />
  </g>
</svg>
