<?xml version="1.0" encoding="UTF-8" standalone="no"?>
<!-- Created with Inkscape (http://www.inkscape.org/) -->

<svg
   width="2400"
   height="1200"
   viewBox="0 0 634.99998 317.5"
   version="1.1"
   id="svg729"
   inkscape:version="1.2.2 (b0a84865, 2022-12-01)"
   sodipodi:docname="developer0.svg"
   xmlns:inkscape="http://www.inkscape.org/namespaces/inkscape"
   xmlns:sodipodi="http://sodipodi.sourceforge.net/DTD/sodipodi-0.dtd"
   xmlns="http://www.w3.org/2000/svg"
   xmlns:svg="http://www.w3.org/2000/svg">
  <sodipodi:namedview
     id="namedview731"
     pagecolor="#858585"
     bordercolor="#000000"
     borderopacity="0.25"
     inkscape:showpageshadow="false"
     inkscape:pageopacity="0"
     inkscape:pagecheckerboard="true"
     inkscape:deskcolor="#d1d1d1"
     inkscape:document-units="mm"
     showgrid="false"
     showborder="false"
     borderlayer="false"
     inkscape:zoom="0.19666667"
     inkscape:cx="221.18644"
     inkscape:cy="602.54237"
     inkscape:window-width="2560"
     inkscape:window-height="1387"
     inkscape:window-x="0"
     inkscape:window-y="505"
     inkscape:window-maximized="1"
     inkscape:current-layer="layer1" />
  <defs
     id="defs726" />
  <g
     inkscape:label="Layer 1"
     inkscape:groupmode="layer"
     id="layer1">
    <path
       style="fill:#ffffff;stroke-width:0.499999;stroke-linecap:round;stroke-linejoin:round;stroke-dashoffset:0.380976;stroke-opacity:0.508417;paint-order:markers fill stroke"
       id="path304"
       d="M 50.457348,3.6424287 C 48.735863,17.71695 48.487681,31.940537 47.772576,46.086812 c -0.36141,7.149444 -0.46487,14.319208 -1.150321,21.444889 -1.573578,16.358309 -3.774763,25.778185 -6.86067,41.685249 -3.687997,16.41595 -7.612567,32.79442 -12.580307,48.87565 0,0 21.660201,11.81633 21.660201,11.81633 v 0 c 4.436219,-16.40876 8.071385,-33.01915 11.645792,-49.63312 2.804263,-14.8493 5.378138,-26.856299 6.926839,-42.000911 0.726366,-7.103081 0.851667,-14.25483 1.285285,-21.381773 0.844397,-13.87851 1.334802,-27.871967 3.648887,-41.610691 0,0 -21.890934,-11.6400063 -21.890934,-11.6400063 z" />
    <path
       style="fill:#ffffff;stroke-width:0.499999;stroke-linecap:round;stroke-linejoin:round;stroke-dashoffset:0.380976;stroke-opacity:0.508417;paint-order:markers fill stroke"
       id="path306"
       d="m 92.506889,8.0696201 c -0.162222,15.4375539 0.779949,30.7776869 2.722448,46.0854599 0,0 21.999713,10.83152 21.999713,10.83152 v 0 c -2.26012,-15.120236 -3.45974,-30.323411 -2.55374,-45.621604 0,0 -22.168421,-11.2953759 -22.168421,-11.2953759 z" />
    <path
       style="fill:#ffffff;stroke-width:0.499999;stroke-linecap:round;stroke-linejoin:round;stroke-dashoffset:0.380976;stroke-opacity:0.508417;paint-order:markers fill stroke"
       id="path308"
       d="m 156.08614,172.27556 c -0.062,-2.47404 -0.20256,-4.94735 -0.18615,-7.42212 0.0386,-5.8184 0.28813,-11.63387 0.35102,-17.45206 0.12783,-11.82519 0.13819,-37.14497 -0.0207,-48.822743 -0.37263,-27.389359 -3.42655,-15.463533 3.66325,-33.673097 2.62056,-2.184188 5.38928,-4.201975 7.86169,-6.55256 2.96334,-2.817339 5.6618,-5.902002 8.41654,-8.923623 8.25388,-9.053515 15.73518,-18.763966 24.18085,-27.637802 -5.2252,-2.118844 -13.8909,-11.705087 -15.67559,-6.356532 -2.32395,6.964659 7.85257,12.412626 11.53539,18.764322 4.91329,8.473853 9.54172,17.109922 14.24653,25.701271 0.58796,1.073663 24.54862,45.390764 26.10572,48.270534 0,0 21.06173,9.44 21.06173,9.44 v 0 C 244.14735,93.046266 230.74709,68.437386 217.5569,43.71572 214.13697,37.305935 212.7679,29.321437 207.38953,24.437334 199.50658,17.27881 188.72382,14.183899 179.39097,9.0571814 166.01138,23.913011 154.39885,40.476762 138.80428,53.234716 c -6.45228,19.786542 -3.65561,6.652342 -3.20981,34.839571 0.22968,14.521633 0.1246,33.897093 -0.42528,48.478383 -0.21636,5.73729 -0.73987,11.45914 -1.04266,17.19252 -0.13251,2.5091 -0.17544,5.02213 -0.26315,7.53319 0,0 22.22276,10.99718 22.22276,10.99718 z" />
    <path
       style="fill:#ffffff;stroke-width:0.499999;stroke-linecap:round;stroke-linejoin:round;stroke-dashoffset:0.380976;stroke-opacity:0.508417;paint-order:markers fill stroke"
       id="path310"
       d="m 362.92536,10.923943 c -5.61322,34.896913 -14.23565,69.232725 -22.52166,103.568807 -3.99041,16.58529 -2.32431,9.31015 -5.10471,21.8008 0,0 21.5297,11.48738 21.5297,11.48738 v 0 c 2.04023,-12.71672 0.7047,-5.33139 4.3556,-22.09004 7.85334,-34.519263 16.08153,-68.950751 23.89881,-103.47701 0,0 -22.15774,-11.289937 -22.15774,-11.289937 z" />
    <path
       style="fill:#ffffff;stroke-width:0.499999;stroke-linecap:round;stroke-linejoin:round;stroke-dashoffset:0.380976;stroke-opacity:0.508417;paint-order:markers fill stroke"
       id="path312"
       d="m 367.00941,19.123443 c 0.18291,3.571655 -0.20415,7.218772 0.54872,10.714963 2.8176,13.084442 11.00389,35.339967 15.27003,47.629987 0,0 20.88608,9.77995 20.88608,9.77995 v 0 c -4.26755,-12.374528 -12.0033,-33.178708 -14.54817,-46.482957 -0.65138,-3.405389 -0.0633,-6.93397 -0.095,-10.400954 0,0 -22.06167,-11.240989 -22.06167,-11.240989 z" />
    <path
       style="fill:#ffffff;stroke-width:0.499999;stroke-linecap:round;stroke-linejoin:round;stroke-dashoffset:0.380976;stroke-opacity:0.508417;paint-order:markers fill stroke"
       id="path314"
       d="m 363.20539,19.952404 c 1.19256,7.044676 2.41096,14.084979 3.5978,21.130622 0.95613,5.675923 1.70866,11.389045 2.84372,17.031909 3.42048,17.004469 8.33795,33.625332 13.32312,50.216495 3.21411,11.35243 7.67794,22.27842 11.5284,33.41098 1.28833,3.66501 2.96873,7.1813 4.72771,10.64055 5.23486,8.43562 14.76311,10.22773 24.2235,15.56274 0.34287,0.19336 0.90419,0.46313 1.16845,0.17135 0.69898,-0.77179 0.84244,-1.90454 1.26365,-2.85682 0,0 -22.25143,-11.25835 -22.25143,-11.25835 v 0 c 0.43709,-0.39231 1.16152,-0.60901 1.31128,-1.17692 0.0855,-0.32411 -1.15494,-0.68104 -0.8662,-0.5108 6.66121,3.92747 13.32238,7.85498 19.98356,11.78248 -1.59113,-0.83441 -0.90014,-0.2906 -2.07862,-1.62417 -2.16638,-3.08024 -3.43445,-6.78384 -4.97195,-10.19939 -3.997,-11.2952 -9.12746,-22.18845 -12.44007,-33.73778 -5.20232,-16.48358 -10.29515,-32.997319 -13.61699,-49.991221 -1.09466,-5.600033 -1.79576,-11.270072 -2.63533,-16.913986 -0.76454,-5.139503 -2.05259,-14.684336 -2.86922,-20.691348 0,0 -22.24138,-10.986341 -22.24138,-10.986341 z" />
    <path
       style="fill:#ffffff;stroke-width:0.499999;stroke-linecap:round;stroke-linejoin:round;stroke-dashoffset:0.380976;stroke-opacity:0.508417;paint-order:markers fill stroke"
       id="path316"
       d="m 333.36854,109.86447 c 31.48214,-3.42367 63.07802,-5.66758 94.66022,-7.93406 3.06123,-0.28255 6.12243,-0.56509 9.18366,-0.84764 0,0 -19.81804,-14.100087 -19.81804,-14.100087 v 0 c -2.97939,0.319307 -5.95878,0.638614 -8.9382,0.957923 -31.67264,2.649832 -63.36829,5.011947 -95.03209,7.767873 0,0 19.94445,14.155991 19.94445,14.155991 z" />
    <path
       style="fill:#ffffff;stroke-width:0.499999;stroke-linecap:round;stroke-linejoin:round;stroke-dashoffset:0.380976;stroke-opacity:0.508417;paint-order:markers fill stroke"
       id="path318"
       d="m 10.769436,196.97703 c 0.260585,4.21272 0.607823,8.42097 0.781755,12.63816 1.18146,28.64585 -0.139781,7.33391 0.455544,38.9166 0.420857,22.32701 1.828957,44.65329 2.887557,66.9565 0.236983,4.93099 0.473965,9.86195 0.710948,14.79293 0,0 21.349974,10.72359 21.349974,10.72359 v 0 c -0.335542,-4.97721 -0.671082,-9.95444 -1.006624,-14.93165 -1.350353,-22.27728 -2.865384,-44.56343 -3.072807,-66.89039 -0.06521,-7.01973 0.237321,-14.03845 0.265629,-21.05843 0.01654,-4.10143 -0.166172,-24.27313 -0.216297,-30.12215 0,0 -22.155679,-11.02516 -22.155679,-11.02516 z" />
    <path
       style="fill:#ffffff;stroke-width:0.499999;stroke-linecap:round;stroke-linejoin:round;stroke-dashoffset:0.380976;stroke-opacity:0.508417;paint-order:markers fill stroke"
       id="path324"
       d="m -28.820678,219.78765 c 16.546283,0.59221 33.1193708,0.35211 49.665232,0.8662 8.429967,0.26192 17.061982,-0.74727 25.274995,1.17089 30.762514,7.18463 26.688407,7.45941 16.332229,11.7626 2.344505,5.02194 6.074664,9.60714 7.033509,15.06582 4.008474,22.82018 -25.325721,36.85879 -41.198808,45.46137 0,0 19.879231,12.96776 19.879231,12.96776 v 0 c 4.980503,-2.78217 10.160375,-5.23422 14.941513,-8.34657 13.544041,-8.81668 30.66281,-21.36831 27.956784,-40.2067 -0.827682,-5.76204 -4.582681,-10.70251 -6.874023,-16.05376 -16.388595,-11.87422 -35.233477,-29.68377 -56.700967,-34.32213 -8.312128,-1.79595 -16.983733,-0.91943 -25.4815156,-1.24291 -16.8986154,-0.64326 -33.8208344,-0.73901 -50.7143924,-1.57075 0,0 19.886213,14.44818 19.886213,14.44818 z" />
    <circle
       id="path326"
       style="fill:#ffffff;stroke:#000000;stroke-width:0.264583"
       cx="111.66314"
       cy="232.74364"
       r="2.1165254" />
    <path
       style="fill:#ffffff;stroke-width:0.499999;stroke-linecap:round;stroke-linejoin:round;stroke-dashoffset:0.380976;stroke-opacity:0.508417;paint-order:markers fill stroke"
       id="path328"
       d="m 80.589897,194.83861 c 7.469724,8.32444 12.97138,18.18799 18.22559,27.98961 6.105743,11.39012 9.475113,18.48676 14.272663,30.5085 1.92964,4.83528 3.58815,9.77441 5.38223,14.66161 4.90713,14.80505 9.94333,30.56176 7.87618,46.35156 -0.51535,1.39137 -1.16381,5.96816 -2.36893,6.99178 -0.34722,0.13303 -0.52875,0.0358 -0.76917,-0.21453 0,0 20.37782,14.43622 20.37782,14.43622 v 0 c 0.70015,-0.3751 1.32835,-0.81073 1.82791,-1.44465 1.65254,-2.38657 2.06385,-5.5213 2.82853,-8.25285 2.10807,-16.28968 -3.00415,-32.54947 -8.1713,-47.80061 -1.80627,-4.93694 -3.49173,-9.91978 -5.41881,-14.81083 -5.21489,-13.23567 -7.56166,-18.09987 -14.0735,-30.68717 -5.06953,-9.79934 -10.3376,-19.52736 -17.03137,-28.33584 0,0 -22.957843,-9.3928 -22.957843,-9.3928 z" />
    <path
       style="fill:#ffffff;stroke-width:0.499999;stroke-linecap:round;stroke-linejoin:round;stroke-dashoffset:0.380976;stroke-opacity:0.508417;paint-order:markers fill stroke"
       id="path330"
       d="m 114.9687,220.07065 c 24.27829,0.54408 48.51272,-1.56092 72.61334,-4.29941 3.3536,-0.40789 6.70719,-0.81578 10.06079,-1.22366 2.00262,-0.32003 3.99489,-0.71347 6.00787,-0.96008 0.9352,-0.11457 3.62051,0.3813 2.82395,-0.12191 -6.7331,-4.25348 -14.00925,-7.57944 -21.01388,-11.36916 0,0 23.01571,9.5965 23.01571,9.5965 v 0 c -7.39884,-4.20281 -14.55309,-8.86888 -22.19653,-12.60844 -0.82939,-0.40577 -1.82989,0.25101 -2.7397,0.4084 -11.73234,2.02952 0.97421,0.14455 -15.54464,2.38931 -24.20819,2.84296 -48.61335,4.86286 -73.00131,3.49611 0,0 19.9744,14.69234 19.9744,14.69234 z" />
    <path
       style="fill:#ffffff;stroke-width:0.499999;stroke-linecap:round;stroke-linejoin:round;stroke-dashoffset:0.380976;stroke-opacity:0.508417;paint-order:markers fill stroke"
       id="path332"
       d="m 148.64832,272.68559 c 24.97344,2.16926 50.04706,2.85604 75.10311,2.45276 10.10656,-0.32043 5.58732,-0.2237 13.55648,-0.34364 0,0 -19.96305,-14.41174 -19.96305,-14.41174 v 0 c -7.72359,0.35664 -3.32541,0.16127 -13.1952,0.57123 -25.15332,0.56166 -50.33528,-0.21119 -75.36205,-2.93253 0,0 19.86071,14.66392 19.86071,14.66392 z" />
    <path
       style="fill:#ffffff;stroke-width:0.499999;stroke-linecap:round;stroke-linejoin:round;stroke-dashoffset:0.380976;stroke-opacity:0.508417;paint-order:markers fill stroke"
       id="path334"
       d="m 165.4145,329.9415 c 14.46754,-1.14089 29.03626,-1.66293 43.42228,-3.69628 3.09665,-0.43768 6.16128,-1.07797 9.24192,-1.61698 6.16756,-1.25142 12.20303,-3.01527 18.20844,-4.87077 0,0 -20.3737,-13.87718 -20.3737,-13.87718 v 0 c -5.84137,1.85708 -11.7164,3.61418 -17.74061,4.79782 -3.03193,0.51358 -6.04954,1.12038 -9.0958,1.5407 -14.54096,2.00639 -29.25371,2.47872 -43.89203,3.28054 0,0 20.2295,14.44215 20.2295,14.44215 z" />
    <path
       style="fill:#ffffff;stroke-width:0.499999;stroke-linecap:round;stroke-linejoin:round;stroke-dashoffset:0.380976;stroke-opacity:0.508417;paint-order:markers fill stroke"
       id="path336"
       d="m 218.02542,210.90882 c 5.88947,21.14653 8.15792,43.01255 11.63885,64.61987 4.53597,21.52632 7.42659,39.25277 34.73749,43.76976 2.93803,0.48591 2.51342,-5.39957 3.77011,-8.09932 1.00815,-3.76251 2.27415,-7.46522 3.0244,-11.2875 1.82856,-9.31579 3.82022,-27.36204 4.74419,-36.49366 1.66362,-16.44144 2.91955,-32.9347 4.3614,-49.39724 0.74816,-5.87442 0.86352,-11.81311 1.54551,-17.69423 0.17372,-1.498 0.6083,-5.13094 1.53971,-6.84288 0.14187,-0.26077 0.48832,-0.33773 0.73247,-0.50659 0,0 -21.25361,-12.96463 -21.25361,-12.96463 v 0 c -0.40248,0.50473 -0.92524,0.93358 -1.20746,1.51419 -1.00142,2.06023 -1.32845,5.52929 -1.50742,7.54296 -0.52909,5.95302 -0.47783,11.9493 -1.1338,17.89356 -1.16816,16.50989 -2.25522,33.05001 -3.9499,49.51616 -1.08982,10.58909 -2.80638,25.31023 -5.08121,35.89169 -0.78777,3.66432 -2.07159,7.20418 -3.10739,10.80627 -5.01803,11.40296 -4.84781,6.29859 15.96021,17.21268 1.49622,0.78478 -2.29795,-2.51426 -3.13929,-3.97941 -4.60094,-8.01238 -6.36826,-17.43276 -8.39135,-26.29601 -3.62955,-21.46398 -5.7648,-43.19541 -10.95295,-64.37775 0,0 -22.32996,-10.82792 -22.32996,-10.82792 z" />
    <path
       style="fill:#ffffff;stroke-width:0.499999;stroke-linecap:round;stroke-linejoin:round;stroke-dashoffset:0.380976;stroke-opacity:0.508417;paint-order:markers fill stroke"
       id="path338"
       d="m 283.67844,204.54422 c 1.7159,29.07765 1.68773,58.20009 0.91699,87.30553 -0.58581,16.38912 -0.97964,32.79757 -2.09647,49.16258 2.30938,10.07424 0.75411,5.49896 23.8253,13.52647 1.59938,0.5565 3.13724,-1.27717 4.72178,-1.87459 2.27481,-0.85773 4.53493,-1.76417 6.85506,-2.49042 8.74245,-2.73664 16.69362,-4.52607 25.65509,-6.73531 18.45813,-4.25646 37.03524,-7.95936 55.58287,-11.79722 0,0 -20.08166,-13.95095 -20.08166,-13.95095 v 0 c -18.37963,4.09255 -36.81164,7.94412 -55.16264,12.16631 -8.81996,2.10608 -17.55918,4.04818 -26.2523,6.62226 -2.36387,0.69995 -4.65571,1.62433 -6.9986,2.39151 -1.56292,0.51179 -5.93452,0.33901 -4.71736,1.44497 11.69882,10.63006 27.99554,14.18984 18.59203,12.04992 0.46821,-16.53064 0.89183,-33.0626 1.38949,-49.59244 0.60949,-29.02212 0.47567,-58.05143 -0.32801,-87.06921 0,0 -21.90157,-11.15941 -21.90157,-11.15941 z" />
    <path
       style="fill:#ffffff;stroke-width:0.499999;stroke-linecap:round;stroke-linejoin:round;stroke-dashoffset:0.380976;stroke-opacity:0.508417;paint-order:markers fill stroke"
       id="path340"
       d="m 305.45807,285.65731 c 8.50603,-4.78091 17.17646,-9.10833 25.15761,-14.77687 5.82226,-4.1352 10.10994,-7.78624 15.59843,-12.27308 5.5272,-4.91648 11.39444,-9.41852 17.2805,-13.88909 0,0 -20.75876,-13.08626 -20.75876,-13.08626 v 0 c -5.80189,4.57192 -11.60166,9.15235 -17.11373,14.07592 -5.62197,4.62615 -9.35675,7.88635 -15.41277,12.07071 -8.07836,5.58169 -16.89425,9.74649 -25.55928,14.29396 0,0 20.808,13.58471 20.808,13.58471 z" />
    <path
       style="fill:#ffffff;stroke-width:0.499999;stroke-linecap:round;stroke-linejoin:round;stroke-dashoffset:0.380976;stroke-opacity:0.508417;paint-order:markers fill stroke"
       id="path342"
       d="m 306.9323,219.15137 c 16.20681,-2.79537 31.95981,-7.56469 47.63442,-12.4432 2.59098,-0.9504 5.18194,-1.90081 7.77293,-2.85122 0,0 -20.22539,-13.63074 -20.22539,-13.63074 v 0 c -2.53658,0.93852 -5.07317,1.87704 -7.60973,2.81556 -15.74753,4.95235 -31.64655,9.45567 -47.99431,11.96841 0,0 20.42208,14.14119 20.42208,14.14119 z" />
    <path
       style="fill:#ffffff;stroke-width:0.499999;stroke-linecap:round;stroke-linejoin:round;stroke-dashoffset:0.380976;stroke-opacity:0.508417;paint-order:markers fill stroke"
       id="path344"
       d="m 372.2507,201.70114 c -1.49706,20.45829 -2.14506,40.96367 -2.80072,61.46207 -0.0145,10.68562 -0.89934,21.38478 -0.59039,32.07398 0.12922,4.47069 0.29723,9.83035 2.49147,13.94798 1.20145,2.25454 3.14447,4.0272 4.71671,6.04081 13.20532,9.90402 13.94676,11.01336 36.32229,20.63062 3.31311,1.42402 7.09596,1.32781 10.68038,1.72331 7.48895,0.8263 13.39106,0.94369 20.82961,-0.27204 2.98077,-0.48718 5.85941,-1.46847 8.78912,-2.20268 5.85454,-1.76763 11.10141,-4.59928 16.1636,-7.93369 0,0 -20.76495,-13.31865 -20.76495,-13.31865 v 0 c -4.82832,3.14692 -9.82122,5.82326 -15.41997,7.41354 -2.83072,0.64622 -5.61646,1.5376 -8.49222,1.93868 -6.90163,0.96261 -13.53034,0.79151 -20.4202,-0.20534 -3.52129,-0.50948 -11.39846,-5.6129 -10.44797,-2.18427 1.31575,4.74628 8.21095,5.45 12.16673,8.38431 2.19676,1.62948 -4.58925,-2.97707 -6.88387,-4.46562 -1.6831,-1.71497 -3.72817,-3.13777 -5.04923,-5.14495 -2.53379,-3.84969 -2.79257,-8.95541 -3.009,-13.31751 -0.53071,-10.69568 0.34083,-21.42734 0.32027,-32.12158 0.58399,-20.382 1.21881,-40.7898 3.41829,-61.07488 0,0 -22.01995,-11.37409 -22.01995,-11.37409 z" />
    <path
       style="fill:#ffffff;stroke-width:0.499999;stroke-linecap:round;stroke-linejoin:round;stroke-dashoffset:0.380976;stroke-opacity:0.508417;paint-order:markers fill stroke"
       id="path346"
       d="m 437.21385,236.84045 c -8.20037,10.97666 -15.05937,23.54238 -15.20929,37.64983 -0.0369,3.47229 0.78934,6.89999 1.18399,10.34997 1.36149,3.04327 2.2402,6.35246 4.0845,9.12982 7.77859,11.71377 27.52765,19.36171 37.15885,23.49415 3.17334,1.3616 6.8565,1.64934 10.28507,1.23833 8.58539,-1.02925 11.97724,-5.33839 18.22297,-10.47247 1.34617,-4.09612 3.48646,-8.01219 4.03852,-12.28836 1.99334,-15.44018 -6.40162,-36.51613 -15.47966,-48.85879 -1.85261,-2.51887 -4.19288,-4.63978 -6.28931,-6.95966 -11.44055,-9.58964 -24.65522,-19.0493 -39.80722,-20.56251 -2.75603,-0.27524 -7.24733,-0.24165 -10.05528,0.44176 -1.26674,0.3083 -2.42564,0.95658 -3.63844,1.43487 0,0 20.48462,13.85145 20.48462,13.85145 v 0 c 1.08418,-0.32788 2.13619,-0.79202 3.25252,-0.98365 2.79178,-0.47921 6.80244,-0.36737 9.51495,0.0567 9.10781,1.42382 15.00812,6.04339 -8.41161,-8.11298 -2.19516,-1.3269 4.15253,3.01226 6.22882,4.51839 2.19795,2.19042 4.65604,4.14768 6.5939,6.57126 4.37279,5.46886 9.02803,14.30263 11.49543,20.67251 3.09628,7.99354 5.89857,17.57127 4.99766,26.33221 -0.39296,3.82156 -2.29656,7.33216 -3.44485,10.99825 -6.1069,4.74732 -8.82234,8.38454 -17.10518,8.82928 -3.34351,0.17955 -10.5225,-5.00391 -9.89764,-1.71439 0.85516,4.50193 6.84117,6.43064 11.10999,8.0967 5.88499,2.29682 -20.77098,-14.50555 -11.59462,-14.99135 -0.49314,-3.26551 -1.43582,-6.49428 -1.47942,-9.79654 -0.17722,-13.4207 6.51295,-25.67244 14.80095,-35.70882 0,0 -21.04022,-13.21594 -21.04022,-13.21594 z" />
    <path
       style="fill:#ffffff;stroke-width:0.499999;stroke-linecap:round;stroke-linejoin:round;stroke-dashoffset:0.380976;stroke-opacity:0.508417;paint-order:markers fill stroke"
       id="path348"
       d="m 492.86477,208.42564 c 7.18225,20.92187 7.83323,43.20265 8.0282,65.09264 -0.20569,13.30386 -0.61735,26.58891 0.30168,39.87081 0,0 21.94155,10.93813 21.94155,10.93813 v 0 c -1.42161,-13.28163 -1.10046,-26.60364 -0.87789,-39.94538 -0.0672,-8.48964 -0.0249,-19.70019 -0.6255,-28.15427 -0.89548,-12.60639 -2.96897,-25.18864 -6.2529,-37.389 0,0 -22.51514,-10.41293 -22.51514,-10.41293 z" />
    <path
       style="fill:#ffffff;stroke-width:0.499999;stroke-linecap:round;stroke-linejoin:round;stroke-dashoffset:0.380976;stroke-opacity:0.508417;paint-order:markers fill stroke"
       id="path350"
       d="m 493.52657,216.92889 c 2.64237,-0.15214 7.15222,-0.4774 9.6171,-0.29063 9.61766,0.72872 19.61539,3.30644 28.60194,6.70134 3.64468,1.37688 7.12073,3.16444 10.68107,4.74666 -3.78571,-2.04476 -7.06536,-5.82877 -11.35711,-6.13429 -3.01088,-0.21434 4.93839,3.55836 6.93782,5.81969 1.48665,1.68139 2.6515,3.70412 3.36458,5.8322 1.7186,5.12898 0.12105,7.02747 -3.36156,10.88228 -1.88219,2.08335 -4.1506,3.78211 -6.22591,5.67316 -9.87674,7.52637 -20.16143,14.49266 -30.57684,21.2456 0,0 20.76122,13.29523 20.76122,13.29523 v 0 c 10.31195,-7.04625 20.58149,-14.16579 30.52485,-21.72771 3.54499,-3.27497 9.49936,-7.87573 11.22294,-12.83053 1.41546,-4.06911 -0.79402,-10.13566 -3.18101,-13.21856 -7.06305,-9.12229 -35.88282,-23.13068 -37.03426,-23.80141 -3.62056,-1.51576 -7.16603,-3.22512 -10.8617,-4.54729 -12.58472,-4.50235 -25.98372,-7.20664 -39.3632,-6.07961 0,0 20.25007,14.43387 20.25007,14.43387 z" />
    <path
       style="fill:#ffffff;stroke-width:0.499999;stroke-linecap:round;stroke-linejoin:round;stroke-dashoffset:0.380976;stroke-opacity:0.508417;paint-order:markers fill stroke"
       id="path352"
       d="m 570.25275,202.69048 c 1.29905,17.93583 0.97311,36.08616 -1.78065,53.8855 -0.82378,5.32477 -2.05123,10.57923 -3.07684,15.86884 -9.16091,37.84613 1.76369,-6.7545 -7.52007,29.55311 -1.06576,4.16808 -2.32103,8.30199 -3.03667,12.54424 -0.93943,5.56884 -1.58149,12.05756 1.13051,17.38955 1.05937,2.08277 3.0629,3.52983 4.59436,5.29476 9.49338,5.06669 18.6164,10.89864 28.48012,15.20008 3.22519,1.40647 17.31867,2.02324 20.46393,2.18493 10.50362,0.53998 21.01832,0.76348 31.5323,0.97152 5.89611,0.16378 11.73052,0 17.52301,-1.07828 0,0 -20.26364,-14.19207 -20.26364,-14.19207 v 0 c -5.58583,0.91223 -11.21503,1.09347 -16.87777,0.96033 -10.46867,-0.18634 -20.94775,-0.34493 -31.39885,-1.03737 -3.49477,-0.23154 -7.00251,-0.39254 -10.46977,-0.88789 -3.26467,-0.46644 -11.17896,-4.93536 -9.69079,-1.9924 2.4393,4.82376 8.89558,6.14363 13.34336,9.21544 -1.71196,-1.39568 -3.8804,-2.36974 -5.13588,-4.18703 -3.28073,-4.74887 -2.83387,-11.17293 -2.06899,-16.43512 0.61754,-4.24836 1.84089,-8.38743 2.87354,-12.55438 1.19618,-4.82689 2.54137,-9.61564 3.81203,-14.42346 1.23032,-5.10371 2.46066,-10.20739 3.69097,-15.3111 1.08659,-5.33085 2.3876,-10.62249 3.2598,-15.99258 2.88549,-17.76553 3.33843,-35.90395 2.80522,-53.85608 0,0 -22.18923,-11.12054 -22.18923,-11.12054 z" />
    <path
       style="fill:#ffffff;stroke-width:0.499999;stroke-linecap:round;stroke-linejoin:round;stroke-dashoffset:0.380976;stroke-opacity:0.508417;paint-order:markers fill stroke"
       id="path354"
       d="m 587.94684,281.75069 c 15.64989,-2.31196 31.35963,-5.02915 46.41408,-10.0134 3.40577,-1.12757 6.72851,-2.49195 10.09274,-3.73792 10.6962,-4.67923 5.7367,-2.15945 14.95414,-7.40871 0,0 -20.49544,-13.32825 -20.49544,-13.32825 v 0 c -8.92225,5.072 -4.10467,2.61772 -14.53044,7.20844 -3.31526,1.21125 -6.58741,2.54771 -9.94577,3.63373 -15.05553,4.86866 -30.8516,7.67821 -46.58876,9.04301 0,0 20.09945,14.6031 20.09945,14.6031 z" />
    <path
       style="fill:#ffffff;stroke-width:0.499999;stroke-linecap:round;stroke-linejoin:round;stroke-dashoffset:0.380976;stroke-opacity:0.508417;paint-order:markers fill stroke"
       id="path356"
       d="m 595.38192,226.1375 c 2.50171,-0.40636 5.0034,-0.81272 7.50512,-1.21907 0,0 -19.96189,-14.07602 -19.96189,-14.07602 v 0 c -2.59069,0.31896 -5.18136,0.63793 -7.77206,0.95689 0,0 20.22883,14.3382 20.22883,14.3382 z" />
    <path
       style="fill:#ffffff;stroke-width:0.499999;stroke-linecap:round;stroke-linejoin:round;stroke-dashoffset:0.380976;stroke-opacity:0.508417;paint-order:markers fill stroke"
       id="path358"
       d="m 598.83161,225.17235 c 18.44074,-4.29419 36.6536,-9.50306 54.84701,-14.73173 6.22086,-1.86552 3.37249,-0.98934 8.55075,-2.61017 0,0 -20.45308,-13.90221 -20.45308,-13.90221 v 0 c -5.01417,1.68238 -2.25116,0.77362 -8.2963,2.70429 -18.12208,5.48147 -36.33891,10.72886 -54.90184,14.52266 0,0 20.25346,14.01716 20.25346,14.01716 z" />
    <path
       style="fill:#ffffff;stroke-width:0.499999;stroke-linecap:round;stroke-linejoin:round;stroke-dashoffset:0.380976;stroke-opacity:0.508417;paint-order:markers fill stroke"
       id="path360"
       d="m 650.92801,209.98135 c 3.14844,17.6305 4.2335,35.51282 5.29373,53.36544 0.72494,14.49214 1.23566,28.99834 1.33107,43.50912 -0.003,0.38645 -0.005,0.77291 -0.007,1.15933 0,0 22.2308,11.24326 22.2308,11.24326 v 0 c -0.0259,-0.39923 -0.0521,-0.79846 -0.0782,-1.19769 -0.72279,-14.63898 -1.18404,-29.2902 -1.99459,-43.92525 -1.00764,-17.72432 -1.86222,-35.51055 -4.4959,-53.08061 0,0 -22.27938,-11.0736 -22.27938,-11.0736 z" />
    <path
       style="fill:#ffffff;stroke-width:0.499999;stroke-linecap:round;stroke-linejoin:round;stroke-dashoffset:0.380976;stroke-opacity:0.508417;paint-order:markers fill stroke"
       id="path362"
       d="m 609.07614,247.86601 c 17.6624,-3.06789 35.26679,-6.47681 53.05298,-8.7876 6.68642,-0.86871 13.3953,-1.55496 20.09296,-2.33244 18.26734,-1.86179 36.56799,-3.37178 54.90695,-4.303 4.34043,-0.2204 14.42235,-0.91039 19.53331,-0.17504 1.29881,0.18688 2.47388,0.87603 3.71081,1.31404 -7.60823,-3.723 -14.63617,-9.00247 -22.82468,-11.16899 -2.26042,-0.59807 -4.02508,2.38141 -6.06422,3.52555 -14.21911,7.97816 -28.37934,15.94104 -42.27092,24.48614 -7.64617,4.54508 -14.66848,10.06525 -22.19145,14.79414 -4.93176,3.10004 -10.18154,5.64139 -15.35137,8.30683 -0.90291,0.55875 -1.96156,0.92181 -2.70875,1.67627 -0.86844,0.8769 -1.54019,3.49146 -0.0694,4.38062 8.45717,5.11268 17.30634,9.5653 26.19216,13.89023 2.25182,1.09601 4.76165,1.55379 7.1414,2.33397 3.83971,1.25881 7.67799,2.52201 11.51702,3.78301 4.5697,1.53382 9.14297,3.05705 13.70909,4.60148 14.83699,5.0184 30.02569,9.6866 44.33134,16.12659 3.74835,1.68738 15.05087,6.18937 10.981,5.61192 -4.58264,-0.65019 -8.39817,-3.89417 -12.59724,-5.84126 1.7072,2.38704 3.85908,4.51183 5.12157,7.16108 3.1042,6.51396 3.75063,14.57134 4.96739,21.49686 1.16181,6.61274 3.19953,17.62562 4.91511,24.2242 0.92409,3.55425 2.13122,7.02881 3.19683,10.54324 2.69872,7.9307 6.24827,15.60907 7.47641,23.94207 0,0 22.17703,10.93306 22.17703,10.93306 v 0 c -0.15372,-1.28212 -0.18724,-2.58445 -0.46117,-3.84635 -1.55712,-7.17278 -5.02295,-13.78419 -7.32213,-20.70725 -1.1154,-3.46585 -2.38609,-6.88554 -3.34624,-10.39759 -1.83279,-6.70415 -3.84757,-17.29582 -4.96935,-24.06764 -1.06471,-6.42742 -1.8389,-16.15154 -4.35054,-22.36375 -1.16454,-2.88038 -3.25705,-5.29174 -4.88559,-7.9376 -9.57754,-6.06111 -18.98155,-12.40555 -28.73263,-18.18331 -6.69126,-3.96473 -17.43739,-8.016 -24.48081,-10.6267 -14.79646,-5.48439 -29.84662,-10.26662 -44.7493,-15.44648 -3.93073,-1.33302 -7.86297,-2.6616 -11.79216,-3.99912 -2.41766,-0.82296 -9.17874,-4.15451 -7.24842,-2.4823 4.87669,4.22455 11.19915,6.4755 16.34739,10.36455 0.56745,0.42866 -1.3846,0.42445 -2.0954,0.40159 -1.04777,-0.0337 3.21416,-8.69543 2.37559,-2.06097 5.1467,-2.80416 10.37807,-5.48167 15.30554,-8.66826 7.39611,-4.78303 14.33507,-10.27543 21.86122,-14.86837 10.69388,-6.6277 21.46334,-13.0299 32.53423,-19.01539 3.30935,-1.78922 6.70139,-3.42438 9.98997,-5.25149 2.27857,-1.26595 7.94922,-1.73357 6.70502,-4.02409 -3.89578,-7.17197 -11.96112,-11.10806 -17.94168,-16.66209 -1.28032,-0.22763 -2.54292,-0.60497 -3.84096,-0.6829 -5.43176,-0.32611 -14.31174,0.36743 -19.17954,0.68346 -18.25501,1.18518 -36.47543,2.81076 -54.67945,4.61014 -16.95702,1.89751 -21.61723,2.25797 -37.96126,4.66991 -10.44117,1.54083 -20.82149,3.53067 -31.27012,5.02652 -1.67124,0.23925 -3.35357,0.39332 -5.03034,0.58999 0,0 20.27277,14.42252 20.27277,14.42252 z" />
  </g>
</svg>
