<?xml version="1.0" encoding="UTF-8" standalone="no"?>
<!-- Created with Inkscape (http://www.inkscape.org/) -->

<svg
   width="2400"
   height="1200"
   viewBox="0 0 634.99998 317.5"
   version="1.1"
   id="svg729"
   inkscape:version="1.2.2 (b0a84865, 2022-12-01)"
   sodipodi:docname="hello1.svg"
   xmlns:inkscape="http://www.inkscape.org/namespaces/inkscape"
   xmlns:sodipodi="http://sodipodi.sourceforge.net/DTD/sodipodi-0.dtd"
   xmlns="http://www.w3.org/2000/svg"
   xmlns:svg="http://www.w3.org/2000/svg">
  <sodipodi:namedview
     id="namedview731"
     pagecolor="#858585"
     bordercolor="#000000"
     borderopacity="0.25"
     inkscape:showpageshadow="false"
     inkscape:pageopacity="0"
     inkscape:pagecheckerboard="true"
     inkscape:deskcolor="#d1d1d1"
     inkscape:document-units="mm"
     showgrid="false"
     showborder="false"
     borderlayer="false"
     inkscape:zoom="0.30802114"
     inkscape:cx="1972.2673"
     inkscape:cy="819.74894"
     inkscape:window-width="2560"
     inkscape:window-height="1387"
     inkscape:window-x="0"
     inkscape:window-y="514"
     inkscape:window-maximized="0"
     inkscape:current-layer="layer1" />
  <defs
     id="defs726" />
  <g
     inkscape:label="Layer 1"
     inkscape:groupmode="layer"
     id="layer1">
    <path
       style="fill:#ffffff;stroke-width:0.499999;stroke-linecap:round;stroke-linejoin:round;stroke-dashoffset:0.380976;stroke-opacity:0.508417;paint-order:markers fill stroke"
       id="path1498"
       d="m 249.50296,43.473515 c 0.89051,1.878187 1.82357,3.73679 2.67153,5.634564 1.26262,2.82576 2.2625,5.77165 3.65916,8.533622 7.87373,15.570835 14.12068,24.925835 23.6869,40.490085 5.42732,8.830244 10.98206,17.582904 16.31048,26.473184 5.1354,8.5682 10.05234,17.26545 15.0785,25.89819 7.47834,14.87933 15.21304,28.94316 20.77868,44.6649 3.70107,10.45473 6.37304,22.48143 7.3683,33.59987 0.88209,9.85403 0.14272,13.75777 -0.7257,23.12035 -0.8741,6.18934 -2.18699,12.3177 -4.2232,18.23235 -0.59859,1.73871 -1.16678,3.69547 -2.60196,4.93382 -0.13666,-0.0175 -0.36444,0.0773 -0.40998,-0.0527 -0.0301,-0.0859 0.16413,-2.13402 0.36621,-2.02075 14.18315,7.94798 27.99356,16.54352 41.9943,24.80855 0.1583,0.0934 -0.51977,-0.11769 -0.4668,-0.29372 0.23566,-0.78284 0.79946,-1.42631 1.19919,-2.13947 1.59996,-1.56472 3.05094,-3.29792 4.79986,-4.69416 6.10463,-4.87354 10.64869,-7.035 17.95018,-10.22075 10.35682,-4.51881 20.51492,-7.38867 31.38093,-10.26027 8.7489,-1.89693 18.06123,-3.91163 26.89768,-1.43563 1.19054,0.58714 2.43263,1.00401 3.68554,1.42637 0,0 -39.48756,-30.51286 -39.48756,-30.51286 v 0 c -1.26476,-0.34192 -2.51528,-0.70808 -3.84574,-0.68035 -9.05076,-0.3864 -17.96312,1.7862 -26.60804,4.25013 -10.67062,3.2915 -21.21389,6.653 -31.44631,11.17873 -8.17856,3.6173 -12.59858,5.62795 -19.597,10.86326 -2.13423,1.59655 -3.99999,3.52356 -5.99998,5.28537 -1.18538,1.63666 -2.55183,3.1564 -3.55616,4.91 -0.27982,0.48856 -0.68522,1.36491 -0.21545,1.67524 25.01419,16.52423 32.52769,38.52214 46.02726,23.37064 1.54289,-2.34471 2.19443,-4.25876 2.91068,-7.02111 1.67683,-6.46708 2.76172,-13.07166 3.43083,-19.71704 0.51774,-9.31172 1.17282,-15.05765 0.1103,-24.66099 -1.20197,-10.86377 -4.6238,-25.30864 -8.34665,-35.31608 -5.21718,-14.02436 -15.45053,-32.88655 -22.08683,-45.82363 -5.06373,-8.67631 -10.08716,-17.37626 -15.19121,-26.02892 -5.14022,-8.71398 -10.46107,-17.32133 -15.54126,-26.07044 -8.23994,-14.19079 -13.84276,-23.711124 -20.15932,-38.114634 -1.61567,-3.6842 -3.38989,-9.47406 -4.6963,-13.560516 0,0 -45.10106,-20.725225 -45.10106,-20.725225 z" />
    <path
       style="fill:#ffffff;stroke-width:0.499999;stroke-linecap:round;stroke-linejoin:round;stroke-dashoffset:0.380976;stroke-opacity:0.508417;paint-order:markers fill stroke"
       id="path1500"
       d="m 319.3359,50.017173 c 8.01019,11.281398 16.82229,21.969488 25.1514,33.007488 13.08965,17.346789 33.27829,44.624709 45.10024,62.642879 6.9736,10.62863 13.28055,21.67997 19.92085,32.51996 17.00162,30.63357 31.14106,63.09206 38.1557,97.55391 2.41405,11.85992 2.31409,14.92181 3.13613,26.2587 0.25947,6.83059 -0.0402,13.67803 -1.48963,20.37091 -0.49745,2.29708 -1.13395,4.33075 -2.36776,6.3074 -0.24114,0.22942 -0.8092,0.92657 -1.2668,0.59515 -0.16695,-0.12091 -0.33324,-0.70326 -0.15568,-0.59854 14.23607,8.39597 28.36902,16.96554 42.55355,25.44832 0.30183,-0.27599 0.56012,-0.60892 0.90553,-0.82791 8.28575,-5.25328 18.69599,-9.78318 27.55334,-13.57903 13.06883,-5.60067 22.76877,-9.14992 36.19045,-14.28713 12.50543,-4.32755 24.74092,-8.95588 37.65804,-11.96308 11.78234,-2.74301 24.07745,-4.4568 35.63779,0.14346 1.9845,0.7897 3.70866,2.11976 5.56302,3.17966 -75.16664,-39.98286 -44.42021,-30.13827 -34.90423,-18.06845 0,0 45.11021,20.30058 45.11021,20.30058 v 0 c -0.31549,-0.84987 -0.52316,-1.74797 -0.94646,-2.54961 -8.70442,-16.48372 -44.32665,-19.35742 -47.27877,-29.86696 -1.93326,-0.66378 -3.80185,-1.55966 -5.7998,-1.99136 -11.79835,-2.54921 -23.66481,-0.0241 -35.07803,3.11611 -10.84988,2.98516 -27.0161,8.84983 -37.40933,12.47965 -28.99392,10.48385 -10.19088,3.56642 -37.23344,13.77976 -10.95163,4.13618 -14.97695,5.22632 -24.49433,9.89312 -2.31899,1.13713 -4.68246,2.23105 -6.81159,3.69308 -0.94343,0.64786 -1.5272,1.70492 -2.29082,2.55738 20.7287,13.40898 33.75224,40.63246 45.56067,23.20454 4.28294,-9.03904 3.46051,-20.65551 3.04776,-30.29365 -1.30593,-11.83143 -1.36665,-15.40761 -4.32819,-27.68481 -8.55416,-35.46173 -23.81932,-68.88546 -41.65594,-100.56103 -6.67761,-10.94125 -13.06674,-22.06386 -20.0328,-32.82376 -7.06424,-10.91157 -14.71358,-21.43305 -22.04344,-32.16799 -25.5697,-37.448129 -12.3793,-18.11609 -32.56563,-48.241219 -1.7376,-2.59309 -3.53346,-5.14717 -5.24862,-7.75516 -0.84542,-1.28552 -1.62121,-2.61552 -2.43181,-3.92327 0,0 -45.41158,-19.869098 -45.41158,-19.869098 z" />
    <path
       style="fill:#ffffff;stroke-width:0.499999;stroke-linecap:round;stroke-linejoin:round;stroke-dashoffset:0.380976;stroke-opacity:0.508417;paint-order:markers fill stroke"
       id="path1502"
       d="m 391.50208,53.435464 c 3.3301,5.638647 1.82542,3.296653 7.18376,10.804099 7.57258,10.609752 14.01958,19.111545 21.27247,30.210507 13.57942,20.78032 16.67976,26.892 29.09716,48.49047 15.95366,29.03776 31.58143,58.32766 44.73866,88.75869 1.34741,3.20957 2.6221,6.45519 3.60378,9.79732 0.1601,0.54511 0.29758,1.70049 0.6096,1.725 7.9561,-15.31407 -0.66019,0.70519 44.34922,21.66369 0.51586,0.24021 0.46056,-1.07101 0.86392,-1.47241 1.65123,-1.64317 3.33869,-3.28112 5.25049,-4.61219 8.25572,-5.74807 13.54461,-7.61833 22.9252,-11.94326 16.84649,-6.08071 34.33209,-10.39429 52.05677,-12.95073 6.4744,-0.93381 8.42639,-1.0086 14.56666,-1.50693 0,0 -39.58863,-28.0808 -39.58863,-28.0808 v 0 c -22.44571,3.33479 -44.4637,9.18433 -65.83973,16.77892 -9.22343,4.05469 -16.48743,6.79361 -24.9469,12.12167 -2.4365,1.53459 -4.76578,3.27961 -6.8371,5.2799 -1.25968,1.21651 -4.49559,3.27716 -3.05554,4.27362 42.17318,29.18246 36.87561,39.1731 44.68767,23.17419 0.37262,-1.95844 -0.40589,-3.91943 -1.07714,-5.74045 -1.34438,-3.6471 -1.90463,-4.64622 -3.6662,-8.5066 -15.45873,-30.83598 -32.40156,-60.88915 -49.03494,-91.09926 -2.41374,-4.27355 -24.33997,-43.17525 -27.2515,-48.01852 -3.42061,-5.6901 -7.19889,-11.15739 -10.78333,-16.74574 -2.64382,-4.12188 -5.24335,-8.272151 -7.90139,-12.384895 -1.41467,-2.188929 -2.93862,-4.307115 -4.31633,-6.519508 -0.63764,-1.023972 -1.14975,-2.120968 -1.72463,-3.18145 0,0 -45.182,-20.315333 -45.182,-20.315333 z" />
    <path
       style="fill:#ffffff;stroke-width:0.499999;stroke-linecap:round;stroke-linejoin:round;stroke-dashoffset:0.380976;stroke-opacity:0.508417;paint-order:markers fill stroke"
       id="path1510"
       d="m 431.9717,81.331388 c 19.329,-3.63465 38.41594,-8.338762 57.47295,-13.173737 15.55999,-4.746524 31.34437,-10.057952 45.04539,-19.045269 1.53398,-1.115647 3.09761,-2.185969 4.57356,-3.378284 0.25641,-0.20714 0.60614,-0.33977 0.76211,-0.630164 1.45526,-2.709452 1.19935,-2.48598 1.13289,-4.996693 86.2189,72.008339 -37.6305,-39.0299652 -46.46403,-23.875579 -2.30455,3.953568 -2.6039,6.818233 -3.63398,11.238838 -0.11019,5.004729 -1.01134,10.054746 -0.33059,15.014186 2.13582,15.560112 12.83708,55.93061 16.83906,69.181194 8.06709,26.71008 19.34546,57.5552 29.3828,83.62252 4.52075,11.74054 9.36479,23.35401 14.0472,35.03102 3.92666,9.29303 7.85329,18.58607 11.77994,27.8791 0,0 38.91939,17.81501 38.91939,17.81501 v 0 c -4.45709,-9.49764 -8.91416,-18.99526 -13.37122,-28.4929 -5.09191,-11.81334 -10.47152,-23.50678 -15.27567,-35.44003 -11.31133,-28.09665 -20.43202,-53.46692 -28.47652,-82.6926 -5.00682,-18.18983 -11.37618,-45.689208 -12.39081,-65.418012 -0.22934,-4.459793 1.09038,-8.864566 1.63555,-13.29685 0.52324,-1.728155 1.0336,-3.460258 1.56972,-5.184463 0.11935,-0.383836 0.0598,-0.919178 0.3964,-1.138867 0.21952,-0.143274 0.0503,0.535559 0.17317,0.767138 0.023,0.04355 1.98437,1.488462 0.84299,0.824805 -13.96654,-8.120669 -27.86034,-16.365776 -41.79052,-24.548661 1.55578,-1.065408 1.43603,-0.822788 2.75157,-2.603825 0.16867,-0.228344 -0.41564,0.386868 -0.62828,0.574939 -1.27617,1.128702 -2.58805,2.218066 -3.91745,3.283128 -12.50275,9.102759 -27.20462,14.59517 -41.87648,19.111719 -4.79237,1.219761 -9.55876,2.546659 -14.37714,3.659282 -14.89623,3.439732 -30.05082,5.851367 -45.29211,7.045325 0,0 40.50011,28.86773 40.50011,28.86773 z" />
    <path
       style="fill:#ffffff;stroke-width:6.13518;stroke-linecap:round;stroke-linejoin:round;stroke-dashoffset:0.380976;stroke-opacity:0.508417;paint-order:markers fill stroke"
       d=""
       id="path1597"
       transform="scale(0.26458333)" />
    <path
       style="fill:#ffffff;stroke-width:0.499999;stroke-linecap:round;stroke-linejoin:round;stroke-dashoffset:0.380976;stroke-opacity:0.508417;paint-order:markers fill stroke"
       id="path1603"
       d="m 92.048702,-14.542262 c -0.05212,4.292195 -0.252976,8.5851601 -0.156356,12.8765836 0.269447,11.9676354 2.472688,64.2587174 3.184872,72.1813584 1.629479,18.127051 4.23369,36.15388 6.536592,54.20774 6.68263,52.38923 7.85362,58.12951 15.70464,110.11041 7.55987,50.6569 15.25905,101.31627 20.99539,152.22102 1.44226,12.79867 2.44474,23.82573 3.64786,36.48626 1.06647,10.64392 1.62547,21.40553 3.83037,31.89906 0.23866,1.40965 0.15312,0.73306 0.27137,2.02785 0,0 46.24144,18.71451 46.24144,18.71451 v 0 c -0.89553,0.38031 -0.43625,0.35279 -1.37842,0.0722 -1.36177,-1.99355 -2.04623,-4.27857 -2.64771,-6.6123 -2.17086,-8.42286 -3.35221,-17.0782 -4.85148,-25.62982 -3.47096,-21.95547 -7.02191,-43.8994 -10.7855,-65.80693 -7.27533,-42.34907 -15.11724,-84.60041 -21.99026,-127.01885 -2.80398,-18.18866 -5.84378,-36.34252 -8.41195,-54.56597 -5.33411,-37.85022 -9.41587,-69.66792 -10.99974,-107.788388 -0.55243,-13.295865 -0.37574,-26.623004 0.0985,-39.921888 0.34306,-9.621033 1.28833,-19.217294 2.35149,-28.785555 0.43327,-3.899344 1.42208,-7.716742 2.13312,-11.5751123 0,0 -43.774208,-23.0922287 -43.774208,-23.0922287 z" />
    <path
       style="fill:#ffffff;stroke-width:0.499999;stroke-linecap:round;stroke-linejoin:round;stroke-dashoffset:0.380976;stroke-opacity:0.508417;paint-order:markers fill stroke"
       id="path1605"
       d="m 112.29582,275.42196 c 2.49434,-0.74986 4.97018,-1.56427 7.48303,-2.24954 19.34672,-5.27614 22.10487,-5.69751 43.18208,-10.52422 23.82506,-5.45599 47.68568,-10.74199 71.54598,-16.0408 19.97754,-4.4478 40.10521,-8.16527 60.24315,-11.79967 1.80785,-0.15372 3.25247,-0.54477 4.66294,-1.62695 0,0 -41.79689,-27.17948 -41.79689,-27.17948 v 0 c -0.73185,-0.18857 -2.93024,1.13741 -3.2517,0.79512 -18.8675,5.08042 -37.95205,9.3163 -56.86838,14.20705 -23.48898,5.8529 -46.98371,11.62168 -70.69953,16.50368 -26.70159,5.49663 -21.68346,4.19965 -46.558872,8.30699 -2.846594,0.47001 -5.682091,1.00494 -8.523134,1.50741 0,0 40.581326,28.10041 40.581326,28.10041 z" />
    <path
       style="fill:#ffffff;stroke-width:0.499999;stroke-linecap:round;stroke-linejoin:round;stroke-dashoffset:0.380976;stroke-opacity:0.508417;paint-order:markers fill stroke"
       id="path1615"
       d="m 3.6462054,-32.01679 c 2.0012427,6.036217 2.395256,12.513752 4.4046817,18.539324 3.0289849,9.0828774 6.9711979,17.8397665 10.1299669,26.878328 11.384717,32.576434 24.569399,72.378488 32.312602,105.754578 4.692623,20.22697 7.653557,40.81698 11.480337,61.22547 8.682865,59.46052 12.872188,119.56874 10.829604,179.64572 -0.622898,18.32086 -1.331814,23.86121 -2.878158,40.80897 -1.840585,14.27577 -0.860454,7.81825 -2.793545,19.3943 0,0 42.632566,22.32964 42.632566,22.32964 v 0 c 0.77546,-12.39774 0.41787,-5.50931 0.96366,-20.67068 0.22432,-17.40537 0.45585,-24.00384 -0.0566,-42.62149 C 108.98083,317.85356 103.04892,256.68352 93.896224,195.93763 90.396969,175.57645 87.660071,155.06947 83.398459,134.8541 79.443682,116.09424 73.912626,97.701411 69.265799,79.100885 65.344436,63.404286 61.743483,47.627508 57.694073,31.963455 55.547066,23.658339 52.738115,15.530944 50.67918,7.2035563 49.187864,1.1719123 48.856796,-4.1591132 48.30346,-10.184092 c 0,0 -44.6572546,-21.832698 -44.6572546,-21.832698 z" />
    <path
       style="fill:#ffffff;stroke-width:0.499999;stroke-linecap:round;stroke-linejoin:round;stroke-dashoffset:0.380976;stroke-opacity:0.508417;paint-order:markers fill stroke"
       id="path1617"
       d="m 193.23751,143.0157 c 1.60656,0.33171 3.18716,0.83393 4.81967,0.99512 2.43781,0.2407 23.48867,1.04786 24.25644,1.04761 10.88383,-0.003 19.67399,-0.0549 30.0303,-3.89853 4.23217,-1.57073 7.93412,-4.30855 11.90117,-6.46283 11.46915,-9.26469 6.34172,-4.49856 15.56501,-14.09938 0,0 -40.92111,-24.8652 -40.92111,-24.8652 v 0 c -8.14834,9.12879 -3.55898,4.65087 -13.96643,13.22744 -3.61869,1.87014 -6.99752,4.30507 -10.85606,5.61043 -9.99652,3.38186 -18.99861,3.17002 -29.41187,2.78507 -10.21136,-0.37749 -20.67629,-1.40767 -30.47054,-4.46971 0,0 39.05342,30.12998 39.05342,30.12998 z" />
    <path
       style="fill:#ffffff;stroke-width:0.499999;stroke-linecap:round;stroke-linejoin:round;stroke-dashoffset:0.380976;stroke-opacity:0.508417;paint-order:markers fill stroke"
       id="path1661"
       d="m 661.2179,262.22116 c 3.01903,7.76247 5.21253,15.77112 6.4136,24.0303 0.64829,4.45802 1.40793,8.94956 1.29056,13.45293 -0.15216,5.83903 -0.80711,11.70008 -2.09457,17.39746 -1.52609,6.75346 -4.20587,13.19332 -6.30881,19.78996 -10.07419,25.64622 -23.6743,49.68978 -39.17629,72.40397 -13.34818,18.14208 -8.99179,5.10056 39.58603,29.38119 0.55504,0.27741 0.57385,-1.10043 0.86537,-1.64823 0.28681,-0.5389 0.5797,-1.07455 0.86955,-1.61181 0.17407,-0.19011 1.32191,-1.64367 1.85645,-1.5244 0.5497,0.12266 0.77719,0.89985 1.31792,1.05743 1.32032,0.38481 2.71925,0.45284 4.09289,0.51951 6.96394,0.33801 9.8869,-0.23397 17.3632,-0.89222 23.60644,-3.03991 47.2544,-5.69482 70.97699,-7.63694 4.63963,-0.27768 9.28841,-0.50297 13.93799,-0.4318 1.61422,0.0246 2.69526,-0.0148 3.99537,0.90996 2.12145,0.2345 2.80955,-3.25057 3.47821,-4.49003 0.20928,-0.38796 -0.62378,1.58041 -0.66739,1.14175 -0.17571,-1.76728 0.16786,-3.54801 0.25178,-5.32201 -0.49413,-3.14664 -0.57758,-6.38588 -1.48235,-9.43986 -3.72772,-12.58284 -9.0541,-21.21815 -15.68297,-32.79172 -3.50089,-6.11232 -7.19151,-12.11416 -10.8263,-18.14785 -5.34966,-8.88029 -12.50516,-20.49983 -18.03672,-29.51001 -6.32145,-10.81286 -13.58824,-21.14796 -18.93435,-32.50887 -0.53983,-1.40793 -1.05278,-2.82607 -1.54975,-4.24927 0,0 -44.74099,-21.92948 -44.74099,-21.92948 v 0 c 0.10147,1.94688 0.70681,3.66786 1.3924,5.49066 0.30956,0.82928 0.55245,1.68656 0.92869,2.4878 0.70493,1.50129 3.67556,6.4835 4.26548,7.42661 5.21843,8.34271 10.95682,16.35215 16.27251,24.63099 10.27753,15.70934 20.67867,31.42596 29.92461,47.77594 5.49995,9.72574 10.9306,19.35716 13.96378,30.17706 0.72983,2.60347 0.69903,5.36231 1.04857,8.04346 -0.13396,1.19954 -0.11213,2.42694 -0.40187,3.59865 -0.17026,0.6885 -1.37642,2.47243 -0.95785,1.8999 0.87884,-1.20211 1.56713,-2.53254 2.34754,-3.80074 0.0736,-0.1196 0.18336,-0.22564 0.21437,-0.36256 0.0391,-0.17272 -0.55552,-0.25366 -0.46712,-0.25302 -5.80533,0.72268 -11.67524,0.89887 -17.46462,1.78662 -23.42166,2.89883 -46.83651,6.00694 -70.37983,7.74925 -3.5796,0.0369 -7.1601,0.19759 -10.73882,0.11062 -2.46841,-0.06 -4.92255,-0.39682 -7.38685,-0.55112 -1.65682,-0.10377 -3.33177,-0.45752 -4.9752,-0.22305 -2.82573,0.40312 -4.39391,2.47386 -5.91839,4.55724 -0.29667,0.52726 -0.58785,1.05764 -0.89003,1.58176 -0.25053,0.43455 -1.18695,1.01811 -0.76806,1.2941 46.73486,30.78956 34.51633,39.75182 45.36893,20.1037 13.14942,-24.53052 25.86773,-49.31738 36.59888,-75.024 5.28061,-14.46879 9.51228,-22.78613 10.82241,-38.02126 0.38936,-4.52792 -0.39724,-9.08275 -0.76824,-13.61221 -0.67482,-8.23896 -1.81539,-15.86976 -4.04926,-23.7872 0,0 -44.77745,-21.02916 -44.77745,-21.02916 z" />
    <path
       style="fill:#ffffff;stroke-width:0.499999;stroke-linecap:round;stroke-linejoin:round;stroke-dashoffset:0.380976;stroke-opacity:0.508417;paint-order:markers fill stroke"
       id="path1663"
       d="m 697.37599,229.33574 c 0.85521,-5.98549 0.65492,-3.00624 -0.23291,-12.68003 -1.60984,-17.54018 -1.60624,-15.19801 -6.87332,-36.71633 -8.97618,-36.67173 -5.06394,-22.70189 -20.96244,-61.70953 -17.4108,-37.786501 -38.48952,-73.908316 -63.47473,-107.1982 -8.49024,-11.31226496 -12.34011,-15.4197722 -21.12155,-25.505006 -5.05759,-5.553359 -10.35299,-10.896621 -16.03857,-15.808823 -0.79341,-0.68549 -1.60906,-1.34502 -2.42647,-2.00171 -0.4073,-0.327213 -0.90744,-1.346533 -1.24703,-0.9495 -0.99957,1.168673 -1.08786,2.876865 -1.63179,4.315296 3.60137,2.819245 1.39798,1.448451 9.75323,2.943624 5.58961,1.000259 11.19865,1.893941 16.81673,2.719335 7.72763,1.135324 15.46444,2.215292 23.2174,3.162372 26.13808,3.192958 25.54113,2.811277 51.77843,4.649193 30.78427,1.544789 61.82399,1.088147 92.35122,-3.463624 2.38773,0.783707 5.18319,-1.635027 7.6813,-0.984687 0.43969,0.114462 1.13305,1.361803 0.73084,1.150498 -14.08407,-7.399249 -27.08434,-17.082534 -41.93233,-22.796238 -1.97134,-0.758586 -0.61318,4.184126 -1.08271,6.243511 -1.12852,4.949864 -2.47247,9.848137 -3.70871,14.772205 -7.49152,24.030497 -15.5847,47.876672 -23.0286,71.92142 -3.11152,10.050685 -6.05398,20.153011 -9.03448,30.243327 -2.78678,9.434547 -5.65262,18.847277 -8.26731,28.330977 -2.40207,8.71265 -4.52075,17.50098 -6.78114,26.25147 -4.5956,19.72896 -8.76117,39.55981 -12.19739,59.52483 -0.90276,5.24524 -2.62819,15.9928 -3.29039,21.81076 -0.25858,2.27168 -0.37319,4.55743 -0.5598,6.83614 -0.75687,27.38937 1.56249,13.7114 44.16128,36.98798 0.29385,-0.327 0.58769,-0.65401 0.88154,-0.98101 0,0 -41.94484,-27.03406 -41.94484,-27.03406 v 0 c 0.0562,-0.17863 0.11236,-0.35727 0.16856,-0.5359 14.2775,8.05969 28.63506,15.97918 42.83252,24.17906 0.22686,0.13102 -0.53443,0.20587 -0.77816,0.10985 -0.31586,-0.12445 -0.58076,-0.40298 -0.73433,-0.70576 -1.35577,-2.67307 -1.06637,-7.13683 -1.52995,-9.90555 -0.0386,-2.28232 -0.17171,-4.56499 -0.11591,-6.84696 0.16729,-6.84219 1.00068,-15.75082 1.73524,-22.32855 2.26269,-20.26208 5.51667,-40.40934 9.79773,-60.34512 5.75067,-24.40791 6.78805,-30.26462 14.04377,-54.85751 5.83885,-19.790527 12.01629,-38.231554 19.07447,-57.590106 2.96709,-8.137858 6.17972,-16.184078 9.26627,-24.277384 2.34005,-6.135918 4.67569,-12.2735218 7.01354,-18.4102824 1.88579,-4.7113605 3.89763,-9.3742024 5.65738,-14.1340816 0.78346,-2.119145 3.61685,-4.943961 1.96612,-6.486564 -74.30395,-69.436333 -24.22515,-34.998733 -42.71537,-29.52381 -2.27563,0.673814 -4.66648,0.919577 -6.93409,1.615993 -28.95383,5.760973 -58.6863,6.534877 -88.10683,5.130739 -8.57488,-0.641771 -17.1685,-1.069219 -25.72465,-1.925307 -17.04464,-1.705409 -33.63595,-4.189336 -50.44662,-7.423208 -6.14593,-1.182294 -12.22796,-2.675734 -18.33618,-4.039418 -3.2974,-0.736147 -6.52523,-1.863902 -9.88049,-2.260028 -1.12094,-0.13234 -2.20835,0.468294 -3.31253,0.702442 -0.97282,1.630529 -2.49984,3.039631 -2.91849,4.891593 -0.14298,0.632375 1.01214,0.81231 1.5458,1.180467 0.95771,0.660681 1.97927,1.226887 2.92539,1.904037 6.61644,4.735425 12.54342,10.35481 18.36082,16.015936 9.81212,10.315012 13.90562,14.262783 23.37231,25.9647835 26.53017,32.7945385 48.88285,68.8646305 66.36734,107.2590885 4.16206,10.87802 9.00618,21.51904 12.48619,32.63406 2.77188,8.85326 4.44095,18.02217 6.22422,27.1262 2.73079,13.94139 4.82383,28.34241 4.02513,42.61165 -0.0485,0.867 -0.32099,1.70681 -0.48149,2.56021 0,0 43.61683,23.67524 43.61683,23.67524 z" />
    <path
       style="fill:#ffffff;stroke-width:0.499999;stroke-linecap:round;stroke-linejoin:round;stroke-dashoffset:0.380976;stroke-opacity:0.508417;paint-order:markers fill stroke"
       id="path1671"
       d="m 135.0352,122.98186 c 0.81769,6.04415 0.27423,4.08395 3.94915,12.43072 3.79464,8.61871 14.34342,28.98673 17.11336,34.78908 13.71511,28.72983 11.672,25.36336 23.56134,56.55453 12.70907,35.46699 20.82525,72.32304 25.38831,109.67599 1.82939,14.97536 2.04332,20.84056 3.00659,35.27975 0.48613,9.34458 0.64704,18.71461 0.1441,28.06187 -0.0818,1.51976 -0.20608,3.03728 -0.34643,4.55279 -0.0799,0.86286 -1.03717,2.10285 -0.3142,2.58061 14.17798,9.36884 29.18142,17.4243 43.77212,26.13647 8.69698,-5.39393 8.00498,-5.10088 19.33666,-11.19873 6.77503,-3.64583 13.51831,-7.36132 20.43415,-10.73248 17.60185,-8.58006 32.5583,-14.80084 50.8165,-21.8381 7.54132,-2.90663 15.18103,-5.55133 22.77153,-8.32702 6.21173,-2.11291 12.42343,-4.22582 18.63513,-6.33873 0,0 -37.70947,-25.42383 -37.70947,-25.42383 v 0 c -5.92373,2.33291 -11.84746,4.66582 -17.77119,6.99875 -24.72537,9.90386 -49.40329,19.89638 -73.87926,30.40674 -3.76931,1.61859 -29.579,13.13029 -36.48023,15.6224 -1.9459,0.70268 -4.02837,0.94523 -6.04255,1.41785 13.33736,8.62357 26.25694,17.9305 40.01209,25.8707 0.81638,0.47124 -0.0778,-1.88389 -0.0914,-2.82642 -0.0236,-1.63689 0.0115,-3.27443 -0.0203,-4.91119 -0.19057,-9.83062 -0.86132,-19.64719 -1.89676,-29.42461 -0.58618,-5.45629 -1.08721,-10.92239 -1.75853,-16.36887 -5.49572,-44.58689 -14.65015,-88.83364 -29.53272,-131.2813 -3.54674,-10.11513 -6.77466,-20.34777 -10.64023,-30.34541 -3.36435,-8.70133 -7.40252,-17.12711 -11.03702,-25.71911 -3.01384,-7.12476 -5.89539,-14.305 -8.9077,-21.43042 -1.85877,-4.3968 -6.18296,-13.6087 -7.8487,-18.9267 -0.27179,-0.86771 -0.23256,-1.80364 -0.34885,-2.70545 0,0 -44.31549,-22.57988 -44.31549,-22.57988 z" />
  </g>
</svg>
