<?xml version="1.0" encoding="UTF-8" standalone="no"?>
<!-- Created with Inkscape (http://www.inkscape.org/) -->

<svg
   width="2400"
   height="1200"
   viewBox="0 0 634.99998 317.5"
   version="1.1"
   id="svg729"
   inkscape:version="1.2.2 (b0a84865, 2022-12-01)"
   sodipodi:docname="hi3.svg"
   xmlns:inkscape="http://www.inkscape.org/namespaces/inkscape"
   xmlns:sodipodi="http://sodipodi.sourceforge.net/DTD/sodipodi-0.dtd"
   xmlns="http://www.w3.org/2000/svg"
   xmlns:svg="http://www.w3.org/2000/svg">
  <sodipodi:namedview
     id="namedview731"
     pagecolor="#858585"
     bordercolor="#000000"
     borderopacity="0.25"
     inkscape:showpageshadow="false"
     inkscape:pageopacity="0"
     inkscape:pagecheckerboard="true"
     inkscape:deskcolor="#d1d1d1"
     inkscape:document-units="mm"
     showgrid="false"
     showborder="false"
     borderlayer="false"
     inkscape:zoom="0.30802114"
     inkscape:cx="1972.2673"
     inkscape:cy="819.74894"
     inkscape:window-width="2560"
     inkscape:window-height="1387"
     inkscape:window-x="0"
     inkscape:window-y="514"
     inkscape:window-maximized="0"
     inkscape:current-layer="layer1" />
  <defs
     id="defs726" />
  <g
     inkscape:label="Layer 1"
     inkscape:groupmode="layer"
     id="layer1">
    <path
       style="fill:#ffffff;stroke-width:0.499999;stroke-linecap:round;stroke-linejoin:round;stroke-dashoffset:0.380976;stroke-opacity:0.508417;paint-order:markers fill stroke"
       id="path1089"
       d="m 141.08305,-5.3840625 c -0.10117,6.1334752 -0.13882,12.487701 -0.7629,18.5383105 -3.77937,36.641912 -11.81301,72.583422 -21.57227,108.061262 -3.87979,14.1042 -8.40066,28.02417 -12.60099,42.03626 -11.034266,34.26156 -24.645096,67.61086 -40.455297,99.93154 -5.410123,11.05988 -12.793329,24.96101 -19.173682,35.86875 -2.043819,3.49408 -4.271245,6.87747 -6.406867,10.31621 0,0 40.873847,23.50426 40.873847,23.50426 v 0 c 23.891289,-48.51866 43.260949,-99.17652 60.041779,-150.55414 4.18408,-14.06453 8.4568,-28.10299 12.55225,-42.19357 8.77396,-30.18728 14.20691,-49.818844 22.01153,-79.727608 2.20467,-8.448704 4.44791,-16.89036 6.40089,-25.400767 1.74869,-7.620182 2.07193,-10.912524 2.9262,-17.603132 0,0 -43.83449,-22.7773755 -43.83449,-22.7773755 z" />
    <path
       style="fill:#ffffff;stroke-width:0.499999;stroke-linecap:round;stroke-linejoin:round;stroke-dashoffset:0.380976;stroke-opacity:0.508417;paint-order:markers fill stroke"
       id="path1091"
       d="m 221.81364,-2.884525 c -0.18642,2.42146681 -0.24547,4.8561267 -0.55928,7.2644004 -0.47606,3.6534809 -1.19835,7.2706486 -1.80815,10.9042016 -1.19423,7.11599 -2.23666,14.259618 -3.60394,21.344395 -3.8722,20.06455 -10.0666,46.539133 -15.50791,65.317498 -4.21795,14.55645 -9.26118,28.86096 -13.89177,43.29145 -15.918,44.43581 -32.5918,88.77549 -53.41507,131.19279 -6.58953,13.42294 -9.09112,17.49531 -15.97216,29.66132 -1.77113,2.82401 -3.54225,5.64801 -5.31337,8.47201 0,0 41.29929,23.76752 41.29929,23.76752 v 0 c 1.50674,-3.04053 3.01349,-6.08107 4.52024,-9.12161 6.30958,-13.63626 7.61758,-16.13326 13.82436,-31.21332 18.10049,-43.97715 33.00131,-89.17775 49.56926,-133.73423 7.20537,-20.33447 21.09025,-58.69183 27.64645,-80.179024 2.62893,-8.61599 4.5245,-17.439383 6.89621,-26.129694 1.85027,-6.779694 3.84611,-13.518822 5.76916,-20.278233 0.87615,-3.540244 1.71148,-7.090841 2.62846,-10.620732 0.62094,-2.390301 1.32323,-4.758728 1.98484,-7.138093 0,0 -44.06662,-22.800649 -44.06662,-22.800649 z" />
    <path
       style="fill:#ffffff;stroke-width:0.499999;stroke-linecap:round;stroke-linejoin:round;stroke-dashoffset:0.380976;stroke-opacity:0.508417;paint-order:markers fill stroke"
       id="path1095"
       d="m 157.23483,94.089127 c 3.59985,0.27437 7.1997,0.54874 10.79955,0.82311 5.74368,0.53714 11.47904,1.1721 17.23102,1.61145 12.87069,0.98308 47.30934,2.98003 58.97816,3.689943 48.89684,2.97481 13.16195,0.88757 58.57638,3.49047 22.17643,1.29916 44.36589,2.46392 66.57621,2.9743 0,0 -39.4172,-28.600683 -39.4172,-28.600683 v 0 c -20.78318,0.80213 -41.5925,0.4719 -62.3746,-0.22201 -8.88933,-0.35414 -17.78237,-0.62492 -26.66799,-1.06243 -41.26244,-2.03168 -82.57134,-5.15888 -123.31472,-12.214 0,0 39.61319,29.50985 39.61319,29.50985 z" />
    <path
       style="fill:#ffffff;stroke-width:0.499999;stroke-linecap:round;stroke-linejoin:round;stroke-dashoffset:0.380976;stroke-opacity:0.508417;paint-order:markers fill stroke"
       id="path1109"
       d="m 244.99496,166.09803 c -0.17023,3.2683 0.24622,6.56011 -0.0422,9.82111 -1.58865,17.95876 -6.33259,36.41457 -11.88595,53.48603 -2.49295,7.6635 -5.48576,15.15528 -8.22864,22.73292 -9.83118,24.28606 -21.04627,47.95994 -32.89565,71.31355 0,0 40.58693,22.96525 40.58693,22.96525 v 0 c 10.37183,-24.24417 20.86096,-48.43822 31.07375,-72.74996 6.62988,-17.24928 10.54595,-26.49503 15.89601,-43.95931 1.76422,-5.75888 3.13254,-11.63168 4.68974,-17.44994 1.25542,-4.69061 2.68544,-9.33868 3.74814,-14.07667 0.50395,-2.24686 0.87834,-6.45122 1.14671,-9.22117 0,0 -44.08879,-22.86181 -44.08879,-22.86181 z" />
    <path
       style="fill:#ffffff;stroke-width:0.499999;stroke-linecap:round;stroke-linejoin:round;stroke-dashoffset:0.380976;stroke-opacity:0.508417;paint-order:markers fill stroke"
       id="path1111"
       d="m 672.79806,88.390687 c 19.46449,-0.979599 38.94807,-1.294045 58.4268,-1.82517 6.84064,-0.205743 13.67612,-0.401688 20.51952,-0.367242 0,0 -39.59498,-28.613192 -39.59498,-28.613192 v 0 c -6.51835,0.37737 -13.0326,0.824008 -19.55617,1.108305 -19.90587,0.78149 -39.8445,1.448158 -59.76141,0.660112 0,0 39.96624,29.037187 39.96624,29.037187 z" />
    <path
       style="fill:#ffffff;stroke-width:0.499999;stroke-linecap:round;stroke-linejoin:round;stroke-dashoffset:0.380976;stroke-opacity:0.508417;paint-order:markers fill stroke"
       id="path1113"
       d="m 681.5237,189.94879 c 23.03277,-3.06104 46.25954,-4.4705 69.45016,-5.72358 0,0 -37.42163,-26.84182 -37.42163,-26.84182 v 0 c -10.27587,0.6987 -25.09052,1.74125 -35.22861,2.27903 -12.52435,0.66436 -25.07761,0.8997 -37.58039,1.95322 0,0 40.78047,28.33315 40.78047,28.33315 z" />
    <path
       style="fill:#ffffff;stroke-width:0.499999;stroke-linecap:round;stroke-linejoin:round;stroke-dashoffset:0.380976;stroke-opacity:0.508417;paint-order:markers fill stroke"
       id="path1115"
       d="m 750.07401,-8.3335597 c 0.34266,3.0093823 0.60664,6.1209442 1.51379,9.02358705 4.80616,15.37817165 8.59927,20.76869465 14.94414,37.74835565 10.97582,29.372716 11.67905,34.725822 19.95715,65.113157 1.73982,11.36023 4.1393,22.63887 5.21941,34.08068 1.03751,10.99038 1.22269,22.05992 1.12236,33.0987 -0.16031,17.63651 -2.03041,37.40357 -5.54257,54.78349 -4.06524,20.11679 -6.38013,23.85509 -13.58185,42.48218 -6.9478,15.38836 -15.74898,29.79675 -25.86419,43.28852 -4.98385,6.64755 -8.25047,10.23114 -13.50478,16.29256 0,0 41.04971,24.56013 41.04971,24.56013 v 0 c 4.68127,-6.22659 8.11238,-10.66294 12.6094,-17.26684 9.6897,-14.22931 18.35891,-29.1149 24.99842,-45.03925 7.04839,-19.20999 9.40588,-23.15871 13.12256,-43.85449 3.35336,-18.67251 4.42667,-37.25376 4.3905,-56.21169 -0.0214,-11.22518 -0.16769,-22.47511 -1.17364,-33.65515 -1.04069,-11.56587 -3.30488,-22.98885 -4.95734,-34.48327 -6.80146,-25.991883 -9.9182,-39.127778 -17.81074,-64.57712 -3.59842,-11.603043 -8.30136,-23.122265 -11.21701,-34.988476 -0.46369,-1.887146 -0.76777,-5.555838 -0.98118,-7.826077 0,0 -44.29414,-22.5689967 -44.29414,-22.5689967 z" />
    <path
       style="fill:#ffffff;stroke-width:0.499999;stroke-linecap:round;stroke-linejoin:round;stroke-dashoffset:0.380976;stroke-opacity:0.508417;paint-order:markers fill stroke"
       id="path1344"
       d="m 257.04208,107.84482 c 0.77581,12.66994 -2.98553,25.05316 -5.91505,37.24609 -0.60553,2.38616 -1.21105,4.77233 -1.8166,7.15849 0,0 42.49152,22.90343 42.49152,22.90343 v 0 c 0.52756,-2.42518 1.05514,-4.85035 1.58269,-7.27553 3.39841,-14.50779 0.44638,-2.10731 4.08495,-16.81682 0.82691,-3.34285 2.66594,-10.69627 3.30102,-14.36464 0.40492,-2.339 0.42712,-4.04626 0.52293,-6.30377 0,0 -44.25146,-22.54725 -44.25146,-22.54725 z" />
  </g>
</svg>
