<?xml version="1.0" encoding="UTF-8" standalone="no"?>
<!-- Created with Inkscape (http://www.inkscape.org/) -->

<svg
   width="2400"
   height="1200"
   viewBox="0 0 634.99998 317.5"
   version="1.1"
   id="svg729"
   inkscape:version="1.2.2 (b0a84865, 2022-12-01)"
   sodipodi:docname="imjohn.svg"
   xmlns:inkscape="http://www.inkscape.org/namespaces/inkscape"
   xmlns:sodipodi="http://sodipodi.sourceforge.net/DTD/sodipodi-0.dtd"
   xmlns="http://www.w3.org/2000/svg"
   xmlns:svg="http://www.w3.org/2000/svg">
  <sodipodi:namedview
     id="namedview731"
     pagecolor="#858585"
     bordercolor="#000000"
     borderopacity="0.25"
     inkscape:showpageshadow="false"
     inkscape:pageopacity="0"
     inkscape:pagecheckerboard="true"
     inkscape:deskcolor="#d1d1d1"
     inkscape:document-units="mm"
     showgrid="false"
     showborder="false"
     borderlayer="false"
     inkscape:zoom="0.30802114"
     inkscape:cx="1972.2673"
     inkscape:cy="819.74894"
     inkscape:window-width="2560"
     inkscape:window-height="1387"
     inkscape:window-x="0"
     inkscape:window-y="514"
     inkscape:window-maximized="0"
     inkscape:current-layer="layer1" />
  <defs
     id="defs726" />
  <g
     inkscape:label="Layer 1"
     inkscape:groupmode="layer"
     id="layer1">
    <path
       style="fill:#ffffff;stroke-width:6.13518;stroke-linecap:round;stroke-linejoin:round;stroke-dashoffset:0.380976;stroke-opacity:0.508417;paint-order:markers fill stroke"
       d=""
       id="path1597"
       transform="scale(0.26458333)" />
    <path
       style="fill:#ffffff;stroke-width:0.499999;stroke-linecap:round;stroke-linejoin:round;stroke-dashoffset:0.380976;stroke-opacity:0.508417;paint-order:markers fill stroke"
       id="path1740"
       d="m 6.8318115,-14.348241 c 0.8347474,2.743771 1.510458,5.5410583 2.5042423,8.2313149 2.3263552,6.29763655 5.0382642,12.4467915 7.4488942,18.7126521 7.011056,18.223573 13.708969,35.782746 18.937265,54.648368 6.859201,24.750514 7.214314,31.532798 11.057207,56.254666 2.125014,18.41974 3.256262,36.96824 2.918264,55.51307 -0.130958,7.18528 -0.634539,14.26507 -1.830863,21.34098 0,0 43.323168,22.71932 43.323168,22.71932 v 0 c 0.560168,-7.67851 0.495771,-15.31488 0.141361,-23.01248 -0.884285,-19.20631 -2.792777,-38.36298 -5.419262,-57.4059 C 81.88921,118.69756 80.8821,109.56024 74.613004,85.610355 68.337646,61.636557 59.469908,38.44214 52.757419,14.602363 52.070269,12.161909 51.64828,9.6544563 51.093708,7.1805027 c 0,0 -44.2618965,-21.5287437 -44.2618965,-21.5287437 z" />
    <path
       style="fill:#ffffff;stroke-width:0.499999;stroke-linecap:round;stroke-linejoin:round;stroke-dashoffset:0.380976;stroke-opacity:0.508417;paint-order:markers fill stroke"
       id="path1742"
       d="m 1.7505633,221.61451 c 3.9388832,-0.96371 7.8462233,-2.06696 11.8166497,-2.89111 5.995621,-1.24455 12.034222,-2.27526 18.069172,-3.31243 19.152245,-3.29154 32.671541,-5.35328 52.195613,-7.84606 12.497932,-1.5957 34.548162,-3.93577 47.635902,-5.35562 5.61673,-0.54497 11.23346,-1.08994 16.85019,-1.63491 0,0 -37.65787,-26.67731 -37.65787,-26.67731 v 0 c -5.31242,0.76943 -10.62483,1.53884 -15.937242,2.30827 -21.866669,3.11674 -22.937502,3.34769 -46.32322,6.31403 -17.045541,2.16213 -36.934687,4.46846 -54.0707011,6.67094 -6.4068659,0.82347 -12.7948209,1.79177 -19.2052569,2.58697 -4.657271,0.57772 -9.330239,1.021 -13.995359,1.5315 0,0 40.6221223,28.30573 40.6221223,28.30573 z" />
    <path
       style="fill:#ffffff;stroke-width:0.499999;stroke-linecap:round;stroke-linejoin:round;stroke-dashoffset:0.380976;stroke-opacity:0.508417;paint-order:markers fill stroke"
       id="path1744"
       d="m -28.902628,8.8124928 c 3.015336,-0.2143574 6.026842,-0.491935 9.046006,-0.6430719 C 13.411913,6.504025 46.807739,6.3044053 80.109554,5.5303398 90.602862,5.1272405 101.11308,5.0033292 111.58191,4.1141057 c 7.74021,-0.6574539 1.76314,-0.4114337 7.97344,-0.579574 0,0 -40.077428,-28.6145157 -40.077428,-28.6145157 v 0 c -2.449812,0.343929 -4.886423,0.777924 -7.336293,1.121435 -9.699019,1.359956 -19.479979,2.008617 -29.246186,2.655734 -20.468249,1.011333 -40.920833,1.752669 -61.417896,1.87709 -21.011059,0.127542 -20.84335,-0.156972 -40.012069,-0.313418 -3.5693,-0.02913 -7.138841,0.0016 -10.708261,0.0024 0,0 40.340155,28.5492111 40.340155,28.5492111 z" />
    <path
       style="fill:#ffffff;stroke-width:0.499999;stroke-linecap:round;stroke-linejoin:round;stroke-dashoffset:0.380976;stroke-opacity:0.508417;paint-order:markers fill stroke"
       id="path1746"
       d="m 88.757132,22.704349 c 0.776126,16.599499 3.850126,32.993434 6.982711,49.280046 0.55013,2.610906 1.100259,5.221812 1.650389,7.832717 0,0 43.365038,20.858558 43.365038,20.858558 v 0 c -0.66987,-2.621479 -1.33974,-5.242955 -2.00961,-7.864431 -3.41004,-15.624812 -6.6276,-31.555303 -5.88651,-47.635789 0,0 -44.102018,-22.471101 -44.102018,-22.471101 z" />
    <path
       style="fill:#ffffff;stroke-width:0.499999;stroke-linecap:round;stroke-linejoin:round;stroke-dashoffset:0.380976;stroke-opacity:0.508417;paint-order:markers fill stroke"
       id="path1748"
       d="m 194.85168,186.97437 c 1.22155,-8.6545 0.60877,-17.30713 0.14713,-25.99833 -0.3009,-5.665 -0.36573,-11.35363 -1.02684,-16.98796 -1.25101,-10.66191 -5.58154,-32.79648 -7.56146,-43.36836 -4.22599,-21.558644 -8.68712,-43.07197 -13.37435,-64.535118 -0.17286,-0.789532 -0.35237,-1.577636 -0.51858,-2.368595 -1.01566,-4.833347 1.73979,5.715492 -3.02394,3.789871 -14.19231,-5.736897 -26.301,-15.753208 -40.09189,-22.397371 -1.91581,-0.922995 2.50621,3.451246 3.96946,4.994341 3.1427,3.314195 6.54926,6.367809 9.82389,9.551712 13.52327,10.804136 14.09308,11.667567 28.34094,21.4292 4.25441,2.914819 8.52672,5.814978 12.95792,8.453289 16.8596,10.038112 33.85965,19.840085 50.90036,29.567568 2.9173,1.665303 5.92895,3.164904 8.9637,4.605105 2.14219,1.016619 4.37081,1.840121 6.55622,2.760181 1.49415,0.312737 2.95592,0.936291 4.48244,0.938212 3.97757,0.005 6.7412,-3.628594 9.1962,-6.166218 1.29381,-1.337373 2.57643,-2.68556 3.86464,-4.028339 1.75151,-1.80481 3.50303,-3.609618 5.25454,-5.414425 7.57574,-9.09574 15.06607,-18.287011 22.14396,-27.779229 2.17332,-2.91462 4.37169,-5.817761 6.34886,-8.868822 3.86308,-5.961256 4.53168,-7.981601 7.26163,-14.049573 8.3821,-23.6780114 0.5135,-13.846175 -41.1802,-32.7409801 -0.79039,-0.3581893 -0.27559,1.71613877 -0.33147,2.58210022 -0.12311,1.90709078 -0.13671,3.81967478 -0.20506,5.72951208 -0.0426,2.5776661 -0.44378,5.1743998 -0.12792,7.7329978 0.93432,7.569077 2.55831,15.037017 3.86622,22.550559 1.79517,10.312807 3.668,20.612065 5.44298,30.928362 5.28228,30.70049 10.13844,61.45595 14.82527,92.25164 2.62644,16.65057 4.78515,33.37065 7.35618,50.02933 0.87138,5.64601 1.83579,11.22142 3.13952,16.77912 5.06437,19.17578 -3.11398,0.91575 43.76904,28.61218 0,0 -39.32631,-30.68743 -39.32631,-30.68743 v 0 c 14.00812,8.34919 28.04681,16.64737 42.02443,25.04757 0.289,0.17367 -0.71176,-0.1168 -0.94528,-0.36002 -0.44767,-0.46631 -0.66479,-1.10884 -0.99719,-1.66326 -2.3314,-5.58106 -3.88151,-11.20968 -5.28338,-17.11146 -4.05186,-17.05786 -7.18442,-34.31897 -10.58691,-51.51182 -5.64377,-30.76352 -11.31453,-61.50293 -15.52842,-92.505398 -2.34278,-17.236199 -4.3752,-33.051567 -4.86169,-50.283559 -0.0691,-2.448954 0.32306,-4.889203 0.48456,-7.333805 0.21897,-1.675233 0.39949,-3.355941 0.65693,-5.025699 0.0992,-0.643343 0.9716,-1.576081 0.41214,-1.90884 -78.06626,-46.432431 -40.46685,-38.278607 -43.81341,-19.3083484 -0.27159,1.5395918 -0.72416,3.0417129 -1.08625,4.5625694 -2.06766,5.826353 -2.53449,7.905541 -5.8947,13.602211 -1.80137,3.053938 -3.84123,5.964917 -5.91965,8.83749 -6.84407,9.459169 -14.48045,18.367904 -22.7263,26.628016 -1.38654,1.264192 -7.82073,7.172251 -9.78701,8.83309 -1.11422,0.941134 -2.5713,2.475148 -4.26558,2.540749 -1.56935,0.06076 -4.51816,-1.112369 -5.64809,-1.48087 -1.93495,-0.863251 -3.90322,-1.655421 -5.80487,-2.589755 -2.79522,-1.373367 -10.94028,-5.948145 -8.27919,-4.33011 9.51104,5.783043 19.0735,11.493836 28.84096,16.832389 4.64378,2.53813 -9.04362,-5.503941 -13.45715,-8.424132 -13.86125,-9.17122 -14.70456,-10.244526 -27.57628,-20.345997 -2.88002,-2.767846 -5.91119,-5.386568 -8.64007,-8.303538 -1.31986,-1.410833 -1.87731,-3.549256 -3.47061,-4.641892 -14.34767,-9.839156 -38.49952,-45.044956 -47.33931,-23.148538 -0.48138,1.192388 3.65992,2.035208 1.57124,3.52318 7.04663,21.623398 12.29084,43.80416 17.2464,65.981902 3.00866,15.782528 5.44135,26.266185 6.79213,42.261035 0.46283,5.48037 0.43957,10.99399 0.43636,16.49387 -0.005,7.99266 -0.24702,16.10297 -2.17467,23.90061 0,0 43.77778,23.33783 43.77778,23.33783 z" />
    <path
       style="fill:#ffffff;stroke-width:0.499999;stroke-linecap:round;stroke-linejoin:round;stroke-dashoffset:0.380976;stroke-opacity:0.508417;paint-order:markers fill stroke"
       id="path1772"
       d="m 160.87908,247.87742 c 0.1065,2.455 0.13977,4.91428 0.31951,7.365 0.3999,5.45285 0.95496,10.89322 1.41906,16.34099 2.33764,27.43996 5.06649,54.98412 5.13686,82.55108 0.0301,11.7959 -0.67588,23.58216 -1.01382,35.37324 -3.35549,47.82875 -10.30259,95.37811 -20.22018,142.27455 -1.2969,5.32961 -1.62055,7.12409 -3.09647,11.85857 -0.17117,0.54909 -0.93819,2.89155 -1.43112,3.73134 -0.0231,0.0392 -0.13204,-0.0353 -0.11299,-0.0767 0.3876,-0.841 0.85585,-1.64242 1.28378,-2.46364 78.9645,45.71857 48.95057,37.44788 41.07457,22.36391 -0.59943,-1.14803 -1.06543,-2.36228 -1.65958,-3.51306 -2.01814,-3.9088 -3.90026,-7.89816 -6.17586,-11.66289 -12.96036,-21.44159 -21.02424,-32.06977 -35.89295,-53.26417 -27.42391,-31.69181 -24.87602,-29.63309 -53.281489,-59.08947 -7.530875,-7.8095 -15.274845,-15.41066 -22.912268,-23.11598 0,0 -39.067532,-16.16049 -39.067532,-16.16049 v 0 c 8.047539,7.83069 16.240007,15.51514 24.142616,23.49204 28.493045,28.76095 26.130036,27.14241 52.703153,58.12887 15.47793,23.05 19.56477,27.49307 31.41267,50.50804 1.7582,3.41534 3.01896,7.06509 4.4667,10.62318 0.47473,1.16673 0.87995,2.36069 1.29952,3.54835 0.27365,0.77459 0.0883,1.8946 0.77993,2.33783 14.08251,9.02441 28.70828,17.17154 43.06242,25.75732 0.87352,-1.12498 1.87767,-2.071 2.34594,-3.42093 0.38109,-1.09855 0.86698,-3.76518 1.01022,-4.59425 0.80983,-4.6872 1.18666,-7.85474 1.86701,-12.8161 5.76308,-48.37896 11.37294,-96.79101 15.53022,-145.3379 0.62027,-11.75602 1.64432,-23.49764 1.86081,-35.268 0.19492,-10.59725 -0.46058,-21.19321 -0.6274,-31.79091 -0.1517,-9.63636 -0.1054,-19.27582 -0.32815,-28.91078 -0.32398,-14.01408 -1.76223,-28.1377 0.0657,-42.12873 0,0 -43.9609,-22.64033 -43.9609,-22.64033 z" />
    <path
       style="fill:#ffffff;stroke-width:0.499999;stroke-linecap:round;stroke-linejoin:round;stroke-dashoffset:0.380976;stroke-opacity:0.508417;paint-order:markers fill stroke"
       id="path1780"
       d="m 218.39841,271.47578 c 0.1725,2.74952 0.27242,5.50455 0.51751,8.24854 0.70491,7.89218 1.65743,15.76131 2.33215,23.65613 1.8686,21.86416 4.41626,56.32757 4.969,77.72355 0.37429,14.48822 0.39595,28.99098 0.0184,43.47909 -0.35339,13.56063 -1.47361,27.09045 -2.21042,40.63566 -3.04287,41.37268 -9.4372,82.39794 -17.75594,123.01085 0,0 42.49531,22.45267 42.49531,22.45267 v 0 c 4.1021,-42.27298 9.40479,-84.45328 11.22454,-126.91843 1.50807,-35.16855 2.5108,-48.8451 2.30276,-84.45579 -0.0795,-13.61159 -0.82636,-27.21218 -1.03416,-40.82246 -0.32648,-21.38473 -0.59479,-42.93872 1.16614,-64.28541 0,0 -44.02527,-22.7244 -44.02527,-22.7244 z" />
    <path
       style="fill:#ffffff;stroke-width:0.499999;stroke-linecap:round;stroke-linejoin:round;stroke-dashoffset:0.380976;stroke-opacity:0.508417;paint-order:markers fill stroke"
       id="path1782"
       d="m 225.05283,282.11576 c 1.34084,1.03743 2.62312,2.15529 4.02252,3.11224 2.26303,1.54755 4.56256,3.05099 6.95308,4.39322 26.3535,14.79709 42.48593,26.80708 68.65277,34.09106 2.64125,0.73525 5.34236,1.2355 8.01354,1.85325 5.44486,0.70323 7.32449,1.24473 12.67695,0.85712 5.36483,-0.38852 11.57754,-1.95422 16.66063,-3.79429 0.20407,2.44319 2.88367,-3.26533 3.07994,-2.04814 0.12496,0.77481 -0.30986,2.4933 -1.00508,2.12916 -14.31239,-7.49657 -27.17104,-17.67827 -41.79506,-24.54712 -1.51815,-0.71308 0.1552,3.35095 0.23461,5.02634 0.18044,3.809 0.36327,7.61786 0.5449,11.4268 1.07847,25.45202 1.00489,50.93251 0.11428,76.38966 -0.39479,11.28434 -1.07421,22.55697 -1.64754,33.83364 -1.56315,30.74583 -1.74299,32.88861 -3.47821,62.51321 -1.15496,19.57184 -2.57503,39.12875 -4.39158,58.65064 -0.65807,7.07218 -1.38483,14.11957 -2.40374,21.14756 -0.1569,0.46633 -0.51424,1.88905 -0.47072,1.39896 0.1288,-1.45108 -0.60238,-4.90032 0.72909,-4.30914 13.68626,6.07711 51.67463,30.24021 39.15767,22.02008 -16.17784,-10.62432 -33.08451,-20.13482 -50.16045,-29.24582 -3.47625,-1.85478 -34.74101,-12.90587 -36.77115,-13.63464 -16.53617,-5.65867 -33.39763,-10.4098 -50.53539,-13.86531 -3.40199,-0.68596 -6.83878,-1.18636 -10.25816,-1.77956 0,0 38.10291,28.64557 38.10291,28.64557 v 0 c 3.15422,0.48995 6.32429,0.88693 9.46266,1.46986 16.54596,3.07324 32.792,7.59217 48.64632,13.2288 6.81923,2.58929 13.7192,4.97522 20.45774,7.76785 6.05189,2.50809 23.13538,12.05661 17.89435,8.12628 -10.01223,-7.5083 -43.04287,-25.55388 -32.38553,-18.99341 11.63624,7.16309 37.81706,37.91212 49.32902,24.00882 0.48795,-0.58933 0.21741,-1.51474 0.3261,-2.27211 0.0747,-27.5477 0.94904,-55.08704 1.57975,-82.62519 0.32316,-9.92018 0.56152,-19.84351 0.96954,-29.7606 0.57838,-14.05797 2.623,-53.02652 3.49911,-66.9245 2.74064,-43.47578 1.76742,-19.4387 3.73378,-57.28991 0.29323,-5.64428 0.48646,-11.29329 0.72969,-16.93992 0.24247,-3.58066 0.47199,-7.16219 0.72737,-10.74193 0.11308,-1.58496 1.61554,-3.75531 0.37798,-4.75197 -60.53838,-48.75252 -30.02759,-40.52363 -43.38158,-26.64758 -0.48448,0.50342 -1.44058,0.42804 -1.87484,0.9372 -9.00353,2.95019 -17.39032,3.51028 -26.72559,1.37306 -7.70289,-2.00187 -8.4173,-1.98766 -16.28489,-4.94565 -3.16888,-1.19142 -12.20175,-5.74331 -9.40305,-3.83844 10.36177,7.05242 21.5474,12.81269 32.22743,19.37316 2.11418,1.29871 -4.42335,-2.26359 -6.52399,-3.58412 -1.30238,-0.81873 -2.43771,-1.87714 -3.65656,-2.8157 0,0 -45.75062,-18.41849 -45.75062,-18.41849 z" />
    <path
       style="fill:#ffffff;stroke-width:0.499999;stroke-linecap:round;stroke-linejoin:round;stroke-dashoffset:0.380976;stroke-opacity:0.508417;paint-order:markers fill stroke"
       id="path1784"
       d="m 351.56888,301.37068 c 0.21236,1.75091 0.39683,3.50546 0.63704,5.25277 2.63763,19.18571 2.82644,17.12452 4.79634,40.31652 1.3938,16.40914 3.17458,48.94707 3.74682,64.40559 0.47424,12.81115 0.646,25.6317 0.96903,38.44756 0.6612,44.72831 -0.38446,89.46988 1.2876,134.18161 0.12271,1.81914 0.2454,3.63826 0.36809,5.4574 0,0 43.68866,21.5121 43.68866,21.5121 v 0 c -0.38553,-1.86912 -0.77105,-3.73824 -1.15657,-5.60736 -6.59382,-45.33035 -6.90603,-91.23961 -7.56664,-136.95611 -0.13049,-22.26062 -0.17886,-50.29838 -0.74178,-72.73968 -2.76818,-110.35733 0.279,42.40242 -1.53268,-53.1373 -0.29604,-15.61158 -0.40397,-9.27862 -0.11748,-18.89204 0,0 -44.37843,-22.24106 -44.37843,-22.24106 z" />
    <path
       style="fill:#ffffff;stroke-width:0.499999;stroke-linecap:round;stroke-linejoin:round;stroke-dashoffset:0.380976;stroke-opacity:0.508417;paint-order:markers fill stroke"
       id="path1786"
       d="m 416.83331,312.49792 c 0.44548,3.54454 0.95893,7.08117 1.33646,10.6336 0.55351,5.20822 0.91528,10.43551 1.4563,15.64505 2.18328,21.02292 4.70545,38.97794 5.68618,60.29926 0.67054,14.57713 1.01185,29.1775 0.85768,43.76922 -0.15825,14.97674 -1.19632,29.93126 -1.79449,44.89688 -2.89438,44.29564 -7.75573,88.44701 -13.91904,132.40012 0,0 41.65854,21.66877 41.65854,21.66877 v 0 c 1.40983,-45.37321 5.05108,-90.64088 7.39749,-135.9689 0.7753,-15.87836 3.68551,-71.25711 3.69403,-87.75951 0.006,-10.76574 -1.07836,-21.5052 -1.46479,-32.26401 -0.31374,-8.73583 -0.42201,-17.47784 -0.63558,-26.21671 -0.12263,-5.01851 -0.35994,-10.03544 -0.37304,-15.05546 -0.008,-3.17592 0.20601,-6.34854 0.30901,-9.52283 0,0 -44.20875,-22.52548 -44.20875,-22.52548 z" />
    <path
       style="fill:#ffffff;stroke-width:0.499999;stroke-linecap:round;stroke-linejoin:round;stroke-dashoffset:0.380976;stroke-opacity:0.508417;paint-order:markers fill stroke"
       id="path1788"
       d="m 411.96537,475.77634 c 0.90504,-0.17243 1.7993,-0.41654 2.7151,-0.51734 5.21677,-0.57431 13.27333,-0.82635 17.97924,-0.89366 12.5921,-0.18015 25.17502,0.28173 37.75508,0.74478 11.42238,0.51929 6.06071,0.19902 16.08807,0.90865 0,0 -39.02622,-28.63384 -39.02622,-28.63384 v 0 c -9.56538,-0.20629 -4.44651,-0.11898 -15.35698,-0.24101 -12.57043,-0.14644 -25.1411,-0.3716 -37.71172,-0.48823 -7.07784,-0.0657 -13.2276,-0.27819 -20.15514,0.38883 -1.07606,0.10361 -2.12256,0.41153 -3.18383,0.6173 0,0 40.8964,28.11452 40.8964,28.11452 z" />
    <path
       style="fill:#ffffff;stroke-width:0.499999;stroke-linecap:round;stroke-linejoin:round;stroke-dashoffset:0.380976;stroke-opacity:0.508417;paint-order:markers fill stroke"
       id="path1790"
       d="m 513.69626,620.49424 c 2.04589,-9.98067 3.79428,-17.47446 4.66331,-28.1636 1.8597,-22.87455 1.18798,-46.50891 1.45259,-69.34425 0.55589,-47.97393 0.26085,-34.01526 3.33618,-80.74636 4.36735,-41.84491 14.47327,-82.88464 29.10557,-122.27817 1.82248,-2.3232 1.82481,-5.87337 3.674,-8.24812 0.1378,-0.17698 0.74629,0.49226 0.54325,0.39701 -14.00432,-6.56889 -27.25886,-15.00611 -41.95808,-19.82319 -2.25417,-0.73869 1.40356,4.53236 2.15943,6.78082 1.8888,5.61861 3.84947,11.2128 5.77421,16.81919 3.50634,10.26943 14.06625,41.29802 17.3047,50.32589 5.26566,14.67911 10.8997,29.22498 16.10609,43.9252 15.9209,44.95239 30.52834,90.37074 45.42449,135.66868 15.82261,6.76574 3.81145,37.10477 17.44614,46.48734 15.1419,10.41972 32.18868,21.10751 50.54563,22.04008 7.45874,0.37894 8.89151,-12.11291 12.09874,-18.85754 7.0291,-14.782 17.17807,-49.12188 21.86675,-64.04596 14.93676,-58.1991 29.54801,-116.48104 45.0274,-174.53954 0,0 -40.55126,-21.81458 -40.55126,-21.81458 v 0 c -11.17237,59.27733 -23.76839,118.39829 -41.09572,176.21692 -7.10057,20.98048 -12.86806,41.89481 -24.17863,61.17119 -3.14348,5.35741 -14.47083,8.68156 -11.90318,14.33761 5.25299,11.57128 17.20922,20.72486 29.41926,24.24673 16.99956,4.90337 -55.69897,-62.24333 -22.24304,-48.19232 -4.89837,-13.32717 -10.01295,-26.57686 -14.69507,-39.98153 -6.7596,-19.35234 -25.42847,-76.44601 -31.48795,-95.97945 -4.35139,-14.02726 -8.25093,-28.1913 -12.52847,-42.24123 -19.32096,-63.46082 1.17641,6.53282 -14.94124,-49.04243 -1.26029,-5.21978 -2.60635,-10.41961 -3.78084,-15.65939 -0.51424,-2.29415 0.60267,-5.53223 -1.28378,-6.93544 -13.99887,-10.41292 -29.3945,-18.85233 -44.68371,-27.25696 -0.69252,-0.38068 -1.0037,1.2432 -1.32818,1.96377 -0.54345,1.20676 -2.71272,9.0778 -2.74302,9.18427 -10.97073,41.52048 -19.58456,83.75054 -23.33143,126.5869 -0.748,13.18646 -1.69177,26.3633 -2.24396,39.55942 -1.73048,41.35474 -0.0764,39.67667 -3.51837,80.08641 -1.51464,17.7819 -2.62912,28.17058 -7.2689,44.30728 -0.84008,2.92174 -2.17387,5.6783 -3.26081,8.51747 0,0 43.0779,24.52788 43.0779,24.52788 z" />
  </g>
</svg>
