<?xml version="1.0" encoding="UTF-8" standalone="no"?>
<svg
   height="1200"
   version="1.2"
   width="1200"
   id="svg5532"
   sodipodi:docname="new5.svg"
   inkscape:version="1.2.2 (b0a84865, 2022-12-01)"
   xmlns:inkscape="http://www.inkscape.org/namespaces/inkscape"
   xmlns:sodipodi="http://sodipodi.sourceforge.net/DTD/sodipodi-0.dtd"
   xmlns="http://www.w3.org/2000/svg"
   xmlns:svg="http://www.w3.org/2000/svg">
  <sodipodi:namedview
     id="namedview5534"
     pagecolor="#ffffff"
     bordercolor="#000000"
     borderopacity="0.25"
     inkscape:showpageshadow="2"
     inkscape:pageopacity="0.0"
     inkscape:pagecheckerboard="0"
     inkscape:deskcolor="#d1d1d1"
     showgrid="false"
     inkscape:zoom="0.73932897"
     inkscape:cx="219.7939"
     inkscape:cy="643.15077"
     inkscape:window-width="2560"
     inkscape:window-height="1339"
     inkscape:window-x="0"
     inkscape:window-y="25"
     inkscape:window-maximized="0"
     inkscape:current-layer="svg5532" />
  <defs
     id="defs5528" />
  <path
     d="m 578,0 c -21.31455,21.024569 -13.32925,56.244419 -17,84 0.41369,56.80665 -2.96009,113.23827 -3,170 -3.68763,31.52504 -0.63624,65.02915 -11,95 -42.90833,53.16859 -72.51575,116.08022 -121,165 -51.28462,63.96285 -105.52766,126.06015 -171,176 -23.26607,24.33517 -69.64469,51.46586 -92,11 -32.94463,-56.26605 -5.04619,-121.30899 19,-175 36.13343,-77.1439 97.60239,-139.08208 164,-191 33.46232,-20.90529 62.80982,-49.18889 100,-63 38.33285,-40.16006 -28.69205,-53.56667 -52,-24 C 337.1254,274.54511 288.40655,314.29019 245.9097,360.0903 193.98472,409.35293 158.99913,473.36973 126,536 c -23.68234,51.0831 -38.278409,109.16373 -25,165 6.20902,31.5793 20.41777,77.14649 57,81 34.87453,2.0321 62.31586,-26.82387 95,-36 73.49261,-39.45795 123.827,-107.50943 176,-170 31.58189,-33.00846 52.87174,-74.45173 83,-109 17.20789,-23.67392 46.62799,-73.71011 39,-17 -2.08315,64.92575 0.14937,130.27884 -4,195 7.83884,40.98653 -4.67478,84.53551 -33,115 -8.50942,-38.01604 -80.29723,-44.15504 -61,2 49.47806,16.43324 10.36223,62.64946 -9,88 -30.52509,33.52824 -63.29449,66.31028 -101,92 -35.93406,28.4603 -64.45918,-15.78794 -47,-49 11.97091,-42.51603 29.40477,-86.6883 68,-112 13.43599,-35.44382 70.70997,-40.61644 68,-81 -10.23484,-48.61147 -62.06458,-17.06343 -84,4 -39.81211,37.89947 -90.4634,72.99792 -101,131 -13.38133,43.04344 -26.09698,90.01663 -17,135 25.66915,31.6835 71.88628,34.7748 109.89228,37 48.69115,-4.1643 93.02986,-38.43145 114.10772,-82 14.69713,-17.97786 50.5917,-97.21765 56,-40 17.01909,62.37526 40.8243,122.9152 58,185 6.56667,43.0256 -2.14472,99.6467 40,127 41.95183,10.6653 43.57466,-50.1833 25,-74 -14.04315,-57.5603 -22.79349,-116.4513 -30,-175 -4.92545,-71.443 -4.16157,-143.44936 -8,-215 13.02947,-49.93776 53.50659,-86.36828 79,-130 23.84982,-37.0107 52.15479,-71.32404 81,-104 23.48648,6.45712 43.81655,18.3469 64,1 46.30479,7.94834 73.6272,-45.14271 79,-84 4.54649,-30.98698 -11.74027,-71.52325 -49,-67 -46.10756,5.59941 -67.69655,52.66847 -98,82 -36.97437,42.50321 -62.75542,93.1968 -101,135 -24.08294,21.96857 -37.7739,77.68482 -58,85 -4.81082,-81.45419 2.82692,-163.33599 -1,-245 -1.85545,-36.28596 6.59938,-75.88422 38,-98 31.44953,-25.45378 29.84739,-70.62109 63,-95 42.99115,-40.01994 70.08666,-97.08667 122,-127 21.48616,26.69754 -0.95556,63.99008 -5,94 -4.81952,31.29419 -20.52416,62.84943 -16,95 30.33458,31.64805 52.91948,-32.57676 57,-58 10.05936,-49.11337 26.15225,-99.53832 19,-150 -7.06645,-39.637847 -54.84063,-46.871808 -84,-27 -72.63702,38.519131 -102.19853,120.88884 -157,178 -16.54665,24.55799 -29.65686,41.53252 -28,1 -1.20786,-56.9513 4.38375,-113.22932 5,-170 9.98298,-19.739114 2.31075,-54.7000908 -26,-49"
     fill="none"
     stroke="#000000"
     stroke-linecap="round"
     stroke-linejoin="round"
     stroke-width="2"
     id="path5530"
     style="stroke-width:20;stroke-dasharray:none;fill:#ffffff;fill-opacity:1" />
</svg>
