<?xml version="1.0" encoding="UTF-8" standalone="no"?>
<!-- Created with Inkscape (http://www.inkscape.org/) -->

<svg
   width="2400"
   height="1200"
   viewBox="0 0 634.99998 317.5"
   version="1.1"
   id="svg729"
   inkscape:version="1.2.2 (b0a84865, 2022-12-01)"
   sodipodi:docname="scroll2.svg"
   xmlns:inkscape="http://www.inkscape.org/namespaces/inkscape"
   xmlns:sodipodi="http://sodipodi.sourceforge.net/DTD/sodipodi-0.dtd"
   xmlns="http://www.w3.org/2000/svg"
   xmlns:svg="http://www.w3.org/2000/svg">
  <sodipodi:namedview
     id="namedview731"
     pagecolor="#858585"
     bordercolor="#000000"
     borderopacity="0.25"
     inkscape:showpageshadow="false"
     inkscape:pageopacity="0"
     inkscape:pagecheckerboard="true"
     inkscape:deskcolor="#d1d1d1"
     inkscape:document-units="mm"
     showgrid="false"
     showborder="false"
     borderlayer="false"
     inkscape:zoom="0.30802114"
     inkscape:cx="1972.2673"
     inkscape:cy="904.15873"
     inkscape:window-width="2560"
     inkscape:window-height="1387"
     inkscape:window-x="0"
     inkscape:window-y="505"
     inkscape:window-maximized="1"
     inkscape:current-layer="layer1" />
  <defs
     id="defs726" />
  <g
     inkscape:label="Layer 1"
     inkscape:groupmode="layer"
     id="layer1">
    <path
       style="fill:#ffffff;stroke-width:0.499999;stroke-linecap:round;stroke-linejoin:round;stroke-dashoffset:0.380976;stroke-opacity:0.508417;paint-order:markers fill stroke"
       id="path679"
       d="m 356.80882,0.40609072 c -9.33844,0.0199893 -18.75631,0.41419224 -28.03159,-0.96088124 -2.66457,-0.39502696 -5.28299,-1.05542978 -7.92449,-1.58314468 -9.54161,-2.6227923 -17.73383,-7.8570234 -24.46234,-15.0524468 -2.83885,-3.035824 -3.82722,-4.616083 -6.14331,-7.855759 -1.33588,-2.036011 -2.59027,-4.130619 -3.68477,-6.307227 -0.14531,-0.288957 -0.29234,-0.578067 -0.41106,-0.878922 -0.0943,-0.239011 0.0304,-0.73823 -0.22651,-0.736812 -16.65025,0.09193 -33.29415,0.675876 -49.94123,1.013815 -0.009,2.146115 0.3069,4.278111 0.3464,6.421289 0.17879,9.701256 -0.24646,16.8271271 -0.93125,27.1552764 -1.67731,25.2977176 -3.49397,43.5086766 -5.82505,69.5153866 -7.6294,80.122445 -17.28259,160.044415 -27.90704,239.820895 -1.86174,13.7409 -3.76126,27.47733 -5.8224,41.18994 -0.1906,1.26807 -0.84138,7.65048 -1.83131,9.40541 16.6952,-0.71316 33.60152,0.60158 50.0856,-2.13947 2.11582,-0.35182 0.56545,-4.2562 1.00338,-6.35591 0.73113,-3.50551 1.53795,-6.99865 2.50125,-10.4476 3.08238,-11.03598 6.62602,-21.27152 11.028,-31.90287 2.64512,-6.38834 5.65956,-12.61743 8.48935,-18.92612 12.07193,-24.42882 26.01007,-48.17218 43.24421,-69.35852 1.68188,-2.06755 3.48083,-4.03705 5.22123,-6.05558 2.63457,-2.95476 5.357,-5.77175 8.56777,-8.08346 0,0 -49.19504,-4.0791 -49.19504,-4.0791 v 0 c -2.48708,2.89945 -4.87696,5.87896 -7.11046,8.98072 -17.18824,24.18038 -31.76161,50.12981 -44.93532,76.68493 -3.01771,6.37424 -6.14968,12.69558 -9.05313,19.12265 -4.90603,10.85999 -9.09592,21.14963 -13.21765,32.27314 -1.30689,3.52695 -2.50622,7.09308 -3.70858,10.65704 -0.72998,2.16377 -4.32477,6.06481 -2.08799,6.52481 16.04378,3.29944 32.69252,2.08714 49.03878,3.13074 -1.13292,-0.94094 -0.43158,-0.20947 -0.48569,-3.36886 -0.0324,-1.8931 -0.0332,-3.78677 -0.0208,-5.6801 0.0899,-13.73127 0.62348,-27.45587 1.24973,-41.1715 0.4569,-8.50767 0.8442,-17.01937 1.3707,-25.523 4.4376,-71.67221 11.73836,-143.20506 22.48991,-214.209245 2.17504,-13.342475 4.24895,-26.701821 6.52505,-40.027423 9.26386,-54.235764 1.74051,-8.001935 8.79176,-47.755091 2.90182,-16.35962 0.56777,-3.707424 1.87227,-13.204223 0.0236,-0.17072 0.11753,-0.324001 0.17627,-0.486 -16.56194,0.148558 -33.12361,0.330941 -49.68582,0.445672 -0.11341,7.94e-4 0.23222,-0.170291 0.32405,-0.103727 0.2636,0.191084 0.41401,0.50365 0.59809,0.772186 1.53308,2.236412 2.91788,4.579501 4.53359,6.760953 2.42759,3.252537 3.96152,5.440521 6.74367,8.543197 6.97413,7.7775934 15.24268,14.1114118 25.148,17.6814933 2.6394,0.702713 5.24354,1.5547012 7.91824,2.1081386 8.63486,1.7866878 17.50232,1.6722402 26.26971,1.8229069 0,0 49.10582,-7.77759708 49.10582,-7.77759708 z" />
    <path
       style="fill:#ffffff;stroke-width:0.499999;stroke-linecap:round;stroke-linejoin:round;stroke-dashoffset:0.380976;stroke-opacity:0.508417;paint-order:markers fill stroke"
       id="path681"
       d="m 283.50575,21.645313 c 1.23118,0.350387 2.48221,0.637405 3.69358,1.051161 10.17212,3.474396 19.99276,8.116993 29.79735,12.471651 25.25636,11.217484 5.50153,2.568639 31.41863,13.834949 13.60549,5.889093 27.3907,11.338647 41.24204,16.616714 6.87914,2.621317 13.81545,5.0723 20.58606,7.962469 0.49541,0.364601 1.40134,0.484584 1.48619,1.093808 0.062,0.444847 -0.92284,0.162253 -1.27182,0.44499 -1.55136,1.256855 -2.905,2.739802 -4.35428,4.113109 -10.52219,9.970595 -21.15425,19.822432 -31.72454,29.742336 -24.00972,22.63085 -47.4231,45.88398 -70.54927,69.41365 -4.23013,4.3173 -8.46688,8.62825 -12.67354,12.96849 -1.23743,1.27674 -2.56487,2.43062 -3.4476,3.97589 -0.0357,0.5894 -0.6943,1.70522 -0.10718,1.76819 16.66226,1.78709 33.41475,2.62937 50.14454,3.59852 1.02053,0.0591 4.04479,-0.51152 3.02258,-0.51859 -13.44118,-0.0929 -26.92459,-0.80647 -40.32364,0.26084 -4.641,0.36968 9.30497,0.81362 13.84422,1.8484 6.93774,1.58153 13.66184,3.98606 20.49274,5.97909 8.65669,3.71838 17.51462,6.99944 25.97007,11.15515 20.90799,10.2759 39.70039,21.97281 58.91694,35.13021 17.22417,11.79322 33.76637,24.59381 49.84914,37.88894 6.21446,5.13728 12.21566,10.52721 18.32348,15.79083 10.72711,9.57474 21.12957,19.52826 30.84582,30.13305 3.13846,3.42549 6.09078,6.92354 8.78162,10.70229 -0.21473,-1.91852 1.05974,2.60819 1.02595,1.5461 0,0 49.84694,-0.68863 49.84694,-0.68863 v 0 c -0.20531,-1.62907 -0.62357,-2.86899 -1.78178,-4.12875 -3.39482,-3.9929 -7.04644,-7.59732 -10.89147,-11.17203 -11.24376,-10.45326 -22.89958,-20.45628 -34.77828,-30.17951 -6.56559,-5.26545 -13.06545,-10.61389 -19.69673,-15.79634 -16.75992,-13.09804 -33.88661,-25.94834 -51.35528,-38.08262 -18.72339,-13.00586 -36.92236,-25.0449 -56.92954,-35.97007 -7.86593,-4.29528 -16.08273,-7.9142 -24.1241,-11.8713 -6.02089,-2.22681 -22.76986,-9.34577 -31.00528,-9.68967 -18.49914,-0.77248 -37.03055,-0.0783 -55.54575,-0.0285 -1.25955,0.003 -5.02904,0.0815 -3.77402,0.18812 16.34794,1.38924 32.76272,1.99033 49.08415,3.6623 0.45059,0.0462 -0.0849,0.90188 -0.12734,1.35282 0.91262,-1.03568 1.70383,-2.23 2.55503,-3.31021 3.48451,-4.42204 7.11861,-8.72407 10.79841,-12.98411 21.47821,-24.35678 44.23278,-47.57698 68.48652,-69.19047 20.3381,-17.841354 6.84673,-6.19119 25.80984,-22.166172 2.99873,-2.526194 6.1092,-4.928346 8.96834,-7.611494 3.47007,-3.256452 7.35748,-6.400691 6.77344,-11.79295 -0.14417,-1.331203 -1.54479,-2.187511 -2.31717,-3.281264 -1.71053,-0.693688 -3.39267,-1.461929 -5.13154,-2.081059 -2.51724,-0.896258 -5.09251,-1.620724 -7.6286,-2.462173 -3.32343,-1.10268 -6.63884,-2.229522 -9.94947,-3.37007 -10.86556,-3.743324 -15.77684,-5.443323 -26.78686,-9.791549 -5.24262,-2.070494 -10.43432,-4.267689 -15.65151,-6.401535 -5.26817,-2.305831 -10.56669,-4.54352 -15.80451,-6.917494 -15.11959,-6.852756 -29.84334,-14.524719 -44.85688,-21.599076 0,0 -49.17564,6.391569 -49.17564,6.391569 z" />
    <path
       style="fill:#ffffff;stroke-width:0.499999;stroke-linecap:round;stroke-linejoin:round;stroke-dashoffset:0.380976;stroke-opacity:0.508417;paint-order:markers fill stroke"
       id="path683"
       d="m 307.53724,40.334969 c 2.86488,30.263642 3.93846,60.696991 4.29041,91.085071 0.1457,12.58032 0.0283,25.16232 0.0424,37.74348 -0.48813,52.16567 -2.28968,104.32137 -5.69772,156.37841 0,0 46.30486,0.0716 46.30486,0.0716 v 0 c -1.79972,-52.11479 -1.87018,-104.27389 -0.97105,-156.40915 0.93398,-42.98361 1.82914,-86.035754 5.80544,-128.869401 0,0 -49.77435,0 -49.77435,0 z" />
    <path
       style="fill:#ffffff;stroke-width:0.499999;stroke-linecap:round;stroke-linejoin:round;stroke-dashoffset:0.380976;stroke-opacity:0.508417;paint-order:markers fill stroke"
       id="path687"
       d="m 533.26609,6.3937961 c -0.30726,1.3393478 -0.53102,2.7006203 -0.92173,4.0180429 -2.8189,9.505213 -6.50954,19.452189 -10.23125,28.488456 -7.17153,17.412348 -14.96984,34.092121 -23.40936,50.943954 -4.568,9.121294 -9.42276,18.096141 -14.13414,27.144211 -11.68699,21.76221 -24.19851,43.07577 -37.62608,63.80913 -0.91932,1.41952 -12.99255,19.27261 -14.84305,22.57243 -1.21436,2.16549 -2.02012,4.53597 -3.03019,6.80396 0.0661,1.82704 -0.4586,3.77501 0.19838,5.48112 1.89114,4.91095 6.52809,6.69968 10.83805,8.76323 3.0398,1.45542 6.21276,2.61607 9.28807,3.99489 11.65391,5.22506 9.88652,4.54863 21.45077,10.75857 16.73347,9.67744 31.94603,21.73208 45.54858,35.42898 0,0 48.26434,-3.89313 48.26434,-3.89313 v 0 c -14.68639,-13.54098 -30.49583,-25.9444 -47.48173,-36.47981 -10.12971,-5.83673 -10.54701,-6.33578 -20.7822,-11.26767 -5.92431,-2.85467 -9.06399,-4.10008 -14.81826,-6.49588 -1.16535,-0.4852 -2.61538,-0.54884 -3.49773,-1.45156 -0.75084,-0.76813 -0.62355,-2.05578 -0.93533,-3.08368 0.63225,-2.0309 1.04918,-4.14185 1.89677,-6.09272 2.43004,-5.5931 9.90288,-18.31785 12.32691,-22.66039 11.8577,-21.24263 23.35033,-42.68612 34.73455,-64.18538 13.64917,-26.00802 27.19253,-52.065927 40.54089,-78.229914 2.01425,-3.948102 11.43608,-22.420897 14.44569,-28.784914 0.6957,-1.471075 1.27072,-2.9962363 1.90609,-4.4943545 0,0 -49.72804,-1.0875714 -49.72804,-1.0875714 z" />
    <path
       style="fill:#ffffff;stroke-width:0.499999;stroke-linecap:round;stroke-linejoin:round;stroke-dashoffset:0.380976;stroke-opacity:0.508417;paint-order:markers fill stroke"
       id="path691"
       d="m 510.13272,36.52775 c 22.17264,-0.329184 44.3497,-0.289793 66.52437,-0.307491 22.26988,-0.01154 44.53898,-0.75379 66.75406,-2.310632 1.39912,-0.05882 5.59771,-0.176652 4.19735,-0.17647 -15.38465,0.0021 -30.77207,0.493374 -46.15357,0.181904 -0.38799,-0.0079 0.67008,-0.885505 0.35308,-1.10935 -0.36533,-0.257987 -0.98033,0.11956 -1.25611,0.47167 -1.5453,1.973 -2.70406,4.220289 -4.06627,6.323867 -2.55159,3.94026 -5.1167,7.87173 -7.67506,11.807595 -29.02231,43.209603 -54.37016,88.720007 -79.22284,134.408837 -10.35748,19.57818 -20.93629,39.04566 -30.99797,58.77899 0,0 48.25063,2.02184 48.25063,2.02184 v 0 c 7.59767,-20.00397 16.49542,-39.48553 25.86921,-58.71417 3.71158,-7.33236 7.30864,-14.72383 11.13475,-21.99708 20.53889,-39.04335 43.58005,-76.893533 70.88032,-111.611348 3.14161,-3.9152 6.31055,-7.808639 9.42485,-11.745602 3.22554,-4.077595 6.79453,-7.214616 7.20905,-12.671221 0.0882,-1.160426 0.0428,-3.229386 -1.11842,-3.307321 -30.42415,-2.042036 -35.6534,-1.48862 -54.7185,0.12641 -21.30388,1.77325 -42.6847,2.398061 -64.05968,2.36388 -23.46907,-0.01855 -46.9398,0.0036 -70.40721,-0.307491 0,0 49.07796,7.773183 49.07796,7.773183 z" />
    <path
       style="fill:#ffffff;stroke-width:0.499999;stroke-linecap:round;stroke-linejoin:round;stroke-dashoffset:0.380976;stroke-opacity:0.508417;paint-order:markers fill stroke"
       id="path695"
       d="m 677.41307,8.8540179 c -0.68821,1.9664371 -1.29453,3.9634751 -2.06462,5.8993111 -3.60355,9.058518 -7.87675,18.286416 -12.09247,27.019307 -6.1115,12.660087 -13.74701,27.614406 -20.44816,39.810671 -3.9357,7.163051 -8.10371,14.195972 -12.15557,21.293953 -15.54628,26.84867 -32.79658,52.64186 -51.19658,77.60397 -4.09893,5.44663 -8.2622,10.84605 -12.49196,16.19185 -0.0293,0.0371 -4.79716,5.94773 -5.1027,6.44855 -0.51416,0.84274 -0.78489,1.81169 -1.17734,2.71753 0.22264,1.34391 0.11946,2.78478 0.66789,4.03172 1.4637,3.3279 5.14683,6.01896 7.61653,8.32202 2.11907,1.97608 4.32424,3.86801 6.31423,5.97404 7.8618,8.32031 8.27921,9.80787 15.09199,19.70201 9.27484,15.25186 16.31355,31.73274 21.78187,48.69661 2.13731,6.63038 2.69357,9.12688 4.33478,15.49815 1.47886,6.09246 0.82312,3.29459 1.98763,8.3888 0,0 48.99575,-1.38922 48.99575,-1.38922 v 0 c -1.80345,-5.09648 -0.81822,-2.29645 -2.94918,-8.4024 -7.69985,-22.45868 -16.37593,-44.66486 -27.95227,-65.44904 -2.35942,-3.88104 -4.56404,-7.86054 -7.07827,-11.64312 -5.3299,-8.01864 -11.71726,-15.88087 -19.52186,-21.63491 1.42042,-2.9437 3.46004,-5.49581 5.34774,-8.15707 3.86482,-5.44858 7.77798,-10.86373 11.5163,-16.40083 16.80369,-25.39184 32.00435,-51.77187 47.01358,-78.25405 0.40571,-0.70932 24.0275,-42.002945 24.42911,-42.719873 9.65483,-17.235255 18.74083,-34.791353 28.7732,-51.81599 0,0 -49.63962,-1.7319891 -49.63962,-1.7319891 z" />
    <path
       style="fill:#ffffff;stroke-width:0.499999;stroke-linecap:round;stroke-linejoin:round;stroke-dashoffset:0.380976;stroke-opacity:0.508417;paint-order:markers fill stroke"
       id="path697"
       d="m 736.08085,17.829069 c -0.12851,1.098234 -0.18457,2.207393 -0.38555,3.294703 -2.89465,15.659883 -8.29895,30.895089 -13.82387,45.765048 -7.56229,20.353509 -11.28998,28.447264 -19.82309,48.48085 -11.9934,25.91251 -23.46557,52.21708 -38.0103,76.84131 -1.43256,2.49572 -3.15238,4.76688 -5.0418,6.9209 -0.27447,0.31291 -0.50516,0.66815 -0.81518,0.94589 -0.80663,0.43968 -0.44929,0.17019 -1.07939,0.79867 -1.61227,1.84025 -0.86725,5.02538 1.0537,6.46891 1.16134,0.87271 2.5204,1.44528 3.78058,2.16792 2.29357,1.6008 4.7021,3.04833 6.88065,4.8024 7.57314,6.09752 14.05199,12.66461 20.7115,19.77189 10.70944,11.4295 20.65732,23.54279 30.61454,35.6212 5.83798,7.24548 11.64985,14.51208 17.41967,21.81198 2.13614,2.70264 4.27553,5.38361 6.25038,8.20561 1.71032,2.775 1.60015,6.11005 1.7358,9.25827 0.14319,3.32325 0.34023,9.45409 0.44045,12.42139 0.86622,29.16886 -0.78346,58.34087 -2.88412,87.4232 -1.00584,13.62094 -2.54007,27.18599 -4.49296,40.70028 0,0 48.13334,0.47762 48.13334,0.47762 v 0 c 0.74927,-13.62922 1.35239,-27.26505 2.08023,-40.8954 1.5063,-29.23723 3.41096,-58.44775 5.14919,-87.67112 0.0783,-1.62898 0.50424,-10.17494 0.57079,-12.55223 0.0887,-3.16949 0.26122,-6.65427 -0.5755,-9.7587 -0.22262,-0.826 -0.62137,-1.59412 -0.93205,-2.3912 -0.52107,-0.75718 -0.98398,-1.55789 -1.56318,-2.27158 -0.78322,-0.96509 -5.60504,-5.979 -5.96048,-6.35796 -6.63459,-7.07306 -13.11508,-14.28996 -19.4546,-21.62869 -10.33444,-11.92049 -20.53109,-23.96358 -30.9317,-35.8263 -4.80922,-5.48529 -13.34079,-15.13439 -18.73877,-20.59997 -1.86116,-1.88446 -3.87898,-3.6075 -5.81845,-5.41126 -1.02981,-0.7538 -1.94966,-1.68725 -3.08941,-2.26141 -1.86856,-0.94126 -1.79969,3.6293 -0.69561,2.24119 2.40778,-2.76579 3.86294,-6.97728 5.61168,-10.10374 11.36581,-25.55754 20.9378,-51.88339 32.35213,-77.42409 10.05441,-23.464695 19.88394,-47.023195 29.91888,-70.495811 2.36743,-5.537686 4.90058,-11.005005 7.18574,-16.577156 2.07256,-5.053764 2.60974,-7.102969 3.9683,-11.642165 0,0 -49.74154,-0.550449 -49.74154,-0.550449 z" />
    <path
       style="fill:#ffffff;stroke-width:0.499999;stroke-linecap:round;stroke-linejoin:round;stroke-dashoffset:0.380976;stroke-opacity:0.508417;paint-order:markers fill stroke"
       id="path709"
       d="m 607.99815,373.04448 c 5.94633,0.69307 11.25696,3.29599 16.25481,6.54145 3.64374,2.36614 7.19206,4.90085 10.52566,7.68702 11.89135,9.93857 14.14375,13.59807 24.64898,25.71723 16.42366,21.18805 29.27106,44.83299 39.77957,69.4335 4.63685,10.85487 6.24136,15.80964 10.06192,26.51648 2.42647,7.62691 3.06088,9.39361 5.10482,16.55792 0.48416,1.69709 0.50924,3.57833 1.38657,5.10961 0.81706,1.4261 1.87614,3.48115 3.51949,3.45334 18.57348,-0.31433 37.51233,-0.0138 55.55025,-4.45302 7.11729,-1.75162 11.57568,-8.99443 17.36354,-13.49166 38.37734,-28.18868 78.61319,-53.82704 119.95629,-77.4351 21.54275,-12.30148 29.25366,-16.06312 50.35367,-27.01504 0,0 -42.85117,-4.61698 -42.85117,-4.61698 v 0 c -17.79603,10.12275 -29.57743,16.71632 -47.60558,27.48113 -41.64555,24.867 -82.34492,51.25789 -123.23873,77.32826 -7.11648,4.19085 -27.66637,7.25244 -21.34944,12.57255 10.33967,8.70805 26.9931,1.78517 40.40502,3.47602 1.25441,0.15814 -2.58133,1.89722 -3.61037,1.16266 -1.49792,-1.06921 -1.31567,-3.43757 -1.98062,-5.15361 -3.17262,-8.18774 -2.99596,-7.67543 -6.58921,-16.69515 -4.38981,-10.47422 -6.65652,-16.11985 -11.57706,-26.75573 -11.37054,-24.57775 -24.179,-48.56038 -40.05426,-70.56154 -3.9483,-5.01692 -7.68842,-10.20495 -11.84495,-15.0508 -6.41331,-7.47694 -13.03054,-13.90631 -20.64517,-20.0674 -4.11313,-3.32798 -9.21925,-7.06459 -14.39696,-8.69818 0,0 -49.16707,6.95704 -49.16707,6.95704 z" />
    <path
       style="fill:#ffffff;stroke-width:0.499999;stroke-linecap:round;stroke-linejoin:round;stroke-dashoffset:0.380976;stroke-opacity:0.508417;paint-order:markers fill stroke"
       id="path835"
       d="m 223.97769,16.598991 c -6.8533,-3.658344 -14.16999,-6.49747 -20.77231,-10.6308885 -9.73894,-6.09712007 -22.2849,-15.5508469 -30.4946,-23.3517115 -5.89405,-5.600536 -11.16287,-11.824285 -16.74431,-17.736428 -18.34722,-22.512033 -33.55148,-47.376622 -45.33891,-73.901563 -4.18157,-9.40966 -5.17781,-12.70268 -8.39963,-21.80339 0,0 -48.06713,1.76596 -48.06713,1.76596 v 0 c 3.680894,8.87419 5.292371,13.07816 9.727859,22.17854 12.956963,26.584064 28.697689,51.681952 46.750241,75.108948 5.34878,6.12129 10.34671,12.567845 16.04633,18.363867 4.75184,4.832211 10.06482,9.0822133 15.24292,13.45458262 4.46845,3.77314998 8.93733,7.56507938 13.68865,10.97516738 5.91615,4.246103 12.65307,7.085016 18.83971,10.86443 0,0 49.52118,-5.287514 49.52118,-5.287514 z" />
    <path
       style="fill:#ffffff;stroke-width:0.499999;stroke-linecap:round;stroke-linejoin:round;stroke-dashoffset:0.380976;stroke-opacity:0.508417;paint-order:markers fill stroke"
       id="path837"
       d="m 56.708317,-126.85746 c 0.13888,2.22006 0.347231,4.43687 0.416642,6.66019 0.110411,3.53668 0.02833,7.07736 0.12265,10.6145 0.20592,7.72188 0.681564,15.436793 0.778034,23.160816 0.123198,9.864379 0.498152,19.749389 -0.119147,29.595204 -0.778365,12.414808 -2.142284,24.805672 -4.062148,37.095807 -2.063297,13.2083501 -5.250423,26.2164816 -7.875635,39.324722 -7.41521,31.965657 -17.174461,63.32933 -29.041612,93.912641 -5.903308,15.21366 -8.9131204,21.4373 -15.2902619,35.5441 0,0 46.8755859,1.85325 46.8755859,1.85325 v 0 c 5.256001,-13.74179 8.294407,-21.36082 13.237001,-35.90159 10.544733,-31.021857 19.58804,-62.551019 26.691063,-94.545898 6.191718,-29.2813539 10.90522,-47.568948 13.940341,-77.174476 1.00818,-9.834015 0.7873,-19.756154 1.32668,-29.626986 0.42157,-7.714969 1.06114,-15.41654 1.55601,-23.12715 0.22775,-3.54861 0.36006,-7.10318 0.61181,-10.65016 0.15963,-2.24889 0.41476,-4.48998 0.62214,-6.73497 0,0 -49.789153,0 -49.789153,0 z" />
    <path
       style="fill:#ffffff;stroke-width:0.499999;stroke-linecap:round;stroke-linejoin:round;stroke-dashoffset:0.380976;stroke-opacity:0.508417;paint-order:markers fill stroke"
       id="path853"
       d="m 49.811823,147.57628 c 9.069014,-6.00377 18.530043,-11.50693 28.493593,-15.90926 20.312758,-8.97505 41.599744,-15.29121 62.809504,-21.70113 23.75243,-6.06963 47.92849,-12.06397 72.55709,-12.760644 0,0 -48.49323,-7.39657 -48.49323,-7.39657 v 0 c -23.64865,2.089282 -46.79206,8.033247 -69.611694,14.331824 -16.771178,5.26216 -26.203687,8.01466 -42.888582,14.12286 -7.064928,2.58641 -14.116605,5.22706 -21.032121,8.1899 -10.823603,4.63717 -21.273941,10.28513 -31.16895897,16.65843 0,0 49.33439897,4.46459 49.33439897,4.46459 z" />
    <path
       style="fill:#ffffff;stroke-width:0.499999;stroke-linecap:round;stroke-linejoin:round;stroke-dashoffset:0.380976;stroke-opacity:0.508417;paint-order:markers fill stroke"
       id="path861"
       d="m 148.66686,93.554604 c -0.32176,2.375779 -0.5194,4.771692 -0.96529,7.127326 -3.82054,20.18399 -11.23755,39.43865 -17.29555,58.98765 -8.33051,26.88234 -12.90353,44.05826 -20.54622,71.44405 -10.645398,40.21877 -20.651556,80.64337 -28.847117,121.44106 -2.842488,14.14997 -3.961501,20.91383 -6.358785,34.52678 -1.40136,8.36075 -2.315453,16.78278 -3.018382,25.22524 0,0 48.967744,0.19839 48.967744,0.19839 v 0 c -0.0292,-8.2586 0.24876,-16.50966 1.20122,-24.72465 0.61372,-5.01362 1.15742,-10.03631 1.84115,-15.04088 6.47392,-47.38592 16.71666,-94.22868 28.97148,-140.43051 11.46536,-38.86449 9.47713,-33.99095 22.5199,-71.14961 3.12319,-8.8979 6.41605,-17.73559 9.70086,-26.57511 2.68226,-7.21802 5.68008,-14.32023 8.2,-21.59652 1.2172,-3.5147 4.16338,-15.000823 5.32231,-19.433216 0,0 -49.69332,0 -49.69332,0 z" />
    <path
       style="fill:#ffffff;stroke-width:0.499999;stroke-linecap:round;stroke-linejoin:round;stroke-dashoffset:0.380976;stroke-opacity:0.508417;paint-order:markers fill stroke"
       id="path863"
       d="m 123.30331,405.56381 c 0.88211,-6.0455 2.03571,-12.87667 -0.34087,-18.78693 -2.69288,-6.69687 -6.42049,-12.95815 -10.27308,-19.06204 C 94.683333,339.18681 95.016097,343.52555 66.525734,318.20254 55.075057,309.71617 44.100702,300.54618 32.173703,292.74341 5.9544534,275.5905 -22.858651,261.47504 -51.18029,248.26998 c -34.871803,-16.2591 -70.64542,-30.43683 -106.36716,-44.68059 -23.09072,-9.15011 -46.2664,-18.08314 -69.31655,-27.33527 0,0 -47.38668,5.72853 -47.38668,5.72853 v 0 c 24.36581,9.02 48.8336,17.76239 73.17203,26.8574 36.65792,13.86785 73.36161,27.67628 109.016637,44.01756 28.093437,12.87568 56.428589,26.78736 82.3245696,43.802 11.7022465,7.68882 22.4551584,16.73344 33.6827374,25.10015 25.641141,23.82303 26.883204,20.96286 42.604073,48.11504 6.646304,11.47913 11.719512,20.78365 7.021751,33.38152 0,0 49.732192,2.30749 49.732192,2.30749 z" />
  </g>
</svg>
